<?xml version="1.0" standalone="no"?>
<!DOCTYPE svg PUBLIC "-//W3C//DTD SVG 1.1//EN" "http://www.w3.org/Graphics/SVG/1.1/DTD/svg11.dtd" >
<svg>
<metadata>
Created by FontForge 20090622 at Sat May 19 23:42:39 2018
 By deploy user
Copyright &#194;&#169; 2017 by Inkyotter Design. All rights reserved.
</metadata>
<defs>
<font id="Riffic-Bold" horiz-adv-x="0" >
  <font-face 
    font-family="Riffic Medium"
    font-weight="700"
    font-stretch="normal"
    units-per-em="1000"
    panose-1="0 0 8 0 0 0 0 0 0 0"
    ascent="800"
    descent="-200"
    x-height="534"
    cap-height="772"
    bbox="-862 -269 1400 991"
    underline-thickness="50"
    underline-position="-125"
    unicode-range="U+000D-U+FB03"
  />
<missing-glyph horiz-adv-x="835" 
d="M30 765l775 -4v-761h-775v765zM100 694v-623h635v623h-635z" />
    <glyph glyph-name="f_f_i" unicode="ffi" horiz-adv-x="1089" 
d="M1068 531l-1 -536h-198l-10 348l-116 2l15 -349h-213l-3 352l-102 1v1l-88 1l15 -349h-213l-3 352l-102 1l-19 186l119 -1v43q-1 68 31 121.5t85.5 82.5t116.5 29q52 0 90 -15.5t68 -50.5l-7 -148q-24 19 -44.5 30.5t-47.5 11.5q-43 0 -67 -25t-28 -81l149 -2v-2h45v43
q-1 68 31 121.5t85.5 82.5t116.5 29q52 0 90 -15.5t68 -50.5l-7 -148q-24 19 -44.5 30.5t-47.5 11.5q-43 0 -67 -25t-28 -81l139 -2z" />
    <glyph glyph-name="f_f" unicode="ff" horiz-adv-x="943" 
d="M738 614q-24 -25 -28 -81l149 -2l-11 -187l-132 2l15 -349h-213l-3 352h-31l-132 2l15 -349h-213l-3 352l-102 1l-19 186l119 -1v43q-1 68 31 121.5t85.5 82.5t116.5 29q52 0 90 -15.5t68 -50.5l-3 -63q29 58 85.5 91t123.5 33q52 0 90 -15.5t68 -50.5l-7 -148
q-24 19 -44.5 30.5t-47.5 11.5q-43 0 -67 -25zM513 535v43q0 14 2 38q-42 28 -74 28q-43 0 -67 -25t-28 -81l149 -2v-1h18z" />
    <glyph glyph-name=".notdef" horiz-adv-x="835" 
d="M30 765l775 -4v-761h-775v765zM100 694v-623h635v623h-635z" />
    <glyph glyph-name="uni0000" horiz-adv-x="60" 
 />
    <glyph glyph-name="uni0000" horiz-adv-x="60" 
 />
    <glyph glyph-name="uni000D" unicode="&#xd;" horiz-adv-x="60" 
 />
    <glyph glyph-name="space" unicode=" " horiz-adv-x="300" 
 />
    <glyph glyph-name="exclam" unicode="!" horiz-adv-x="307" 
d="M51 274l-21 486h219l-1 -469zM72 53.5q-32 33.5 -32 78.5q0 30 16.5 55.5t43.5 40t57 14.5q44 0 74.5 -29t30.5 -78q0 -48 -31.5 -81.5t-78.5 -33.5q-48 0 -80 33.5z" />
    <glyph glyph-name="quotedbl" unicode="&#x22;" horiz-adv-x="417" 
d="M65 518l-35 275l168 15v-290h-133zM346 499l-125 19v260l166 24z" />
    <glyph glyph-name="numbersign" unicode="#" horiz-adv-x="840" 
d="M810 103l-146 6v-109l-174 2l-4 114l-126 5l3 -125l-211 -2l-1 135l-97 4l-23 193l118 -4l-1 143l-107 5l-11 180l116 -5l-1 95l198 19l3 -122l124 -5l-3 112l199 15v-135l97 -4l22 -187l-120 6v-134l122 -4zM355 315l125 -4l-4 137l-125 7z" />
    <glyph glyph-name="dollar" unicode="$" horiz-adv-x="508" 
d="M443.5 396q58.5 -41 58.5 -114q0 -64 -47.5 -114.5t-125.5 -68.5l-4 -106l-195 10l9 110q-70 25 -109 70l99 122q25 -21 68.5 -34.5t74.5 -13.5q27 0 43 10t16 27q0 13 -11 16.5t-52 7.5q-103 13 -157 51t-54 100q0 47 29.5 88t79.5 65l7 120l196 10l-6 -111
q44 -10 83 -28.5t64 -42.5l-81 -118q-36 25 -66 37t-74 12q-65 0 -65 -32q0 -13 13.5 -17.5t56.5 -7.5q91 -7 149.5 -48z" />
    <glyph glyph-name="percent" unicode="%" horiz-adv-x="1008" 
d="M127.5 419.5q-45.5 26.5 -71.5 71.5t-26 96q0 52 28 92.5t76 63t105 22.5q83 0 137 -46t54 -123q0 -52 -25.5 -99t-71.5 -75.5t-104 -28.5q-56 0 -101.5 26.5zM474 -12l-204 105l281 661l189 8zM270 539.5q16 16.5 16 38.5q0 23 -17.5 40t-40.5 17q-22 0 -38 -15.5
t-16 -36.5q0 -23 18.5 -41.5t41.5 -18.5q20 0 36 16.5zM686.5 22.5q-45.5 23.5 -72 65t-26.5 94.5q0 48 22 93t66 74t106 29q60 0 104.5 -28.5t68 -74t23.5 -95.5q0 -54 -26.5 -95.5t-70.5 -63.5t-96 -22q-53 0 -98.5 23.5zM821.5 149q18.5 17 18.5 41q0 22 -16.5 39
t-40.5 17q-25 0 -40.5 -16.5t-15.5 -44.5q0 -25 13.5 -39t36.5 -14q26 0 44.5 17z" />
    <glyph glyph-name="ampersand" unicode="&#x26;" horiz-adv-x="652" 
d="M619 300l-69 9q17 -18 28 -46t11 -60q0 -63 -40 -110.5t-105 -73t-138 -25.5q-80 0 -142 30.5t-96.5 84t-34.5 120.5q0 59 24 100t61 55q-36 19 -62 61.5t-26 98.5q0 63 34 113.5t93.5 79.5t132.5 29q67 0 121.5 -24.5t86 -67.5t31.5 -97l-142 -65q1 43 -22.5 68
t-65.5 25q-38 0 -64 -21.5t-26 -55.5t26.5 -58t63.5 -24l3 -104q-19 0 -41 -13t-37 -35.5t-15 -48.5q0 -37 31 -63.5t77 -26.5q47 0 77 26t30 64q0 32 -22 58.5t-53 31.5v100h271z" />
    <glyph glyph-name="quotesingle" unicode="'" horiz-adv-x="237" 
d="M66 544l-36 268l175 12v-280h-139z" />
    <glyph glyph-name="parenleft" unicode="(" horiz-adv-x="385" 
d="M71 125.5q-41 138.5 -41 286.5q0 137 42.5 270t123.5 213l147 -87q-66 -82 -97.5 -178.5t-31.5 -229.5q0 -114 33 -214t108 -191l-166 -96q-77 88 -118 226.5z" />
    <glyph glyph-name="parenright" unicode=")" horiz-adv-x="385" 
d="M37 -5q75 91 108 191t33 214q0 133 -31.5 229.5t-97.5 178.5l147 87q81 -80 123.5 -213t42.5 -270q0 -148 -41 -286.5t-118 -226.5z" />
    <glyph glyph-name="asterisk" unicode="*" horiz-adv-x="331" 
d="M212 536l-46 81l-54 -78l-60 42l48 70l-70 37l33 71l64 -32l3 70l74 5l3 -75l60 25l34 -71l-69 -30l44 -79z" />
    <glyph glyph-name="plus" unicode="+" horiz-adv-x="582" 
d="M552 364l-13 -196l-152 4l2 -164l-195 -13l3 182l-155 4l-12 191l170 -3l3 177l179 -12l2 -167z" />
    <glyph glyph-name="comma" unicode="," horiz-adv-x="354" 
d="M177 -126l-147 25l103 318l191 -72z" />
    <glyph glyph-name="hyphen" unicode="-" horiz-adv-x="448" 
d="M38 188l-8 203l386 3l2 -203z" />
    <glyph glyph-name="period" unicode="." horiz-adv-x="282" 
d="M62 18.5q-32 33.5 -32 78.5q0 30 16.5 55.5t43.5 40t57 14.5q44 0 74.5 -29t30.5 -78q0 -48 -31.5 -81.5t-78.5 -33.5q-48 0 -80 33.5z" />
    <glyph glyph-name="slash" unicode="/" horiz-adv-x="576" 
d="M230 8h-200l316 753h200z" />
    <glyph glyph-name="zero" unicode="0" horiz-adv-x="717" 
d="M194.5 33.5q-76.5 52.5 -120.5 144t-44 204.5q0 112 43.5 201.5t120.5 140t173 50.5q95 0 167.5 -49.5t112.5 -138.5t40 -204q0 -117 -41 -208t-114 -142t-166 -51q-95 0 -171.5 52.5zM415 229.5q24 23.5 38 63t14 86.5q0 75 -28.5 122t-73.5 47q-32 0 -58 -21.5
t-41 -58.5t-15 -83q0 -50 14.5 -91t40 -64.5t56.5 -23.5q29 0 53 23.5z" />
    <glyph glyph-name="one" unicode="1" horiz-adv-x="430" 
d="M30 761h218l152 -14l-2 -746h-228v543h-140v217z" />
    <glyph glyph-name="two" unicode="2" horiz-adv-x="645" 
d="M615 0l-570 -1l-15 169q67 36 145 96t131.5 124t53.5 112q0 26 -17 43.5t-47 17.5q-32 0 -56 -25.5t-24 -62.5l-186 31q4 75 41 136t100 96t141 35q77 0 135 -34.5t89.5 -95.5t31.5 -139q0 -85 -55.5 -167t-152.5 -156l234 8z" />
    <glyph glyph-name="three" unicode="3" horiz-adv-x="607" 
d="M538 390.5q39 -64.5 39 -143.5q0 -122 -73 -192.5t-207 -70.5q-84 0 -157 46t-110 119l165 83q10 -23 39 -39t58 -16q38 0 62 24.5t24 63.5q0 34 -23.5 57t-58.5 23q-37 0 -68 -22l-68 135l141 125l-241 -3v179l491 1l4 -174l-121 -98q65 -33 104 -97.5z" />
    <glyph glyph-name="four" unicode="4" horiz-adv-x="638" 
d="M608 374v-210l-100 6l-3 -164l-210 -6l4 182l-263 15l-6 558l211 12l5 -381l57 -2l4 171l208 55l-4 -233z" />
    <glyph glyph-name="five" unicode="5" horiz-adv-x="600" 
d="M444.5 495q58.5 -32 92 -90t33.5 -133q0 -78 -36 -143t-97 -103t-134 -38q-75 0 -150 41.5t-123 114.5l166 97q12 -25 38 -41t54 -16q39 0 63 23.5t24 62.5q0 35 -24.5 60.5t-59.5 25.5q-62 0 -86 -41l-148 65l-7 -2v5l1 2l36 375h457v-179h-288l-6 -59q35 5 63 5
q73 0 131.5 -32z" />
    <glyph glyph-name="six" unicode="6" horiz-adv-x="642" 
d="M506.5 480.5q51.5 -41.5 78.5 -100t27 -124.5q0 -72 -40 -133.5t-105.5 -97.5t-139.5 -36q-82 0 -150.5 40.5t-107.5 106t-39 136.5q0 75 35 166t114.5 183t205.5 161l140 -142q-31 -14 -68.5 -41t-73.5 -63q72 -14 123.5 -55.5zM379 213q22 21 22 51q0 34 -22 55.5
t-60 21.5q-31 0 -52.5 -17t-26.5 -43v-15h-1q0 -31 23.5 -52.5t58.5 -21.5q36 0 58 21z" />
    <glyph glyph-name="seven" unicode="7" horiz-adv-x="612" 
d="M582 579q-104 -127 -180 -283q-24 -47 -50.5 -116t-64.5 -182h-244q54 174 108 294q88 195 145 278l-264 -9v200h543z" />
    <glyph glyph-name="eight" unicode="8" horiz-adv-x="623" 
d="M558.5 330q34.5 -51 34.5 -116q0 -64 -34 -114.5t-96 -79.5t-141 -29q-82 0 -148.5 29t-105 79t-38.5 110q0 59 38 112t93 76q-58 29 -89.5 71.5t-31.5 92.5q0 54 37 102t99 77.5t134 29.5t132.5 -29t95.5 -77.5t35 -105.5q0 -46 -24.5 -88.5t-75.5 -69.5
q51 -19 85.5 -70zM251.5 587.5q-22.5 -16.5 -22.5 -41.5q0 -26 25.5 -43t69.5 -26q67 26 67 67q0 28 -24 44t-58 16q-35 0 -57.5 -16.5zM378.5 173q25.5 16 26.5 45q0 22 -22.5 43.5t-71.5 37.5q-46 -10 -66.5 -31.5t-20.5 -45.5q0 -33 27 -49t66 -16q36 0 61.5 16z" />
    <glyph glyph-name="nine" unicode="9" horiz-adv-x="642" 
d="M540 332q-35 -91 -114.5 -183t-205.5 -161l-140 142q31 14 68.5 41t73.5 63q-72 14 -123.5 55.5t-78.5 100t-27 124.5q0 72 40 133.5t105.5 97.5t139.5 36q82 0 150.5 -40.5t107.5 -106t39 -136.5q0 -75 -35 -166zM226 557q-22 -21 -22 -51q0 -34 22 -55.5t60 -21.5
q31 0 52.5 17t26.5 43v15h1q0 31 -23.5 52.5t-58.5 21.5q-36 0 -58 -21z" />
    <glyph glyph-name="colon" unicode=":" horiz-adv-x="280" 
d="M86 433.5q-25 15.5 -40.5 41.5t-15.5 58q0 48 33 82.5t80 34.5q43 0 75 -32t32 -80q0 -29 -15 -57t-40.5 -45.5t-55.5 -17.5q-28 0 -53 15.5zM86 9.5q-25 15.5 -40.5 41.5t-15.5 58q0 48 33 82.5t80 34.5q43 0 75 -32t32 -80q0 -29 -15 -57t-40.5 -45.5t-55.5 -17.5
q-28 0 -53 15.5z" />
    <glyph glyph-name="semicolon" unicode=";" horiz-adv-x="301" 
d="M100.5 433q-25.5 16 -41 43t-15.5 59q0 49 33.5 84.5t81.5 35.5q46 0 78 -34t32 -81q0 -30 -15.5 -58.5t-41.5 -46.5t-57 -18q-29 0 -54.5 16zM152 -71l-122 21l83 277l156 -78z" />
    <glyph glyph-name="less" unicode="&#x3c;" horiz-adv-x="477" 
d="M447 402l-219 -113l216 -115l-54 -169l-360 182l1 205l341 168z" />
    <glyph glyph-name="equal" unicode="=" horiz-adv-x="433" 
d="M31 315v162l372 -9v-153h-372zM30 120v163h369v-163h-369z" />
    <glyph glyph-name="greater" unicode="&#x3e;" horiz-adv-x="508" 
d="M487 392l1 -205l-360 -182l-54 169l216 115l-219 113l75 158z" />
    <glyph glyph-name="question" unicode="?" horiz-adv-x="548" 
d="M313 240l-162 13v198q7 -4 31 -8.5t42 -4.5q41 0 70.5 21.5t29.5 56.5q0 33 -21.5 55.5t-61.5 22.5q-39 0 -60 -23.5t-28 -57.5l-123 50q5 57 39 104.5t88 75.5t116 28q71 0 127 -37t87 -97t31 -126q0 -72 -36 -122t-85 -73.5t-86 -22.5zM157 20.5q-30 32.5 -30 76.5
q0 45 32.5 76t75.5 31q40 0 68.5 -28t28.5 -75t-28.5 -80t-72.5 -33t-74 32.5z" />
    <glyph glyph-name="at" unicode="@" horiz-adv-x="864" 
d="M641.5 723.5q88.5 -42.5 140.5 -122t52 -187.5q0 -85 -25 -156.5t-76 -115t-123 -43.5q-53 0 -94 37.5t-45 113.5q-16 -13 -40.5 -21t-48.5 -8q-41 0 -76 23t-55 61.5t-20 84.5q0 47 21 85.5t57.5 61t80.5 22.5q53 0 80 -30v26h106l12 -280h1q0 -14 10.5 -25t28.5 -11
q32 0 58 36.5t26 121.5q0 129 -71.5 188.5t-189.5 59.5q-92 0 -155.5 -35t-95 -94t-31.5 -129q0 -69 29.5 -128t79.5 -93.5t109 -34.5q39 0 69 19l117 -117q-77 -38 -163 -38q-108 0 -194.5 50t-136 137t-49.5 192q0 112 56 201.5t151 140t209 50.5q107 0 195.5 -42.5z
M447.5 348q18.5 21 18.5 49q0 25 -16 40.5t-40 15.5q-26 0 -46 -18.5t-20 -43.5t19 -44.5t42 -19.5q24 0 42.5 21z" />
    <glyph glyph-name="A" unicode="A" horiz-adv-x="841" 
d="M596 -18l-44 167l-239 11l-63 -170l-220 29l329 741l208 -2l244 -743zM389 367l108 -9l-46 178z" />
    <glyph glyph-name="B" unicode="B" horiz-adv-x="631" 
d="M526 396q35 -28 55 -74t20 -101q0 -229 -332 -229q-138 0 -236 7v723q45 22 120 33t135 11q110 0 179 -52.5t69 -146.5q0 -99 -87 -139q42 -4 77 -32zM333.5 595q-22.5 17 -54.5 17q-29 0 -48 -8l1 -112q15 -4 32 -4q44 0 68 17t24 46q0 27 -22.5 44zM360 189
q27 23 27 53q0 38 -29 56.5t-71 18.5q-32 0 -54 -15l1 -128q11 -5 27.5 -7.5t30.5 -1.5q41 1 68 24z" />
    <glyph glyph-name="C" unicode="C" horiz-adv-x="804" 
d="M209 39q-86 54 -132.5 144.5t-46.5 197.5q0 108 54.5 198.5t145 143t194.5 52.5q78 0 149 -29t124.5 -88.5t76.5 -146.5l-186 -55q-16 42 -59.5 75.5t-106.5 33.5q-46 0 -88 -22.5t-68 -65t-26 -97.5q0 -49 21.5 -92t61 -68.5t90.5 -25.5q45 0 82 17t61 43t32 51l186 -58
q-18 -75 -69 -134.5t-128 -93.5t-169 -34q-113 0 -199 54z" />
    <glyph glyph-name="D" unicode="D" horiz-adv-x="689" 
d="M443.5 725q100.5 -51 158 -148t57.5 -229q0 -179 -107.5 -270.5t-331.5 -92.5q-81 0 -190 15l10 734l-2 4q48 20 87 29t90 9q128 0 228.5 -51zM398.5 238.5q50.5 42.5 50.5 133.5q0 58 -22.5 100t-61 64t-84.5 22q-19 0 -41 -5v-354q16 -3 33 -3q75 0 125.5 42.5z" />
    <glyph glyph-name="E" unicode="E" horiz-adv-x="615" 
d="M264 206l321 6v-212h-531l-24 760l531 17l14 -205l-330 -6l4 -86l273 9l9 -183l-271 -13z" />
    <glyph glyph-name="F" unicode="F" horiz-adv-x="572" 
d="M542 554l-317 -9l2 -103l228 3l16 -208l-240 -3l5 -235h-206l6 751l506 10v-206z" />
    <glyph glyph-name="G" unicode="G" horiz-adv-x="809" 
d="M779 324q0 -89 -47 -167t-129 -125t-181 -47q-105 0 -195 53.5t-143.5 145t-53.5 200.5q0 107 52 197t143 142.5t202 52.5q68 0 130.5 -19.5t107.5 -52t63 -70.5l-141 -114q-26 23 -64 37t-82 14q-57 0 -102.5 -24t-71.5 -67.5t-26 -98.5q0 -50 22.5 -93t63.5 -69t93 -26
q67 0 107.5 26t52.5 68l-192 23l34 164l338 -42l-1 -1q20 -50 20 -107z" />
    <glyph glyph-name="H" unicode="H" horiz-adv-x="684" 
d="M446 -6l-2 289l-205 7v-289h-208v758h208v-261l204 -6l-2 264l208 4l5 -767z" />
    <glyph glyph-name="I" unicode="I" horiz-adv-x="270" 
d="M30 0l16 750l194 10l-6 -770z" />
    <glyph glyph-name="J" unicode="J" horiz-adv-x="627" 
d="M578 346q10 -39 10 -79q0 -77 -36 -141.5t-98 -102.5t-138 -38q-60 0 -119.5 24t-104.5 67.5t-62 100.5l158 99q13 -32 40.5 -54.5t61.5 -22.5q43 0 64.5 24t21.5 66q0 29 -8 53l-52 207l-227 1l23 210l470 -3l16 -210h-74z" />
    <glyph glyph-name="K" unicode="K" horiz-adv-x="710" 
d="M504 -36l-219 299l-43 -43l1 -222l-209 5l-4 754h211l1 -244l262 261l148 -139l-216 -219l243 -324z" />
    <glyph glyph-name="L" unicode="L" horiz-adv-x="568" 
d="M245 200l293 7v-210l-508 -1l4 756l208 13z" />
    <glyph glyph-name="M" unicode="M" horiz-adv-x="914" 
d="M884 5l-211 -10l-19 302l-113 -296l-172 -1l-122 299l-5 -300l-208 9l12 753l226 -10l180 -414l172 427l226 -5z" />
    <glyph glyph-name="N" unicode="N" horiz-adv-x="779" 
d="M520 760l227 4l-5 -764h-201v2l-1 -2l-279 355l11 -354l-233 -7l-9 773l218 -7l282 -358z" />
    <glyph glyph-name="O" unicode="O" horiz-adv-x="860" 
d="M233.5 39.5q-92.5 55.5 -148 147.5t-55.5 195q0 104 55.5 194.5t148.5 144t200 53.5q106 0 197 -53.5t145 -143.5t54 -194q0 -106 -54.5 -198t-146.5 -146.5t-197 -54.5q-106 0 -198.5 55.5zM523 216q45 25 72 69t27 98q0 52 -26 94.5t-70 66.5t-97 24t-97 -25t-69 -67.5
t-25 -94.5t25.5 -95.5t68.5 -69t95 -25.5q51 0 96 25z" />
    <glyph glyph-name="P" unicode="P" horiz-adv-x="650" 
d="M455.5 738.5q75.5 -33.5 120 -99t44.5 -157.5q0 -79 -43 -150t-115 -114t-154 -43q-29 0 -57 9l5 -184h-210l-16 695q26 29 109 53t150 24q91 0 166.5 -33.5zM381 412q34 30 34 70q0 38 -31 65t-80 27q-32 0 -63 -18l4 -161q28 -13 53 -13q49 0 83 30z" />
    <glyph glyph-name="Q" unicode="Q" horiz-adv-x="865" 
d="M790 234.5q-30 -71.5 -83 -126.5l77 -104l-178 -113l-77 108q-52 -15 -107 -15q-106 0 -198.5 55.5t-148 147.5t-55.5 195q0 104 55.5 194.5t148.5 144t200 53.5q106 0 197 -53.5t145 -143.5t54 -194q0 -77 -30 -148.5zM513 216q45 25 72 69t27 98q0 52 -26 94.5
t-70 66.5t-97 24t-97 -25t-69 -67.5t-25 -94.5t25.5 -95.5t68.5 -69t95 -25.5q51 0 96 25z" />
    <glyph glyph-name="R" unicode="R" horiz-adv-x="637" 
d="M529.5 189q35.5 -18 73.5 -21v-209q-17 -3 -34 -3q-64 0 -130 33t-115 88t-65 115l-15 2l1 -193h-207l-7 723q27 22 98.5 37t130.5 15q114 0 192 -38t116.5 -102.5t38.5 -145.5q0 -78 -34 -143.5t-96 -105.5q17 -34 52.5 -52zM242 384q18 -5 35 -5q49 0 86 29t37 75
q0 38 -26.5 67.5t-72.5 29.5q-34 0 -60 -13z" />
    <glyph glyph-name="S" unicode="S" horiz-adv-x="670" 
d="M171 28.5q-84 33.5 -141 92.5l101 139q104 -77 207 -77q40 0 64 15t24 41t-30 37t-97 18q-113 13 -173.5 65t-60.5 150q0 74 36 132.5t100.5 91.5t146.5 33q79 0 156.5 -31.5t135.5 -90.5l-98 -134q-52 37 -91.5 52.5t-97.5 15.5q-43 0 -65.5 -13.5t-22.5 -38.5
q0 -24 22 -35t71 -13q103 -3 185 -50t82 -164q0 -79 -38.5 -140t-104.5 -95t-146 -34q-81 0 -165 33.5z" />
    <glyph glyph-name="T" unicode="T" horiz-adv-x="704" 
d="M674 575l-224 -5l2 -568l-198 -9l-2 572l-208 -5l-14 200l628 15z" />
    <glyph glyph-name="U" unicode="U" horiz-adv-x="718" 
d="M182.5 44q-74.5 56 -113.5 156t-39 231q0 195 52 345l218 -65q-21 -67 -33 -143.5t-12 -132.5q0 -108 26 -174t78 -66q48 0 76 66t28 174q0 56 -12 132.5t-33 143.5l218 65q52 -150 52 -345q0 -134 -39.5 -234t-113.5 -154.5t-175 -54.5q-103 0 -177.5 56z" />
    <glyph glyph-name="V" unicode="V" horiz-adv-x="776" 
d="M543 760l203 -56l-192 -700l-210 -37l-314 707l208 94l191 -439z" />
    <glyph glyph-name="W" unicode="W" horiz-adv-x="1195" 
d="M922 785l243 -116l-263 -686h-211l-113 372l-101 -354l-235 3l-212 689l232 72l116 -427l111 407h192l105 -431z" />
    <glyph glyph-name="X" unicode="X" horiz-adv-x="774" 
d="M741 89l-200 -112l-156 217l-166 -217l-189 131l215 279l-188 260l175 114l149 -197l158 204l189 -125l-204 -267z" />
    <glyph glyph-name="Y" unicode="Y" horiz-adv-x="795" 
d="M765 714l-267 -396l8 -311l-215 -7l1 336l-262 340l219 89l155 -230l151 229z" />
    <glyph glyph-name="Z" unicode="Z" horiz-adv-x="698" 
d="M668 765v-199l-321 -365l308 11l1 -214l-626 -3l2 201l299 353l-268 14l-2 202h607z" />
    <glyph glyph-name="bracketleft" unicode="[" horiz-adv-x="412" 
d="M370 -9l12 -186l-352 1l11 1000h321l11 -168h-145l-11 -642z" />
    <glyph glyph-name="backslash" unicode="\" horiz-adv-x="565" 
d="M352 -26l-322 772l192 35l313 -749z" />
    <glyph glyph-name="bracketright" unicode="]" horiz-adv-x="412" 
d="M52 -9l153 5l-11 642h-145l11 168h321l11 -1000l-352 -1z" />
    <glyph glyph-name="asciicircum" unicode="^" horiz-adv-x="410" 
d="M380 619l-142 -1l-32 115l-46 -113h-130l104 186h151z" />
    <glyph glyph-name="underscore" unicode="_" horiz-adv-x="623" 
d="M30 -142l9 140h554l-12 -140h-551z" />
    <glyph glyph-name="grave" unicode="`" horiz-adv-x="306" 
d="M136 654l-106 106l156 46l90 -138z" />
    <glyph glyph-name="a" unicode="a" horiz-adv-x="640" 
d="M420 0v38q-51 -53 -151 -53q-66 0 -121 38.5t-87 103.5t-32 140q0 74 34.5 138.5t90.5 103t117 38.5q100 0 143 -53v37h172l24 -531h-190zM391 197.5q25 25.5 25 69.5q0 43 -26.5 68t-68.5 25q-39 0 -65.5 -26t-26.5 -65q0 -23 12 -45.5t33.5 -37t48.5 -14.5
q43 0 68 25.5z" />
    <glyph glyph-name="b" unicode="b" horiz-adv-x="660" 
d="M507.5 515q55.5 -40 89 -106t33.5 -142t-31 -141t-84 -103.5t-114 -38.5q-48 0 -90.5 15.5t-70.5 41.5v-43h-210l4 792l208 16l-2 -298q25 22 63.5 34.5t84.5 12.5q64 0 119.5 -40zM406 210.5q26 28.5 26 77.5q0 39 -28 66.5t-68 27.5q-44 0 -73 -28t-29 -71
q0 -44 29 -72.5t73 -28.5t70 28.5z" />
    <glyph glyph-name="c" unicode="c" horiz-adv-x="612" 
d="M172.5 28q-66.5 39 -104.5 106t-38 147q0 78 37 139.5t103.5 96t150.5 34.5q109 0 176.5 -54t84.5 -149l-181 -33q-11 27 -33.5 40.5t-50.5 13.5q-40 0 -70 -26.5t-30 -70.5q0 -45 30.5 -73t71.5 -28q26 0 48.5 14.5t34.5 40.5l176 -35q-23 -93 -93.5 -147.5
t-165.5 -54.5q-80 0 -146.5 39z" />
    <glyph glyph-name="d" unicode="d" horiz-adv-x="660" 
d="M420 -2v43q-28 -26 -70.5 -41.5t-90.5 -15.5q-61 0 -114 38.5t-84 103.5t-31 141t33.5 142t89 106t119.5 40q46 0 84.5 -12.5t63.5 -34.5l-2 298l208 -16l4 -792h-210zM397 210.5q29 28.5 29 72.5q0 43 -29 71t-73 28q-40 0 -68 -27.5t-28 -66.5q0 -49 26 -77.5t70 -28.5
t73 28.5z" />
    <glyph glyph-name="e" unicode="e" horiz-adv-x="608" 
d="M458 510.5q62 -38.5 93 -108t27 -159.5l-365 -26q14 -31 41.5 -49.5t62.5 -19.5q36 0 61 13t36 36l157 -40q-15 -50 -53 -89t-91.5 -61t-110.5 -22q-78 0 -143.5 39.5t-104 107t-38.5 148.5q0 79 36.5 140t100 95t143.5 34q86 0 148 -38.5zM244.5 394
q-25.5 -21 -36.5 -56l189 17q-8 27 -32.5 43.5t-57.5 16.5q-37 0 -62.5 -21z" />
    <glyph glyph-name="f" unicode="f" horiz-adv-x="570" 
d="M374 619q-24 -25 -28 -81l149 -2l-11 -187l-132 2l15 -349h-213l-3 352l-102 1l-19 186l119 -1v43q-1 68 31 121.5t85.5 82.5t116.5 29q52 0 90 -15.5t68 -50.5l-7 -148q-24 19 -44.5 30.5t-47.5 11.5q-43 0 -67 -25z" />
    <glyph glyph-name="g" unicode="g" horiz-adv-x="657" 
d="M628 532l-7 -515q0 -50 -19.5 -112.5t-80.5 -113.5t-173 -51q-87 0 -156.5 38t-108.5 108t-39 161l193 -62q0 -31 28 -54t69 -23q66 0 91 44.5t23 105.5v21q-26 -23 -64.5 -37t-85.5 -14q-72 0 -133 30t-97.5 86t-36.5 131q0 68 31 132t91.5 104.5t145.5 40.5
q38 0 80.5 -13t75.5 -33l1 26h172zM378.5 221q27.5 26 27.5 69q0 44 -30 69t-66 25q-37 0 -65 -26.5t-28 -67.5q0 -42 29 -68.5t67 -26.5t65.5 26z" />
    <glyph glyph-name="h" unicode="h" horiz-adv-x="656" 
d="M626 0h-208l-14 270q-2 40 -20.5 67.5t-57.5 27.5q-70 0 -77 -121l2 -243l-210 3l-11 803l214 -26l3 -281q53 48 146 48q53 0 104.5 -27t85 -78.5t35.5 -119.5z" />
    <glyph glyph-name="i" unicode="i" horiz-adv-x="297" 
d="M94.5 586q-28.5 16 -46.5 43.5t-18 59.5q0 49 37.5 82t89.5 33q50 0 80 -30t30 -79q0 -54 -33 -89.5t-82 -35.5q-29 0 -57.5 16zM52 3l-10 530h211l7 -530h-208z" />
    <glyph glyph-name="j" unicode="j" horiz-adv-x="443" 
d="M30 -211l65 172q33 -26 54 -26q39 0 52.5 45.5t13.5 130.5l-11 418l206 6l3 -534q0 -97 -52 -173.5t-186 -76.5q-87 0 -145 38zM234 610.5q-32 33.5 -32 78.5q0 30 16.5 55.5t43.5 40t57 14.5q44 0 74.5 -29t30.5 -78q0 -48 -31.5 -81.5t-78.5 -33.5q-48 0 -80 33.5z" />
    <glyph glyph-name="k" unicode="k" horiz-adv-x="626" 
d="M595 0l-210 -12l-145 209v-195l-210 -2v807l212 10l-1 -440l105 166l210 -15l-151 -237z" />
    <glyph glyph-name="l" unicode="l" horiz-adv-x="400" 
d="M312.5 -3.5q-40.5 -11.5 -98.5 -11.5q-54 0 -95.5 26t-64.5 73t-23 108l2 516l196 48l1 -498q0 -28 13.5 -47t35.5 -19q29 0 44 17l47 -181q-17 -20 -57.5 -31.5z" />
    <glyph glyph-name="m" unicode="m" horiz-adv-x="889" 
d="M807 507.5q51 -45.5 52 -132.5l-4 -364l-192 -15l-2 304q0 40 -16 60t-44 20q-27 0 -43 -18.5t-21 -51.5l-3 -311l-192 -2l-2 293q0 40 -16.5 60.5t-43.5 20.5q-31 0 -46.5 -23.5t-17.5 -65.5l9 -285h-195v526l178 6l1 -28q27 20 64 31t76 11q101 0 150 -60
q26 32 72.5 51t98.5 19q86 0 137 -45.5z" />
    <glyph glyph-name="n" unicode="n" horiz-adv-x="612" 
d="M374 244q1 48 -16 74t-50 26q-36 0 -50.5 -23.5t-14.5 -74.5h-1l-1 -247h-208l-3 538l213 11v-40q65 50 132 50q103 0 154.5 -76t51.5 -210l1 -270h-213z" />
    <glyph glyph-name="o" unicode="o" horiz-adv-x="640" 
d="M178.5 24.5q-67.5 40.5 -108 108.5t-40.5 147q0 73 39 135.5t107 99.5t152 37q81 0 145.5 -36t100.5 -98.5t36 -138.5q0 -79 -38.5 -147t-104.5 -108t-143 -40q-78 0 -145.5 40.5zM386 203.5q26 26.5 26 66.5q0 36 -25.5 63.5t-65.5 27.5q-42 0 -67.5 -26t-25.5 -65
t27 -66t66 -27t65 26.5z" />
    <glyph glyph-name="p" unicode="p" horiz-adv-x="627" 
d="M486 510q51 -35 80.5 -95t29.5 -132q0 -81 -27.5 -148t-84 -107.5t-139.5 -40.5q-64 0 -116 32l15 -258h-206l-8 773l168 -1l6 -42q59 54 169 54q62 0 113 -35zM368.5 205q25.5 26 25.5 67q0 40 -25.5 64.5t-65.5 24.5q-42 0 -66.5 -24t-24.5 -64q0 -42 26 -68t67 -26
q38 0 63.5 26z" />
    <glyph glyph-name="q" unicode="q" horiz-adv-x="627" 
d="M597 534l-8 -773h-206l15 258q-52 -32 -116 -32q-83 0 -139.5 40.5t-84 107.5t-27.5 148q0 72 29.5 132t80.5 95t113 35q110 0 169 -54l6 42zM389 205q26 26 26 68q0 40 -24.5 64t-66.5 24q-40 0 -65.5 -24.5t-25.5 -64.5q0 -41 25.5 -67t63.5 -26q41 0 67 26z" />
    <glyph glyph-name="r" unicode="r" horiz-adv-x="524" 
d="M429.5 526q40.5 -22 64.5 -54l-71 -162q-19 21 -37 30t-39 9q-56 0 -79.5 -30.5t-28.5 -93.5v-222l-209 -3l9 533l183 4l8 -36q22 22 51 34.5t62 12.5q46 0 86.5 -22z" />
    <glyph glyph-name="s" unicode="s" horiz-adv-x="542" 
d="M429 348q-36 25 -66 37t-74 12q-65 0 -65 -32q0 -13 13.5 -17.5t56.5 -7.5q91 -7 149.5 -48t58.5 -114q0 -51 -31.5 -94.5t-87 -69.5t-124.5 -26q-68 0 -131 25t-98 66l99 122q25 -21 68.5 -34.5t74.5 -13.5q27 0 43 10t16 27q0 13 -11 16.5t-52 7.5q-103 13 -157 51
t-54 100q0 49 31.5 90.5t84.5 66t114 24.5q60 0 123.5 -22.5t99.5 -57.5z" />
    <glyph glyph-name="t" unicode="t" horiz-adv-x="498" 
d="M469 78q-30 -47 -75 -69t-113 -22q-92 0 -139.5 41t-47.5 142q0 28 5 73l20 146l-82 -1l-7 161l111 2l11 80l185 9l-11 -85l104 2l19 -166l-145 -1l-16 -127q-1 -6 -1 -17q0 -31 17 -51t43 -20q42 0 70 48z" />
    <glyph glyph-name="u" unicode="u" horiz-adv-x="612" 
d="M369 -15v40q-65 -50 -132 -50q-103 0 -154.5 76t-51.5 210l-1 270h213l-5 -242q-1 -48 16 -74t50 -26q36 0 50.5 23.5t14.5 74.5h1l1 247h208l3 -538z" />
    <glyph glyph-name="v" unicode="v" horiz-adv-x="612" 
d="M377 533l210 2l-177 -535h-208l-177 535l211 -2l70 -215z" />
    <glyph glyph-name="w" unicode="w" horiz-adv-x="935" 
d="M695 531l210 5l-178 -536h-208l-59 193l-60 -193h-209l-161 527l210 7l57 -191l59 188l-1 3h106l105 2l-1 -3l63 -206z" />
    <glyph glyph-name="x" unicode="x" horiz-adv-x="629" 
d="M599 21l-190 -33l-97 137l-90 -125l-192 2l182 265l-163 232l168 46l96 -132l93 135l187 -35l-176 -243z" />
    <glyph glyph-name="y" unicode="y" horiz-adv-x="662" 
d="M632 545l-151 -525q-41 -136 -113 -201.5t-165 -65.5q-37 0 -83.5 12.5t-89.5 31.5l77 196q9 -14 42.5 -30.5t52.5 -16.5q32 0 52.5 17.5t33.5 48.5l-246 517l215 2l101 -266l68 268z" />
    <glyph glyph-name="z" unicode="z" horiz-adv-x="528" 
d="M486 163l12 -163h-463l-5 146l187 216l-172 -6v180h426l18 -165l-175 -214z" />
    <glyph glyph-name="braceleft" unicode="{" horiz-adv-x="402" 
d="M168 -115.5q-38 30.5 -49.5 82t-12.5 139.5q0 41 -4 66.5t-20.5 43.5t-51.5 18v178q37 3 56 23t19 68q0 113 12 177t49 97t110 33q38 0 89 -9l-17 -149q-23 6 -38 6q-38 0 -50.5 -27.5t-12.5 -84.5l1 -86q0 -37 -14 -72.5t-42 -59.5q34 -28 51 -72.5t17 -94.5
q0 -67 2 -95t14.5 -45t41.5 -17q17 0 36 4l18 -146q-20 -2 -31 -4q-36 -4 -57 -4q-78 0 -116 30.5z" />
    <glyph glyph-name="bar" unicode="|" horiz-adv-x="228" 
d="M198 -235l-168 12v1029h168v-1041z" />
    <glyph glyph-name="braceright" unicode="}" horiz-adv-x="436" 
d="M105 -142q-11 2 -31 4l18 146q19 -4 36 -4q29 0 41.5 17t14.5 45t2 95q0 50 17 94.5t51 72.5q-28 24 -42 59.5t-14 72.5l1 85q0 57 -12.5 85t-49.5 28q-17 0 -39 -6l-17 149q51 9 89 9q73 0 110 -33t49 -97t12 -177q0 -48 19 -68t56 -23v-178q-35 0 -51.5 -18
t-20.5 -43.5t-4 -66.5q-1 -88 -12.5 -139.5t-49.5 -82t-116 -30.5q-21 0 -57 4z" />
    <glyph glyph-name="asciitilde" unicode="~" horiz-adv-x="456" 
d="M282 682.5q-19 6.5 -46 19.5q-20 10 -31.5 14.5t-22.5 4.5q-18 0 -29.5 -12.5t-7.5 -27.5l-115 12q-1 69 34 93t79 24q33 0 56 -7t49 -19q28 -14 45 -14q14 0 21.5 8t7.5 21q0 5 -1 8l103 -11q1 -6 1 -17q0 -46 -29.5 -74.5t-72.5 -28.5q-22 0 -41 6.5z" />
    <glyph glyph-name="exclamdown" unicode="&#xa1;" horiz-adv-x="292" 
d="M220.5 478.5q31.5 -33.5 31.5 -81.5q0 -49 -30.5 -78t-74.5 -29q-30 0 -57 14.5t-43.5 40t-16.5 55.5q0 45 32 78.5t80 33.5q47 0 78.5 -33.5zM41 258l197 -17l1 -469h-219z" />
    <glyph glyph-name="cent" unicode="&#xa2;" horiz-adv-x="587" 
d="M367.5 185.5q22.5 14.5 34.5 40.5l176 -35q-19 -75 -70 -126t-122 -68l-2 -83l-197 10l1 96q-72 36 -115 106t-43 155q0 84 43.5 149t117.5 96l1 83l206 9l-2 -75q77 -16 124.5 -67t61.5 -128l-181 -33q-11 27 -33.5 40.5t-50.5 13.5q-40 0 -70 -26.5t-30 -70.5
q0 -45 30.5 -73t71.5 -28q26 0 48.5 14.5z" />
    <glyph glyph-name="sterling" unicode="&#xa3;" horiz-adv-x="708" 
d="M430 175h225v-175h-623l14 175h108q-31 48 -46 112l-61 1l5 160l51 1q13 86 57.5 159.5t116 118t161.5 44.5q69 0 130 -28.5t109 -80.5l-104 -142q-27 28 -49.5 39.5t-46.5 11.5q-46 -1 -79.5 -32t-45.5 -83l161 4v-182l-146 3q22 -68 63 -106z" />
    <glyph glyph-name="currency" unicode="&#xa4;" horiz-adv-x="668" 
d="M626 271q0 -78 -39 -144l38 -38l-105 -96l-33 34q-61 -36 -132 -36q-89 0 -164 56l-69 -56l-86 97l72 55q-33 61 -33 129q0 60 28 113l-58 51l106 97l48 -46q72 43 160 43q71 0 127 -29l45 43l102 -99l-45 -37q38 -61 38 -137zM413.5 199q24.5 25 24.5 63q0 35 -24 61
t-62 26q-40 0 -64 -25t-24 -62t25.5 -62.5t62.5 -25.5t61.5 25z" />
    <glyph glyph-name="yen" unicode="&#xa5;" horiz-adv-x="795" 
d="M617 186l24 -115h-145l2 -64l-215 -7v71h-131l-17 115h149v39l-154 4l16 122l129 -4l-253 329l219 89l155 -230l151 229l210 -50l-252 -373l100 -3l30 -122l-142 4v-34h124z" />
    <glyph glyph-name="brokenbar" unicode="&#xa6;" horiz-adv-x="224" 
d="M30 363v446l164 -10v-436h-164zM187 -239l-155 12v447h155v-459z" />
    <glyph glyph-name="section" unicode="&#xa7;" horiz-adv-x="506" 
d="M128.5 21q-59.5 26 -98.5 69l78 105q25 -26 67 -43.5t80 -17.5q26 0 41.5 8.5t15.5 26.5q0 16 -15 20.5t-38.5 6t-31.5 2.5q-93 8 -135 52.5t-42 132.5q0 56 33 98q-34 46 -34 100q0 51 28 93t77.5 66.5t109.5 24.5q58 0 113 -23t96 -64l-84 -98q-31 25 -59 37t-60 12
q-27 0 -51 -9t-24 -25q0 -15 15 -20t34.5 -6t26.5 -2q105 -8 154.5 -54.5t49.5 -120.5q0 -54 -33 -100q33 -40 33 -96q0 -66 -34 -111.5t-86 -67.5t-107 -22q-60 0 -119.5 26zM315.5 348q19.5 13 19.5 32q0 20 -23.5 30.5t-54.5 10.5t-51.5 -10t-20.5 -31q0 -18 17 -31.5
t55 -13.5q39 0 58.5 13z" />
    <glyph glyph-name="dieresis" unicode="&#xa8;" horiz-adv-x="534" 
d="M62 682.5q-32 33.5 -32 78.5q0 30 16.5 55.5t43.5 40t57 14.5q44 0 74.5 -29t30.5 -78q0 -48 -31.5 -81.5t-78.5 -33.5q-48 0 -80 33.5zM314 682.5q-32 33.5 -32 78.5q0 30 16.5 55.5t43.5 40t57 14.5q44 0 74.5 -29t30.5 -78q0 -48 -31.5 -81.5t-78.5 -33.5
q-48 0 -80 33.5z" />
    <glyph glyph-name="copyright" unicode="&#xa9;" horiz-adv-x="823" 
d="M216.5 45q-87.5 51 -137 140t-49.5 200q0 99 49 185.5t137.5 138t201.5 51.5q102 0 188 -46.5t136.5 -131t50.5 -194.5q0 -114 -48 -203.5t-134 -140t-196 -50.5q-111 0 -198.5 51zM538.5 155.5q58.5 34.5 92.5 95.5t34 137q0 66 -32.5 122.5t-89.5 90t-126 33.5
q-71 0 -130.5 -35t-94.5 -92.5t-35 -123.5q0 -75 36 -135t94 -93.5t122 -33.5q71 0 129.5 34.5zM328 218.5q-40 25.5 -63.5 69t-23.5 93.5q0 49 24 90.5t65.5 65.5t91.5 24q58 0 100.5 -32t60.5 -90l-95 -33q-7 19 -26.5 32t-41.5 13q-29 0 -50.5 -21t-21.5 -49t22 -49
t51 -21q21 0 38.5 11t25.5 28l92 -35q-5 -32 -29 -60t-59.5 -45t-73.5 -17q-47 0 -87 25.5z" />
    <glyph glyph-name="ordfeminine" unicode="&#xaa;" horiz-adv-x="305" 
d="M195 546v20q-12 -10 -28.5 -16t-33.5 -6q-43 0 -73 34t-30 82t31.5 81t77.5 33q16 0 31 -6t24 -16v18h72l9 -224h-80zM173.5 632q11.5 13 11.5 31q0 16 -9.5 26.5t-24.5 10.5q-17 0 -30 -12t-13 -28t12 -28.5t27 -12.5t26.5 13z" />
    <glyph glyph-name="guillemotleft" unicode="&#xab;" horiz-adv-x="402" 
d="M168 50l-128 147l-10 80l128 157l50 -100l-68 -94l68 -91zM330 49l-127 147l-10 79l127 157l51 -101l-67 -89l67 -93z" />
    <glyph glyph-name="registered" unicode="&#xae;" horiz-adv-x="350" 
d="M246.5 747.5q33.5 -18.5 53.5 -49.5t20 -69q0 -39 -20.5 -73.5t-55.5 -55t-75 -20.5q-38 0 -70 20.5t-50.5 54t-18.5 70.5q0 39 20 71t53.5 51t71.5 19t71.5 -18.5zM238 559.5q29 27.5 29 68.5q0 38 -28 62t-69 24q-39 0 -63.5 -23.5t-24.5 -65.5q0 -41 24.5 -67
t61.5 -26q41 0 70 27.5zM196 607q3 -15 23 -17v-35q-17 -1 -33.5 12t-23.5 32h-2v-32h-37v119q11 9 39 9t43 -13.5t15 -34.5q0 -26 -24 -40zM159 635h4q8 0 13.5 3.5t5.5 10.5q0 6 -4.5 11t-11.5 5q-1 0 -7 -2v-28z" />
    <glyph glyph-name="macron" unicode="&#xaf;" horiz-adv-x="425" 
d="M38 709l-8 97h362l3 -92z" />
    <glyph glyph-name="degree" unicode="&#xb0;" horiz-adv-x="327" 
d="M69 602q-39 37 -39 90q0 50 38.5 84.5t96.5 34.5q56 0 94 -34.5t38 -84.5q0 -35 -18 -64t-48.5 -46t-66.5 -17q-56 0 -95 37zM197.5 655.5q15.5 16.5 15.5 37.5q0 17 -15 30t-35 13q-21 0 -36.5 -12.5t-15.5 -30.5q0 -20 16 -37t36 -17q19 0 34.5 16.5z" />
    <glyph glyph-name="plusminus" unicode="&#xb1;" horiz-adv-x="613" 
d="M208 183l3 182l-169 4l-12 192l184 -3l3 176l179 -11l2 -168l183 -3l-13 -195l-167 4l2 -164zM53 162h514l14 -162h-529z" />
    <glyph glyph-name="uni00B2" unicode="&#xb2;" horiz-adv-x="290" 
d="M261 463h-225l-5 69q50 28 86 65t38 63q0 9 -5 15t-15 6q-11 0 -19 -9.5t-9 -22.5l-77 14q3 45 34 75t77 30t73.5 -30t27.5 -77q0 -63 -75 -124l86 4z" />
    <glyph glyph-name="uni00B3" unicode="&#xb3;" horiz-adv-x="277" 
d="M232 624.5q15 -26.5 15 -63.5q0 -43 -34 -72t-86 -29q-35 0 -57.5 12t-39.5 40l42 63q24 -34 50 -34q13 0 23 9t10 21t-9.5 22t-26.5 10q-18 0 -31 -6l-15 49l49 44l-84 -1v72h196v-70h2l-45 -28q26 -12 41 -38.5z" />
    <glyph glyph-name="acute" unicode="&#xb4;" horiz-adv-x="306" 
d="M180 654l-140 14l90 138l156 -46z" />
    <glyph glyph-name="paragraph" unicode="&#xb6;" horiz-adv-x="572" 
d="M402.5 770.5q50.5 -7.5 139.5 -23.5l-7 -754h-117v638q-17 4 -47 8l1 -646h-148v405l-17 -1q-53 0 -93 24t-62 67t-22 97q0 61 36 104.5t98 66t137 22.5q51 0 101.5 -7.5z" />
    <glyph glyph-name="periodcentered" unicode="&#xb7;" horiz-adv-x="282" 
d="M47 221.5q-32 33.5 -32 78.5q0 30 16.5 55.5t43.5 40t57 14.5q44 0 74.5 -29t30.5 -78q0 -48 -31.5 -81.5t-78.5 -33.5q-48 0 -80 33.5z" />
    <glyph glyph-name="cedilla" unicode="&#xb8;" horiz-adv-x="228" 
d="M51.5 -151q-25.5 24 -21.5 59l56 2q2 -26 25 -28q11 0 18 7.5t7 19.5q0 13 -10 20t-29 7q-11 0 -62 -6l13 91l70 6l-9 -40q38 3 63.5 -18t25.5 -56q0 -38 -23 -63t-61 -25q-37 0 -62.5 24z" />
    <glyph glyph-name="uni00B9" unicode="&#xb9;" horiz-adv-x="214" 
d="M30 760h90l64 -6v-294h-99v207h-55v93z" />
    <glyph glyph-name="ordmasculine" unicode="&#xba;" horiz-adv-x="295" 
d="M248.5 605q-16.5 -27 -44 -43t-56.5 -16q-30 0 -57 17t-44 44t-17 56q0 28 16.5 53.5t43.5 41t57 15.5t57.5 -16t44 -42t16.5 -54q0 -29 -16.5 -56zM175 633q10 9 10 23q0 15 -10.5 27t-24.5 12q-15 0 -25.5 -11t-10.5 -26q0 -14 11 -24t25 -10q15 0 25 9z" />
    <glyph glyph-name="guillemotright" unicode="&#xbb;" horiz-adv-x="399" 
d="M241 445l128 -157l-11 -81l-127 -146l-40 99l79 95l-79 89zM209 287l-10 -79l-127 -147l-41 100l83 92l-83 90l51 101z" />
    <glyph glyph-name="onequarter" unicode="&#xbc;" horiz-adv-x="688" 
d="M30 760h90l64 -6v-294h-99v207h-55v93zM219 -8l-116 9l289 756l115 -10zM658 148v-81l-37 1v-66l-91 -2l3 72l-101 4l-5 223l84 5l-1 -146l26 -2l2 67l83 22v-94z" />
    <glyph glyph-name="onehalf" unicode="&#xbd;" horiz-adv-x="657" 
d="M30 760h90l64 -6v-294h-99v207h-55v93zM219 -8l-116 9l289 756l115 -10zM628 -2h-225l-5 69q50 28 86 65t38 63q0 9 -5 15t-15 6q-11 0 -19 -9.5t-9 -22.5l-77 14q3 45 34 75t77 30t73.5 -30t27.5 -77q0 -63 -75 -124l86 4z" />
    <glyph glyph-name="threequarters" unicode="&#xbe;" horiz-adv-x="746" 
d="M232 624.5q15 -26.5 15 -63.5q0 -43 -34 -72t-86 -29q-35 0 -57.5 12t-39.5 40l42 63q24 -34 50 -34q13 0 23 9t10 21t-9.5 22t-26.5 10q-18 0 -31 -6l-15 49l49 44l-84 -1v72h196v-70h2l-45 -28q26 -12 41 -38.5zM277 -8l-116 9l289 756l115 -10zM716 148v-81l-37 1v-66
l-91 -2l3 72l-101 4l-5 223l84 5l-1 -146l26 -2l2 67l83 22v-94z" />
    <glyph glyph-name="questiondown" unicode="&#xbf;" horiz-adv-x="547" 
d="M400 515.5q30 -32.5 30 -76.5q0 -45 -32.5 -76t-75.5 -31q-40 0 -68.5 28t-28.5 75t28.5 80t72.5 33t74 -32.5zM244 296l162 -13v-198q-7 4 -31 8.5t-42 4.5q-41 0 -70.5 -21.5t-29.5 -56.5q0 -33 21.5 -55.5t61.5 -22.5q39 0 60 23.5t28 57.5l123 -50q-5 -57 -39 -104.5
t-88 -75.5t-116 -28q-71 0 -127 37t-87 97t-31 126q0 72 36 122t85 73.5t86 22.5z" />
    <glyph glyph-name="Agrave" unicode="&#xc0;" horiz-adv-x="841" 
d="M596 -18l-44 167l-239 11l-63 -170l-220 29l329 741l208 -2l244 -743zM389 367l108 -9l-46 178zM400 800l-106 133l156 46l90 -165z" />
    <glyph glyph-name="Aacute" unicode="&#xc1;" horiz-adv-x="841" 
d="M596 -18l-44 167l-239 11l-63 -170l-220 29l329 741l208 -2l244 -743zM389 367l108 -9l-46 178zM504 811l-140 14l90 165l156 -46z" />
    <glyph glyph-name="Acircumflex" unicode="&#xc2;" horiz-adv-x="841" 
d="M596 -18l-44 167l-239 11l-63 -170l-220 29l329 741l208 -2l244 -743zM389 367l108 -9l-46 178zM639 814l-125 -4l-47 62l-54 -62l-122 -4l125 133l114 4z" />
    <glyph glyph-name="Atilde" unicode="&#xc3;" horiz-adv-x="841" 
d="M596 -18l-44 167l-239 11l-63 -170l-220 29l329 741l208 -2l244 -743zM389 367l108 -9l-46 178zM525 809.5q-19 6.5 -46 19.5q-20 10 -31.5 14.5t-22.5 4.5q-18 0 -29.5 -12.5t-7.5 -27.5l-115 12q-1 69 34 93t79 24q33 0 56 -7t49 -19q28 -14 45 -14q14 0 21.5 8t7.5 21
q0 5 -1 8l103 -11q1 -6 1 -17q0 -46 -29.5 -74.5t-72.5 -28.5q-22 0 -41 6.5z" />
    <glyph glyph-name="Adieresis" unicode="&#xc4;" horiz-adv-x="841" 
d="M596 -18l-44 167l-239 11l-63 -170l-220 29l329 741l208 -2l244 -743zM389 367l108 -9l-46 178zM325.5 816.5q-22.5 23.5 -22.5 54.5q0 32 25 54.5t57 22.5q30 0 51.5 -20.5t21.5 -54.5q0 -33 -22 -56.5t-55 -23.5t-55.5 23.5zM501.5 816.5q-22.5 23.5 -22.5 54.5
q0 32 25 54.5t57 22.5q30 0 51.5 -20.5t21.5 -54.5q0 -33 -22 -56.5t-55 -23.5t-55.5 23.5z" />
    <glyph glyph-name="Aring" unicode="&#xc5;" horiz-adv-x="841" 
d="M596 -18l-44 167l-239 11l-63 -170l-220 29l329 741l208 -2l244 -743zM389 367l108 -9l-46 178zM525.5 939.5q24.5 -23.5 24.5 -55.5t-25 -56.5t-58 -24.5q-31 0 -57 24t-26 55q0 32 24.5 56.5t58.5 24.5t58.5 -23.5zM487.5 863.5q7.5 6.5 7.5 17.5q0 12 -7.5 20t-20.5 8
q-11 0 -19.5 -8t-8.5 -20q0 -10 8 -17t20 -7q13 0 20.5 6.5z" />
    <glyph glyph-name="AE" unicode="&#xc6;" horiz-adv-x="1147" 
d="M801 199l316 6v-212l-528 2l-4 205l-239 -9l-140 -199l-176 101l475 660l68 2l517 17l14 -204l-318 -5l3 -85l266 4l10 -183l-268 -8zM468 364l113 6l-3 150z" />
    <glyph glyph-name="Ccedilla" unicode="&#xc7;" horiz-adv-x="804" 
d="M495 211q37 17 61 43t32 51l186 -58q-18 -75 -69 -134.5t-128 -93.5t-169 -34h-4l-4 -16q38 3 63.5 -18t25.5 -56q0 -38 -23 -63t-61 -25q-37 0 -62.5 24t-21.5 59l56 2q2 -26 25 -28q11 0 18 7.5t7 19.5q0 13 -10 20t-29 7q-11 0 -62 -6l11 79q-94 16 -163.5 72
t-106.5 139.5t-37 178.5q0 108 54.5 198.5t145 143t194.5 52.5q78 0 149 -29t124.5 -88.5t76.5 -146.5l-186 -55q-16 42 -59.5 75.5t-106.5 33.5q-46 0 -88 -22.5t-68 -65t-26 -97.5q0 -49 21.5 -92t61 -68.5t90.5 -25.5q45 0 82 17z" />
    <glyph glyph-name="Egrave" unicode="&#xc8;" horiz-adv-x="615" 
d="M264 206l321 6v-212h-531l-24 760l531 17l14 -205l-330 -6l4 -86l273 9l9 -183l-271 -13zM240 800l-106 133l156 46l90 -165z" />
    <glyph glyph-name="Eacute" unicode="&#xc9;" horiz-adv-x="615" 
d="M264 206l321 6v-212h-531l-24 760l531 17l14 -205l-330 -6l4 -86l273 9l9 -183l-271 -13zM344 811l-140 14l90 165l156 -46z" />
    <glyph glyph-name="Ecircumflex" unicode="&#xca;" horiz-adv-x="615" 
d="M264 206l321 6v-212h-531l-24 760l531 17l14 -205l-330 -6l4 -86l273 9l9 -183l-271 -13zM479 814l-125 -4l-47 62l-54 -62l-122 -4l125 133l114 4z" />
    <glyph glyph-name="Edieresis" unicode="&#xcb;" horiz-adv-x="615" 
d="M165.5 816.5q-22.5 23.5 -22.5 54.5q0 32 25 54.5t57 22.5q30 0 51.5 -20.5t21.5 -54.5q0 -33 -22 -56.5t-55 -23.5t-55.5 23.5zM341.5 816.5q-22.5 23.5 -22.5 54.5q0 32 25 54.5t57 22.5q30 0 51.5 -20.5t21.5 -54.5q0 -33 -22 -56.5t-55 -23.5t-55.5 23.5zM264 206
l321 6v-212h-531l-24 760l531 17l14 -205l-330 -6l4 -86l273 9l9 -183l-271 -13z" />
    <glyph glyph-name="Igrave" unicode="&#xcc;" horiz-adv-x="270" 
d="M66 0l16 750l194 10l-6 -770zM126 810l-106 133l156 46l90 -165z" />
    <glyph glyph-name="Iacute" unicode="&#xcd;" horiz-adv-x="270" 
d="M20 0l16 750l194 10l-6 -770zM176 811l-140 14l90 165l156 -46z" />
    <glyph glyph-name="Icircumflex" unicode="&#xce;" horiz-adv-x="270" 
d="M92 0l16 750l194 10l-6 -770zM368 814l-125 -4l-47 62l-54 -62l-122 -4l125 133l114 4z" />
    <glyph glyph-name="Idieresis" unicode="&#xcf;" horiz-adv-x="270" 
d="M59.5 816.5q-22.5 23.5 -22.5 54.5q0 32 25 54.5t57 22.5q30 0 51.5 -20.5t21.5 -54.5q0 -33 -22 -56.5t-55 -23.5t-55.5 23.5zM235.5 816.5q-22.5 23.5 -22.5 54.5q0 32 25 54.5t57 22.5q30 0 51.5 -20.5t21.5 -54.5q0 -33 -22 -56.5t-55 -23.5t-55.5 23.5zM63 0l16 750
l194 10l-6 -770z" />
    <glyph glyph-name="Eth" unicode="&#xd0;" horiz-adv-x="761" 
d="M497.5 725q100.5 -51 158 -148t57.5 -229q0 -179 -107.5 -270.5t-331.5 -92.5q-81 0 -190 15l4 308h-53l-6 142h61l4 284l-2 4q48 20 87 29t90 9q128 0 228.5 -51zM452.5 238.5q50.5 42.5 50.5 133.5q0 58 -22.5 100t-61 64t-84.5 22q-19 0 -41 -5v-101h63l1 -142h-64
v-111q16 -3 33 -3q75 0 125.5 42.5z" />
    <glyph glyph-name="Ntilde" unicode="&#xd1;" horiz-adv-x="779" 
d="M520 760l227 4l-5 -764h-201v2l-1 -2l-279 355l11 -354l-233 -7l-9 773l218 -7l282 -358zM447 809.5q-19 6.5 -46 19.5q-20 10 -31.5 14.5t-22.5 4.5q-18 0 -29.5 -12.5t-7.5 -27.5l-115 12q-1 69 34 93t79 24q33 0 56 -7t49 -19q28 -14 45 -14q14 0 21.5 8t7.5 21
q0 5 -1 8l103 -11q1 -6 1 -17q0 -46 -29.5 -74.5t-72.5 -28.5q-22 0 -41 6.5z" />
    <glyph glyph-name="Ograve" unicode="&#xd2;" horiz-adv-x="860" 
d="M233.5 39.5q-92.5 55.5 -148 147.5t-55.5 195q0 104 55.5 194.5t148.5 144t200 53.5q106 0 197 -53.5t145 -143.5t54 -194q0 -106 -54.5 -198t-146.5 -146.5t-197 -54.5q-106 0 -198.5 55.5zM523 216q45 25 72 69t27 98q0 52 -26 94.5t-70 66.5t-97 24t-97 -25t-69 -67.5
t-25 -94.5t25.5 -95.5t68.5 -69t95 -25.5q51 0 96 25zM363 800l-106 133l156 46l90 -165z" />
    <glyph glyph-name="Oacute" unicode="&#xd3;" horiz-adv-x="860" 
d="M233.5 39.5q-92.5 55.5 -148 147.5t-55.5 195q0 104 55.5 194.5t148.5 144t200 53.5q106 0 197 -53.5t145 -143.5t54 -194q0 -106 -54.5 -198t-146.5 -146.5t-197 -54.5q-106 0 -198.5 55.5zM523 216q45 25 72 69t27 98q0 52 -26 94.5t-70 66.5t-97 24t-97 -25t-69 -67.5
t-25 -94.5t25.5 -95.5t68.5 -69t95 -25.5q51 0 96 25zM467 811l-140 14l90 165l156 -46z" />
    <glyph glyph-name="Ocircumflex" unicode="&#xd4;" horiz-adv-x="860" 
d="M233.5 39.5q-92.5 55.5 -148 147.5t-55.5 195q0 104 55.5 194.5t148.5 144t200 53.5q106 0 197 -53.5t145 -143.5t54 -194q0 -106 -54.5 -198t-146.5 -146.5t-197 -54.5q-106 0 -198.5 55.5zM523 216q45 25 72 69t27 98q0 52 -26 94.5t-70 66.5t-97 24t-97 -25t-69 -67.5
t-25 -94.5t25.5 -95.5t68.5 -69t95 -25.5q51 0 96 25zM602 814l-125 -4l-47 62l-54 -62l-122 -4l125 133l114 4z" />
    <glyph glyph-name="Otilde" unicode="&#xd5;" horiz-adv-x="860" 
d="M233.5 39.5q-92.5 55.5 -148 147.5t-55.5 195q0 104 55.5 194.5t148.5 144t200 53.5q106 0 197 -53.5t145 -143.5t54 -194q0 -106 -54.5 -198t-146.5 -146.5t-197 -54.5q-106 0 -198.5 55.5zM523 216q45 25 72 69t27 98q0 52 -26 94.5t-70 66.5t-97 24t-97 -25t-69 -67.5
t-25 -94.5t25.5 -95.5t68.5 -69t95 -25.5q51 0 96 25zM488 809.5q-19 6.5 -46 19.5q-20 10 -31.5 14.5t-22.5 4.5q-18 0 -29.5 -12.5t-7.5 -27.5l-115 12q-1 69 34 93t79 24q33 0 56 -7t49 -19q28 -14 45 -14q14 0 21.5 8t7.5 21q0 5 -1 8l103 -11q1 -6 1 -17
q0 -46 -29.5 -74.5t-72.5 -28.5q-22 0 -41 6.5z" />
    <glyph glyph-name="Odieresis" unicode="&#xd6;" horiz-adv-x="860" 
d="M288.5 816.5q-22.5 23.5 -22.5 54.5q0 32 25 54.5t57 22.5q30 0 51.5 -20.5t21.5 -54.5q0 -33 -22 -56.5t-55 -23.5t-55.5 23.5zM464.5 816.5q-22.5 23.5 -22.5 54.5q0 32 25 54.5t57 22.5q30 0 51.5 -20.5t21.5 -54.5q0 -33 -22 -56.5t-55 -23.5t-55.5 23.5zM233.5 39.5
q-92.5 55.5 -148 147.5t-55.5 195q0 104 55.5 194.5t148.5 144t200 53.5q106 0 197 -53.5t145 -143.5t54 -194q0 -106 -54.5 -198t-146.5 -146.5t-197 -54.5q-106 0 -198.5 55.5zM523 216q45 25 72 69t27 98q0 52 -26 94.5t-70 66.5t-97 24t-97 -25t-69 -67.5t-25 -94.5
t25.5 -95.5t68.5 -69t95 -25.5q51 0 96 25z" />
    <glyph glyph-name="multiply" unicode="&#xd7;" horiz-adv-x="714" 
d="M684 528l-173 -169l163 -161l-154 -150l-162 161l-164 -161l-164 150l173 164l-149 148l155 148l149 -148l167 159z" />
    <glyph glyph-name="Oslash" unicode="&#xd8;" horiz-adv-x="860" 
d="M768 590q30 -46 46 -99t16 -108q0 -106 -54.5 -198t-146.5 -146.5t-197 -54.5t-199 56l-52 -53l-150 110l67 70q-68 100 -68 215q0 104 55.5 194.5t148.5 144t200 53.5q105 0 197 -54l50 52l151 -116zM247 322l232 240q-24 6 -50 6q-53 0 -97 -25t-69 -67.5t-25 -94.5
q0 -32 9 -59zM615 433l-231 -237q23 -5 43 -5q51 0 96 25t72 69t27 98q0 28 -7 50z" />
    <glyph glyph-name="Ugrave" unicode="&#xd9;" horiz-adv-x="718" 
d="M182.5 44q-74.5 56 -113.5 156t-39 231q0 195 52 345l218 -65q-21 -67 -33 -143.5t-12 -132.5q0 -108 26 -174t78 -66q48 0 76 66t28 174q0 56 -12 132.5t-33 143.5l218 65q52 -150 52 -345q0 -134 -39.5 -234t-113.5 -154.5t-175 -54.5q-103 0 -177.5 56zM291 800
l-106 133l156 46l90 -165z" />
    <glyph glyph-name="Uacute" unicode="&#xda;" horiz-adv-x="718" 
d="M182.5 44q-74.5 56 -113.5 156t-39 231q0 195 52 345l218 -65q-21 -67 -33 -143.5t-12 -132.5q0 -108 26 -174t78 -66q48 0 76 66t28 174q0 56 -12 132.5t-33 143.5l218 65q52 -150 52 -345q0 -134 -39.5 -234t-113.5 -154.5t-175 -54.5q-103 0 -177.5 56zM395 811
l-140 14l90 165l156 -46z" />
    <glyph glyph-name="Ucircumflex" unicode="&#xdb;" horiz-adv-x="718" 
d="M182.5 44q-74.5 56 -113.5 156t-39 231q0 195 52 345l218 -65q-21 -67 -33 -143.5t-12 -132.5q0 -108 26 -174t78 -66q48 0 76 66t28 174q0 56 -12 132.5t-33 143.5l218 65q52 -150 52 -345q0 -134 -39.5 -234t-113.5 -154.5t-175 -54.5q-103 0 -177.5 56zM530 814
l-125 -4l-47 62l-54 -62l-122 -4l125 133l114 4z" />
    <glyph glyph-name="Udieresis" unicode="&#xdc;" horiz-adv-x="718" 
d="M216.5 816.5q-22.5 23.5 -22.5 54.5q0 32 25 54.5t57 22.5q30 0 51.5 -20.5t21.5 -54.5q0 -33 -22 -56.5t-55 -23.5t-55.5 23.5zM392.5 816.5q-22.5 23.5 -22.5 54.5q0 32 25 54.5t57 22.5q30 0 51.5 -20.5t21.5 -54.5q0 -33 -22 -56.5t-55 -23.5t-55.5 23.5zM182.5 44
q-74.5 56 -113.5 156t-39 231q0 195 52 345l218 -65q-21 -67 -33 -143.5t-12 -132.5q0 -108 26 -174t78 -66q48 0 76 66t28 174q0 56 -12 132.5t-33 143.5l218 65q52 -150 52 -345q0 -134 -39.5 -234t-113.5 -154.5t-175 -54.5q-103 0 -177.5 56z" />
    <glyph glyph-name="Yacute" unicode="&#xdd;" horiz-adv-x="795" 
d="M765 714l-267 -396l8 -311l-215 -7l1 336l-262 340l219 89l155 -230l151 229zM434 811l-140 14l90 165l156 -46z" />
    <glyph glyph-name="Thorn" unicode="&#xde;" horiz-adv-x="651" 
d="M456.5 611.5q75.5 -33.5 120 -99t44.5 -157.5q0 -80 -43 -150.5t-115 -113.5t-154 -43q-40 0 -73 16l-2 -136h-204l3 836h216l-2 -122q20 3 43 3q91 0 166.5 -33.5zM382 285q34 30 34 70q0 38 -30.5 64.5t-80.5 26.5q-36 0 -62 -19l-3 -156q29 -16 59 -16q49 0 83 30z
" />
    <glyph glyph-name="germandbls" unicode="&#xdf;" horiz-adv-x="612" 
d="M31 726q106 41 202 41q89 0 157.5 -30.5t106.5 -82.5t38 -114q0 -51 -24 -91t-60 -55q57 -11 93.5 -58t36.5 -122q0 -55 -26 -106.5t-76 -84t-118 -32.5q-47 0 -103 19l7 160q17 -4 37 -4q17 0 32 3q30 6 47.5 24.5t17.5 43.5q0 37 -29 59.5t-89 24.5l-5 116
q45 0 72 24.5t27 60.5q0 38 -30.5 57.5t-71.5 19.5q-42 0 -61 -18v-581h-181v726z" />
    <glyph glyph-name="agrave" unicode="&#xe0;" horiz-adv-x="640" 
d="M420 0v38q-51 -53 -151 -53q-66 0 -121 38.5t-87 103.5t-32 140q0 74 34.5 138.5t90.5 103t117 38.5q100 0 143 -53v37h172l24 -531h-190zM391 197.5q25 25.5 25 69.5q0 43 -26.5 68t-68.5 25q-39 0 -65.5 -26t-26.5 -65q0 -23 12 -45.5t33.5 -37t48.5 -14.5
q43 0 68 25.5zM301 574l-106 133l156 46l90 -165z" />
    <glyph glyph-name="aacute" unicode="&#xe1;" horiz-adv-x="640" 
d="M420 0v38q-51 -53 -151 -53q-66 0 -121 38.5t-87 103.5t-32 140q0 74 34.5 138.5t90.5 103t117 38.5q100 0 143 -53v37h172l24 -531h-190zM391 197.5q25 25.5 25 69.5q0 43 -26.5 68t-68.5 25q-39 0 -65.5 -26t-26.5 -65q0 -23 12 -45.5t33.5 -37t48.5 -14.5
q43 0 68 25.5zM335 574l-140 14l90 165l156 -46z" />
    <glyph glyph-name="acircumflex" unicode="&#xe2;" horiz-adv-x="640" 
d="M420 0v38q-51 -53 -151 -53q-66 0 -121 38.5t-87 103.5t-32 140q0 74 34.5 138.5t90.5 103t117 38.5q100 0 143 -53v37h172l24 -531h-190zM391 197.5q25 25.5 25 69.5q0 43 -26.5 68t-68.5 25q-39 0 -65.5 -26t-26.5 -65q0 -23 12 -45.5t33.5 -37t48.5 -14.5
q43 0 68 25.5zM492 578l-125 -4l-48 62l-53 -62l-122 -4l123 133l114 4z" />
    <glyph glyph-name="atilde" unicode="&#xe3;" horiz-adv-x="640" 
d="M420 0v38q-51 -53 -151 -53q-66 0 -121 38.5t-87 103.5t-32 140q0 74 34.5 138.5t90.5 103t117 38.5q100 0 143 -53v37h172l24 -531h-190zM391 197.5q25 25.5 25 69.5q0 43 -26.5 68t-68.5 25q-39 0 -65.5 -26t-26.5 -65q0 -23 12 -45.5t33.5 -37t48.5 -14.5
q43 0 68 25.5zM371 576.5q-19 6.5 -46 19.5q-20 10 -31.5 14.5t-22.5 4.5q-18 0 -29.5 -12.5t-7.5 -27.5l-115 12q-1 69 34 93t79 24q33 0 56 -7t49 -19q28 -14 45 -14q14 0 21.5 8t7.5 21q0 5 -1 8l103 -11q1 -6 1 -17q0 -46 -29.5 -74.5t-72.5 -28.5q-22 0 -41 6.5z" />
    <glyph glyph-name="adieresis" unicode="&#xe4;" horiz-adv-x="640" 
d="M420 0v38q-51 -53 -151 -53q-66 0 -121 38.5t-87 103.5t-32 140q0 74 34.5 138.5t90.5 103t117 38.5q100 0 143 -53v37h172l24 -531h-190zM391 197.5q25 25.5 25 69.5q0 43 -26.5 68t-68.5 25q-39 0 -65.5 -26t-26.5 -65q0 -23 12 -45.5t33.5 -37t48.5 -14.5
q43 0 68 25.5zM169.5 591.5q-22.5 23.5 -22.5 54.5q0 32 25 54.5t57 22.5q30 0 51.5 -20.5t21.5 -54.5q0 -33 -22 -56.5t-55 -23.5t-55.5 23.5zM345.5 591.5q-22.5 23.5 -22.5 54.5q0 32 25 54.5t57 22.5q30 0 51.5 -20.5t21.5 -54.5q0 -33 -22 -56.5t-55 -23.5t-55.5 23.5z
" />
    <glyph glyph-name="aring" unicode="&#xe5;" horiz-adv-x="640" 
d="M420 0v38q-51 -53 -151 -53q-66 0 -121 38.5t-87 103.5t-32 140q0 74 34.5 138.5t90.5 103t117 38.5q100 0 143 -53v37h172l24 -531h-190zM391 197.5q25 25.5 25 69.5q0 43 -26.5 68t-68.5 25q-39 0 -65.5 -26t-26.5 -65q0 -23 12 -45.5t33.5 -37t48.5 -14.5
q43 0 68 25.5zM376.5 709.5q24.5 -23.5 24.5 -55.5t-25 -56.5t-58 -24.5q-31 0 -57 24t-26 55q0 32 24.5 56.5t58.5 24.5t58.5 -23.5zM338.5 633.5q7.5 6.5 7.5 17.5q0 12 -7.5 20t-20.5 8q-11 0 -19.5 -8t-8.5 -20q0 -10 8 -17t20 -7q13 0 20.5 6.5z" />
    <glyph glyph-name="ae" unicode="&#xe6;" horiz-adv-x="1065" 
d="M915 510.5q62 -38.5 93 -108t27 -159.5l-365 -26q14 -31 41.5 -49.5t62.5 -19.5q36 0 61 13t36 36l157 -40q-15 -50 -53 -89t-91.5 -61t-110.5 -22q-90 0 -165 53l2 -38h-190v38q-51 -53 -151 -53q-66 0 -121 38.5t-87 103.5t-32 140q0 74 34.5 138.5t90.5 103t117 38.5
q100 0 143 -53v37h172l2 -39q74 57 179 57q86 0 148 -38.5zM701.5 394q-25.5 -21 -36.5 -56l189 17q-8 27 -32.5 43.5t-57.5 16.5q-37 0 -62.5 -21zM391 197.5q25 25.5 25 69.5q0 43 -26.5 68t-68.5 25q-39 0 -65.5 -26t-26.5 -65q0 -23 12 -45.5t33.5 -37t48.5 -14.5
q43 0 68 25.5z" />
    <glyph glyph-name="ccedilla" unicode="&#xe7;" horiz-adv-x="612" 
d="M367.5 185.5q22.5 14.5 34.5 40.5l176 -35q-23 -93 -93.5 -147.5t-165.5 -54.5h-9l-3 -15q38 3 63.5 -18t25.5 -56q0 -38 -23 -63t-61 -25q-37 0 -62.5 24t-21.5 59l56 2q2 -26 25 -28q11 0 18 7.5t7 19.5q0 13 -10 20t-29 7q-11 0 -62 -6l12 81q-63 16 -111.5 57.5
t-76 100t-27.5 125.5q0 78 37 139.5t103.5 96t150.5 34.5q109 0 176.5 -54t84.5 -149l-181 -33q-11 27 -33.5 40.5t-50.5 13.5q-40 0 -70 -26.5t-30 -70.5q0 -45 30.5 -73t71.5 -28q26 0 48.5 14.5z" />
    <glyph glyph-name="egrave" unicode="&#xe8;" horiz-adv-x="608" 
d="M458 510.5q62 -38.5 93 -108t27 -159.5l-365 -26q14 -31 41.5 -49.5t62.5 -19.5q36 0 61 13t36 36l157 -40q-15 -50 -53 -89t-91.5 -61t-110.5 -22q-78 0 -143.5 39.5t-104 107t-38.5 148.5q0 79 36.5 140t100 95t143.5 34q86 0 148 -38.5zM244.5 394
q-25.5 -21 -36.5 -56l189 17q-8 27 -32.5 43.5t-57.5 16.5q-37 0 -62.5 -21zM228 574l-106 133l156 46l90 -165z" />
    <glyph glyph-name="eacute" unicode="&#xe9;" horiz-adv-x="608" 
d="M458 510.5q62 -38.5 93 -108t27 -159.5l-365 -26q14 -31 41.5 -49.5t62.5 -19.5q36 0 61 13t36 36l157 -40q-15 -50 -53 -89t-91.5 -61t-110.5 -22q-78 0 -143.5 39.5t-104 107t-38.5 148.5q0 79 36.5 140t100 95t143.5 34q86 0 148 -38.5zM244.5 394
q-25.5 -21 -36.5 -56l189 17q-8 27 -32.5 43.5t-57.5 16.5q-37 0 -62.5 -21zM323 574l-140 14l90 165l156 -46z" />
    <glyph glyph-name="ecircumflex" unicode="&#xea;" horiz-adv-x="608" 
d="M458 510.5q62 -38.5 93 -108t27 -159.5l-365 -26q14 -31 41.5 -49.5t62.5 -19.5q36 0 61 13t36 36l157 -40q-15 -50 -53 -89t-91.5 -61t-110.5 -22q-78 0 -143.5 39.5t-104 107t-38.5 148.5q0 79 36.5 140t100 95t143.5 34q86 0 148 -38.5zM244.5 394
q-25.5 -21 -36.5 -56l189 17q-8 27 -32.5 43.5t-57.5 16.5q-37 0 -62.5 -21zM480 578l-125 -4l-48 62l-53 -62l-122 -4l123 133l114 4z" />
    <glyph glyph-name="edieresis" unicode="&#xeb;" horiz-adv-x="608" 
d="M157.5 591.5q-22.5 23.5 -22.5 54.5q0 32 25 54.5t57 22.5q30 0 51.5 -20.5t21.5 -54.5q0 -33 -22 -56.5t-55 -23.5t-55.5 23.5zM333.5 591.5q-22.5 23.5 -22.5 54.5q0 32 25 54.5t57 22.5q30 0 51.5 -20.5t21.5 -54.5q0 -33 -22 -56.5t-55 -23.5t-55.5 23.5zM458 510.5
q62 -38.5 93 -108t27 -159.5l-365 -26q14 -31 41.5 -49.5t62.5 -19.5q36 0 61 13t36 36l157 -40q-15 -50 -53 -89t-91.5 -61t-110.5 -22q-78 0 -143.5 39.5t-104 107t-38.5 148.5q0 79 36.5 140t100 95t143.5 34q86 0 148 -38.5zM244.5 394q-25.5 -21 -36.5 -56l189 17
q-8 27 -32.5 43.5t-57.5 16.5q-37 0 -62.5 -21z" />
    <glyph glyph-name="igrave" unicode="&#xec;" horiz-adv-x="278" 
d="M126 574l-85 133l125 46l72 -165zM40 3l-10 530h211l7 -530h-208z" />
    <glyph glyph-name="iacute" unicode="&#xed;" horiz-adv-x="278" 
d="M153 574l-112 14l72 165l125 -46zM40 3l-10 530h211l7 -530h-208z" />
    <glyph glyph-name="icircumflex" unicode="&#xee;" horiz-adv-x="297" 
d="M162 644l-42 -61l-98 -4l98 133l92 4l88 -129l-100 -4zM56 533h211l7 -530h-208z" />
    <glyph glyph-name="idieresis" unicode="&#xef;" horiz-adv-x="297" 
d="M59.5 585.5q-22.5 23.5 -22.5 54.5q0 32 25 54.5t57 22.5q30 0 51.5 -20.5t21.5 -54.5q0 -33 -22 -56.5t-55 -23.5t-55.5 23.5zM235.5 585.5q-22.5 23.5 -22.5 54.5q0 32 25 54.5t57 22.5q30 0 51.5 -20.5t21.5 -54.5q0 -33 -22 -56.5t-55 -23.5t-55.5 23.5zM68 3
l-10 530h211l7 -530h-208z" />
    <glyph glyph-name="eth" unicode="&#xf0;" horiz-adv-x="595" 
d="M564 235q0 -66 -33.5 -121.5t-91.5 -87.5t-131 -32q-81 0 -144.5 34.5t-98.5 92t-35 125.5q0 63 35 114.5t93 82t126 32.5q-20 24 -45 48l-74 -53l-92 64l70 62q-34 20 -50 27l136 143q27 -17 60 -41l69 61l126 -87l-89 -64q83 -83 127 -175.5t44 -191.5q0 -11 -2 -33z
M360.5 186q23.5 24 23.5 59t-23.5 56.5t-63.5 21.5q-36 0 -62 -23t-26 -59q0 -34 26 -56.5t62 -22.5q40 0 63.5 24z" />
    <glyph glyph-name="ntilde" unicode="&#xf1;" horiz-adv-x="612" 
d="M374 244q1 48 -16 74t-50 26q-36 0 -50.5 -23.5t-14.5 -74.5h-1l-1 -247h-208l-3 538l213 11v-40q65 50 132 50q103 0 154.5 -76t51.5 -210l1 -270h-213zM365 584.5q-19 6.5 -46 19.5q-20 10 -31.5 14.5t-22.5 4.5q-18 0 -29.5 -12.5t-7.5 -27.5l-115 12q-1 69 34 93
t79 24q33 0 56 -7t49 -19q28 -14 45 -14q14 0 21.5 8t7.5 21q0 5 -1 8l103 -11q1 -6 1 -17q0 -46 -29.5 -74.5t-72.5 -28.5q-22 0 -41 6.5z" />
    <glyph glyph-name="ograve" unicode="&#xf2;" horiz-adv-x="640" 
d="M178.5 24.5q-67.5 40.5 -108 108.5t-40.5 147q0 73 39 135.5t107 99.5t152 37q81 0 145.5 -36t100.5 -98.5t36 -138.5q0 -79 -38.5 -147t-104.5 -108t-143 -40q-78 0 -145.5 40.5zM386 203.5q26 26.5 26 66.5q0 36 -25.5 63.5t-65.5 27.5q-42 0 -67.5 -26t-25.5 -65
t27 -66t66 -27t65 26.5zM304 574l-106 133l156 46l90 -165z" />
    <glyph glyph-name="oacute" unicode="&#xf3;" horiz-adv-x="640" 
d="M178.5 24.5q-67.5 40.5 -108 108.5t-40.5 147q0 73 39 135.5t107 99.5t152 37q81 0 145.5 -36t100.5 -98.5t36 -138.5q0 -79 -38.5 -147t-104.5 -108t-143 -40q-78 0 -145.5 40.5zM386 203.5q26 26.5 26 66.5q0 36 -25.5 63.5t-65.5 27.5q-42 0 -67.5 -26t-25.5 -65
t27 -66t66 -27t65 26.5zM338 574l-140 14l90 165l156 -46z" />
    <glyph glyph-name="ocircumflex" unicode="&#xf4;" horiz-adv-x="640" 
d="M178.5 24.5q-67.5 40.5 -108 108.5t-40.5 147q0 73 39 135.5t107 99.5t152 37q81 0 145.5 -36t100.5 -98.5t36 -138.5q0 -79 -38.5 -147t-104.5 -108t-143 -40q-78 0 -145.5 40.5zM386 203.5q26 26.5 26 66.5q0 36 -25.5 63.5t-65.5 27.5q-42 0 -67.5 -26t-25.5 -65
t27 -66t66 -27t65 26.5zM495 578l-125 -4l-48 62l-53 -62l-122 -4l123 133l114 4z" />
    <glyph glyph-name="otilde" unicode="&#xf5;" horiz-adv-x="640" 
d="M178.5 24.5q-67.5 40.5 -108 108.5t-40.5 147q0 73 39 135.5t107 99.5t152 37q81 0 145.5 -36t100.5 -98.5t36 -138.5q0 -79 -38.5 -147t-104.5 -108t-143 -40q-78 0 -145.5 40.5zM386 203.5q26 26.5 26 66.5q0 36 -25.5 63.5t-65.5 27.5q-42 0 -67.5 -26t-25.5 -65
t27 -66t66 -27t65 26.5zM374 576.5q-19 6.5 -46 19.5q-20 10 -31.5 14.5t-22.5 4.5q-18 0 -29.5 -12.5t-7.5 -27.5l-115 12q-1 69 34 93t79 24q33 0 56 -7t49 -19q28 -14 45 -14q14 0 21.5 8t7.5 21q0 5 -1 8l103 -11q1 -6 1 -17q0 -46 -29.5 -74.5t-72.5 -28.5
q-22 0 -41 6.5z" />
    <glyph glyph-name="odieresis" unicode="&#xf6;" horiz-adv-x="640" 
d="M172.5 591.5q-22.5 23.5 -22.5 54.5q0 32 25 54.5t57 22.5q30 0 51.5 -20.5t21.5 -54.5q0 -33 -22 -56.5t-55 -23.5t-55.5 23.5zM348.5 591.5q-22.5 23.5 -22.5 54.5q0 32 25 54.5t57 22.5q30 0 51.5 -20.5t21.5 -54.5q0 -33 -22 -56.5t-55 -23.5t-55.5 23.5zM178.5 24.5
q-67.5 40.5 -108 108.5t-40.5 147q0 73 39 135.5t107 99.5t152 37q81 0 145.5 -36t100.5 -98.5t36 -138.5q0 -79 -38.5 -147t-104.5 -108t-143 -40q-78 0 -145.5 40.5zM386 203.5q26 26.5 26 66.5q0 36 -25.5 63.5t-65.5 27.5q-42 0 -67.5 -26t-25.5 -65t27 -66t66 -27
t65 26.5z" />
    <glyph glyph-name="divide" unicode="&#xf7;" horiz-adv-x="445" 
d="M159.5 536q-24.5 30 -24.5 68q0 35 21.5 66.5t67.5 31.5t71 -30.5t25 -72.5q0 -43 -25.5 -68t-65.5 -25q-45 0 -69.5 30zM32 301l1 167h382v-168zM181.5 89.5q-21.5 16.5 -33.5 40.5t-12 45q0 28 14.5 49.5t37.5 33.5t46 12q19 0 39.5 -12t34 -32.5t13.5 -45.5
q0 -42 -27 -74.5t-64 -32.5q-27 0 -48.5 16.5z" />
    <glyph glyph-name="oslash" unicode="&#xf8;" horiz-adv-x="640" 
d="M584 398q26 -55 26 -119q0 -79 -38.5 -147t-104.5 -108t-143 -40q-84 0 -155 47l-55 -49l-104 132l49 41q-29 58 -29 125q0 73 39 135.5t107 99.5t152 37t153 -40l47 39l102 -113zM259 340q-17 -15 -26 -37l68 56q-25 -4 -42 -19zM381.5 200q19.5 17 26.5 42l-72 -64
q26 5 45.5 22z" />
    <glyph glyph-name="ugrave" unicode="&#xf9;" horiz-adv-x="612" 
d="M369 -15v40q-65 -50 -132 -50q-103 0 -154.5 76t-51.5 210l-1 270h213l-5 -242q-1 -48 16 -74t50 -26q36 0 50.5 23.5t14.5 74.5h1l1 247h208l3 -538zM290 574l-106 133l156 46l90 -165z" />
    <glyph glyph-name="uacute" unicode="&#xfa;" horiz-adv-x="612" 
d="M369 -15v40q-65 -50 -132 -50q-103 0 -154.5 76t-51.5 210l-1 270h213l-5 -242q-1 -48 16 -74t50 -26q36 0 50.5 23.5t14.5 74.5h1l1 247h208l3 -538zM324 574l-140 14l90 165l156 -46z" />
    <glyph glyph-name="ucircumflex" unicode="&#xfb;" horiz-adv-x="612" 
d="M369 -15v40q-65 -50 -132 -50q-103 0 -154.5 76t-51.5 210l-1 270h213l-5 -242q-1 -48 16 -74t50 -26q36 0 50.5 23.5t14.5 74.5h1l1 247h208l3 -538zM481 578l-125 -4l-48 62l-53 -62l-122 -4l123 133l114 4z" />
    <glyph glyph-name="udieresis" unicode="&#xfc;" horiz-adv-x="612" 
d="M158.5 591.5q-22.5 23.5 -22.5 54.5q0 32 25 54.5t57 22.5q30 0 51.5 -20.5t21.5 -54.5q0 -33 -22 -56.5t-55 -23.5t-55.5 23.5zM334.5 591.5q-22.5 23.5 -22.5 54.5q0 32 25 54.5t57 22.5q30 0 51.5 -20.5t21.5 -54.5q0 -33 -22 -56.5t-55 -23.5t-55.5 23.5zM369 -15v40
q-65 -50 -132 -50q-103 0 -154.5 76t-51.5 210l-1 270h213l-5 -242q-1 -48 16 -74t50 -26q36 0 50.5 23.5t14.5 74.5h1l1 247h208l3 -538z" />
    <glyph glyph-name="yacute" unicode="&#xfd;" horiz-adv-x="662" 
d="M632 545l-151 -525q-41 -136 -113 -201.5t-165 -65.5q-37 0 -83.5 12.5t-89.5 31.5l77 196q9 -14 42.5 -30.5t52.5 -16.5q32 0 52.5 17.5t33.5 48.5l-246 517l215 2l101 -266l68 268zM348 582l-140 14l90 165l156 -46z" />
    <glyph glyph-name="thorn" unicode="&#xfe;" horiz-adv-x="642" 
d="M502 509q51 -35 80.5 -95.5t29.5 -132.5q0 -81 -27.5 -148t-84 -107.5t-139.5 -40.5q-57 0 -105 25l10 -248h-210l-26 1044l208 -32l8 -265q55 35 143 35q62 0 113 -35zM384.5 203q25.5 26 25.5 67q0 40 -25.5 65t-65.5 25q-42 0 -66.5 -24.5t-24.5 -64.5q0 -41 26 -67.5
t67 -26.5q38 0 63.5 26z" />
    <glyph glyph-name="ydieresis" unicode="&#xff;" horiz-adv-x="662" 
d="M182.5 599.5q-22.5 23.5 -22.5 54.5q0 32 25 54.5t57 22.5q30 0 51.5 -20.5t21.5 -54.5q0 -33 -22 -56.5t-55 -23.5t-55.5 23.5zM358.5 599.5q-22.5 23.5 -22.5 54.5q0 32 25 54.5t57 22.5q30 0 51.5 -20.5t21.5 -54.5q0 -33 -22 -56.5t-55 -23.5t-55.5 23.5zM632 545
l-151 -525q-41 -136 -113 -201.5t-165 -65.5q-37 0 -83.5 12.5t-89.5 31.5l77 196q9 -14 42.5 -30.5t52.5 -16.5q32 0 52.5 17.5t33.5 48.5l-246 517l215 2l101 -266l68 268z" />
    <glyph glyph-name="Amacron" unicode="&#x100;" horiz-adv-x="841" 
d="M596 -18l-44 167l-239 11l-63 -170l-220 29l329 741l208 -2l244 -743zM389 367l108 -9l-46 178zM327 808l5 98h277l-6 -98h-276z" />
    <glyph glyph-name="amacron" unicode="&#x101;" horiz-adv-x="640" 
d="M420 0v38q-51 -53 -151 -53q-66 0 -121 38.5t-87 103.5t-32 140q0 74 34.5 138.5t90.5 103t117 38.5q100 0 143 -53v37h172l24 -531h-190zM391 197.5q25 25.5 25 69.5q0 43 -26.5 68t-68.5 25q-39 0 -65.5 -26t-26.5 -65q0 -23 12 -45.5t33.5 -37t48.5 -14.5
q43 0 68 25.5zM178 576l5 98h277l-6 -98h-276z" />
    <glyph glyph-name="Abreve" unicode="&#x102;" horiz-adv-x="841" 
d="M596 -18l-44 167l-239 11l-63 -170l-220 29l329 741l208 -2l244 -743zM389 367l108 -9l-46 178zM379 828q-39 22 -61 60.5t-22 84.5l98 -9q0 -29 20.5 -49t51.5 -20t51.5 20.5t19.5 51.5l101 3q3 -43 -19 -81t-62.5 -60.5t-90.5 -22.5q-48 0 -87 22z" />
    <glyph glyph-name="abreve" unicode="&#x103;" horiz-adv-x="640" 
d="M420 0v38q-51 -53 -151 -53q-66 0 -121 38.5t-87 103.5t-32 140q0 74 34.5 138.5t90.5 103t117 38.5q100 0 143 -53v37h172l24 -531h-190zM391 197.5q25 25.5 25 69.5q0 43 -26.5 68t-68.5 25q-39 0 -65.5 -26t-26.5 -65q0 -23 12 -45.5t33.5 -37t48.5 -14.5
q43 0 68 25.5zM230 597q-39 22 -61 60.5t-22 84.5l98 -9q0 -29 20.5 -49t51.5 -20t51.5 20.5t19.5 51.5l101 3q3 -43 -19 -81t-62.5 -60.5t-90.5 -22.5q-48 0 -87 22z" />
    <glyph glyph-name="Aogonek" unicode="&#x104;" horiz-adv-x="841" 
d="M756 -108l37 -73q-29 -19 -60 -19q-41 0 -70.5 29.5t-29.5 69.5q0 28 11 51t36 45l-84 -13l-44 167l-239 11l-63 -170l-220 29l329 741l208 -2l244 -743h3l-40 -35q-35 -30 -48 -45t-13 -31q0 -20 18 -20q12 0 25 8zM389 367l108 -9l-46 178z" />
    <glyph glyph-name="aogonek" unicode="&#x105;" horiz-adv-x="640" 
d="M559 -123l37 -73q-29 -19 -60 -19q-41 0 -70.5 30t-29.5 70q0 32 17 59t54 56h-87v38q-51 -53 -151 -53q-66 0 -121 38.5t-87 103.5t-32 140q0 74 34.5 138.5t90.5 103t117 38.5q100 0 143 -53v37h172l24 -530l7 -1l-40 -35q-35 -30 -48 -45t-13 -31q0 -20 18 -20
q12 0 25 8zM391 197.5q25 25.5 25 69.5q0 43 -26.5 68t-68.5 25q-39 0 -65.5 -26t-26.5 -65q0 -23 12 -45.5t33.5 -37t48.5 -14.5q43 0 68 25.5z" />
    <glyph glyph-name="Cacute" unicode="&#x106;" horiz-adv-x="804" 
d="M209 39q-86 54 -132.5 144.5t-46.5 197.5q0 108 54.5 198.5t145 143t194.5 52.5q78 0 149 -29t124.5 -88.5t76.5 -146.5l-186 -55q-16 42 -59.5 75.5t-106.5 33.5q-46 0 -88 -22.5t-68 -65t-26 -97.5q0 -49 21.5 -92t61 -68.5t90.5 -25.5q45 0 82 17t61 43t32 51l186 -58
q-18 -75 -69 -134.5t-128 -93.5t-169 -34q-113 0 -199 54zM440 811l-140 14l90 165l156 -46z" />
    <glyph glyph-name="cacute" unicode="&#x107;" horiz-adv-x="612" 
d="M172.5 28q-66.5 39 -104.5 106t-38 147q0 78 37 139.5t103.5 96t150.5 34.5q109 0 176.5 -54t84.5 -149l-181 -33q-11 27 -33.5 40.5t-50.5 13.5q-40 0 -70 -26.5t-30 -70.5q0 -45 30.5 -73t71.5 -28q26 0 48.5 14.5t34.5 40.5l176 -35q-23 -93 -93.5 -147.5
t-165.5 -54.5q-80 0 -146.5 39zM329 574l-140 14l90 165l156 -46z" />
    <glyph glyph-name="Cdotaccent" unicode="&#x10a;" horiz-adv-x="804" 
d="M209 39q-86 54 -132.5 144.5t-46.5 197.5q0 108 54.5 198.5t145 143t194.5 52.5q78 0 149 -29t124.5 -88.5t76.5 -146.5l-186 -55q-16 42 -59.5 75.5t-106.5 33.5q-46 0 -88 -22.5t-68 -65t-26 -97.5q0 -49 21.5 -92t61 -68.5t90.5 -25.5q45 0 82 17t61 43t32 51l186 -58
q-18 -75 -69 -134.5t-128 -93.5t-169 -34q-113 0 -199 54zM347.5 818.5q-22.5 23.5 -22.5 54.5q0 32 25 54.5t57 22.5q30 0 51.5 -20.5t21.5 -54.5q0 -33 -22 -56.5t-55 -23.5t-55.5 23.5z" />
    <glyph glyph-name="cdotaccent" unicode="&#x10b;" horiz-adv-x="612" 
d="M172.5 28q-66.5 39 -104.5 106t-38 147q0 78 37 139.5t103.5 96t150.5 34.5q109 0 176.5 -54t84.5 -149l-181 -33q-11 27 -33.5 40.5t-50.5 13.5q-40 0 -70 -26.5t-30 -70.5q0 -45 30.5 -73t71.5 -28q26 0 48.5 14.5t34.5 40.5l176 -35q-23 -93 -93.5 -147.5
t-165.5 -54.5q-80 0 -146.5 39zM279.5 589.5q-22.5 23.5 -22.5 54.5q0 32 25 54.5t57 22.5q30 0 51.5 -20.5t21.5 -54.5q0 -33 -22 -56.5t-55 -23.5t-55.5 23.5z" />
    <glyph glyph-name="Ccaron" unicode="&#x10c;" horiz-adv-x="804" 
d="M209 39q-86 54 -132.5 144.5t-46.5 197.5q0 108 54.5 198.5t145 143t194.5 52.5q78 0 149 -29t124.5 -88.5t76.5 -146.5l-186 -55q-16 42 -59.5 75.5t-106.5 33.5q-46 0 -88 -22.5t-68 -65t-26 -97.5q0 -49 21.5 -92t61 -68.5t90.5 -25.5q45 0 82 17t61 43t32 51l186 -58
q-18 -75 -69 -134.5t-128 -93.5t-169 -34q-113 0 -199 54zM453 939l125 -4l-111 -129l-114 4l-123 133l122 -4l53 -62z" />
    <glyph glyph-name="ccaron" unicode="&#x10d;" horiz-adv-x="612" 
d="M172.5 28q-66.5 39 -104.5 106t-38 147q0 78 37 139.5t103.5 96t150.5 34.5q109 0 176.5 -54t84.5 -149l-181 -33q-11 27 -33.5 40.5t-50.5 13.5q-40 0 -70 -26.5t-30 -70.5q0 -45 30.5 -73t71.5 -28q26 0 48.5 14.5t34.5 40.5l176 -35q-23 -93 -93.5 -147.5
t-165.5 -54.5q-80 0 -146.5 39zM362 713l125 -4l-111 -129l-114 4l-123 133l122 -4l53 -62z" />
    <glyph glyph-name="Dcaron" unicode="&#x10e;" horiz-adv-x="689" 
d="M443.5 725q100.5 -51 158 -148t57.5 -229q0 -179 -107.5 -270.5t-331.5 -92.5q-81 0 -190 15l10 734l-2 4q48 20 87 29t90 9q128 0 228.5 -51zM398.5 238.5q50.5 42.5 50.5 133.5q0 58 -22.5 100t-61 64t-84.5 22q-19 0 -41 -5v-354q16 -3 33 -3q75 0 125.5 42.5z
M408 939l125 -4l-111 -129l-114 4l-123 133l122 -4l53 -62z" />
    <glyph glyph-name="dcaron" unicode="&#x10f;" horiz-adv-x="829" 
d="M400 -2v43q-28 -26 -70.5 -41.5t-90.5 -15.5q-61 0 -114 38.5t-84 103.5t-31 141t33.5 142t89 106t119.5 40q46 0 84.5 -12.5t63.5 -34.5l-2 298l208 -16l4 -792h-210zM377 210.5q29 28.5 29 72.5q0 43 -29 71t-73 28q-40 0 -68 -27.5t-28 -66.5q0 -49 26 -77.5t70 -28.5
t73 28.5zM758.5 766q22.5 -26 22.5 -65q0 -40 -25 -79.5t-68 -66.5l-25 50l32 60q-5 -2 -13 -2q-22 0 -36.5 17t-14.5 43q0 29 21 49t50 20q34 0 56.5 -26z" />
    <glyph glyph-name="Dcroat" unicode="&#x110;" horiz-adv-x="761" 
d="M497.5 725q100.5 -51 158 -148t57.5 -229q0 -179 -107.5 -270.5t-331.5 -92.5q-81 0 -190 15l4 308h-53l-6 142h61l4 284l-2 4q48 20 87 29t90 9q128 0 228.5 -51zM452.5 238.5q50.5 42.5 50.5 133.5q0 58 -22.5 100t-61 64t-84.5 22q-19 0 -41 -5v-101h63l1 -142h-64
v-111q16 -3 33 -3q75 0 125.5 42.5z" />
    <glyph glyph-name="dcroat" unicode="&#x111;" horiz-adv-x="690" 
d="M609 201l1 -203h-210v43q-28 -26 -70.5 -41.5t-90.5 -15.5q-61 0 -114 38.5t-84 103.5t-31 141t33.5 142t89 106t119.5 40q46 0 84.5 -12.5t63.5 -34.5l-2 298l208 -16l2 -447h52l1 -142h-52zM234 210.5q26 -28.5 70 -28.5q34 0 59 17h-25l-6 142h56q-15 19 -36.5 30
t-47.5 11q-40 0 -68 -27.5t-28 -66.5q0 -49 26 -77.5z" />
    <glyph glyph-name="Emacron" unicode="&#x112;" horiz-adv-x="615" 
d="M264 206l321 6v-212h-531l-24 760l531 17l14 -205l-330 -6l4 -86l273 9l9 -183l-271 -13zM167 808l5 98h277l-6 -98h-276z" />
    <glyph glyph-name="emacron" unicode="&#x113;" horiz-adv-x="608" 
d="M458 510.5q62 -38.5 93 -108t27 -159.5l-365 -26q14 -31 41.5 -49.5t62.5 -19.5q36 0 61 13t36 36l157 -40q-15 -50 -53 -89t-91.5 -61t-110.5 -22q-78 0 -143.5 39.5t-104 107t-38.5 148.5q0 79 36.5 140t100 95t143.5 34q86 0 148 -38.5zM244.5 394
q-25.5 -21 -36.5 -56l189 17q-8 27 -32.5 43.5t-57.5 16.5q-37 0 -62.5 -21zM166 576l5 98h277l-6 -98h-276z" />
    <glyph glyph-name="Edotaccent" unicode="&#x116;" horiz-adv-x="615" 
d="M264 206l321 6v-212h-531l-24 760l531 17l14 -205l-330 -6l4 -86l273 9l9 -183l-271 -13zM251.5 818.5q-22.5 23.5 -22.5 54.5q0 32 25 54.5t57 22.5q30 0 51.5 -20.5t21.5 -54.5q0 -33 -22 -56.5t-55 -23.5t-55.5 23.5z" />
    <glyph glyph-name="edotaccent" unicode="&#x117;" horiz-adv-x="608" 
d="M458 510.5q62 -38.5 93 -108t27 -159.5l-365 -26q14 -31 41.5 -49.5t62.5 -19.5q36 0 61 13t36 36l157 -40q-15 -50 -53 -89t-91.5 -61t-110.5 -22q-78 0 -143.5 39.5t-104 107t-38.5 148.5q0 79 36.5 140t100 95t143.5 34q86 0 148 -38.5zM244.5 394
q-25.5 -21 -36.5 -56l189 17q-8 27 -32.5 43.5t-57.5 16.5q-37 0 -62.5 -21zM273.5 589.5q-22.5 23.5 -22.5 54.5q0 32 25 54.5t57 22.5q30 0 51.5 -20.5t21.5 -54.5q0 -33 -22 -56.5t-55 -23.5t-55.5 23.5z" />
    <glyph glyph-name="Eogonek" unicode="&#x118;" horiz-adv-x="615" 
d="M529 -123l37 -73q-29 -19 -60 -19q-41 0 -70.5 30t-29.5 70q0 32 17 59t54 56h-423l-24 760l531 17l14 -205l-330 -6l4 -86l273 9l9 -183l-271 -13l4 -87l321 6v-212h2l-40 -35q-35 -30 -48 -45t-13 -31q0 -20 18 -20q12 0 25 8z" />
    <glyph glyph-name="eogonek" unicode="&#x119;" horiz-adv-x="608" 
d="M458 510.5q62 -38.5 93 -108t27 -159.5l-365 -26q14 -31 41.5 -49.5t62.5 -19.5q36 0 61 13t36 36l157 -40q-18 -59 -68 -103h3l-40 -35q-35 -30 -48 -45t-13 -31q0 -20 18 -20q12 0 25 8l37 -73q-29 -19 -60 -19q-41 0 -70.5 29.5t-29.5 69.5q0 27 10 48q-7 -1 -19 -1
q-78 0 -143.5 39.5t-104 107t-38.5 148.5q0 79 36.5 140t100 95t143.5 34q86 0 148 -38.5zM244.5 394q-25.5 -21 -36.5 -56l189 17q-8 27 -32.5 43.5t-57.5 16.5q-37 0 -62.5 -21z" />
    <glyph glyph-name="Ecaron" unicode="&#x11a;" horiz-adv-x="615" 
d="M264 206l321 6v-212h-531l-24 760l531 17l14 -205l-330 -6l4 -86l273 9l9 -183l-271 -13zM357 939l125 -4l-111 -129l-114 4l-123 133l122 -4l53 -62z" />
    <glyph glyph-name="ecaron" unicode="&#x11b;" horiz-adv-x="608" 
d="M458 510.5q62 -38.5 93 -108t27 -159.5l-365 -26q14 -31 41.5 -49.5t62.5 -19.5q36 0 61 13t36 36l157 -40q-15 -50 -53 -89t-91.5 -61t-110.5 -22q-78 0 -143.5 39.5t-104 107t-38.5 148.5q0 79 36.5 140t100 95t143.5 34q86 0 148 -38.5zM244.5 394
q-25.5 -21 -36.5 -56l189 17q-8 27 -32.5 43.5t-57.5 16.5q-37 0 -62.5 -21zM356 713l125 -4l-111 -129l-114 4l-123 133l122 -4l53 -62z" />
    <glyph glyph-name="Gbreve" unicode="&#x11e;" horiz-adv-x="809" 
d="M779 324q0 -89 -47 -167t-129 -125t-181 -47q-105 0 -195 53.5t-143.5 145t-53.5 200.5q0 107 52 197t143 142.5t202 52.5q68 0 130.5 -19.5t107.5 -52t63 -70.5l-141 -114q-26 23 -64 37t-82 14q-57 0 -102.5 -24t-71.5 -67.5t-26 -98.5q0 -50 22.5 -93t63.5 -69t93 -26
q67 0 107.5 26t52.5 68l-192 23l34 164l338 -42l-1 -1q20 -50 20 -107zM317 828q-39 22 -61 60.5t-22 84.5l98 -9q0 -29 20.5 -49t51.5 -20t51.5 20.5t19.5 51.5l101 3q3 -43 -19 -81t-62.5 -60.5t-90.5 -22.5q-48 0 -87 22z" />
    <glyph glyph-name="gbreve" unicode="&#x11f;" horiz-adv-x="657" 
d="M628 532l-7 -515q0 -50 -19.5 -112.5t-80.5 -113.5t-173 -51q-87 0 -156.5 38t-108.5 108t-39 161l193 -62q0 -31 28 -54t69 -23q66 0 91 44.5t23 105.5v21q-26 -23 -64.5 -37t-85.5 -14q-72 0 -133 30t-97.5 86t-36.5 131q0 68 31 132t91.5 104.5t145.5 40.5
q38 0 80.5 -13t75.5 -33l1 26h172zM378.5 221q27.5 26 27.5 69q0 44 -30 69t-66 25q-37 0 -65 -26.5t-28 -67.5q0 -42 29 -68.5t67 -26.5t65.5 26zM240 606q-39 22 -61 60.5t-22 84.5l98 -9q0 -29 20.5 -49t51.5 -20t51.5 20.5t19.5 51.5l101 3q3 -43 -19 -81t-62.5 -60.5
t-90.5 -22.5q-48 0 -87 22z" />
    <glyph glyph-name="Gdotaccent" unicode="&#x120;" horiz-adv-x="809" 
d="M779 324q0 -89 -47 -167t-129 -125t-181 -47q-105 0 -195 53.5t-143.5 145t-53.5 200.5q0 107 52 197t143 142.5t202 52.5q68 0 130.5 -19.5t107.5 -52t63 -70.5l-141 -114q-26 23 -64 37t-82 14q-57 0 -102.5 -24t-71.5 -67.5t-26 -98.5q0 -50 22.5 -93t63.5 -69t93 -26
q67 0 107.5 26t52.5 68l-192 23l34 164l338 -42l-1 -1q20 -50 20 -107zM349.5 818.5q-22.5 23.5 -22.5 54.5q0 32 25 54.5t57 22.5q30 0 51.5 -20.5t21.5 -54.5q0 -33 -22 -56.5t-55 -23.5t-55.5 23.5z" />
    <glyph glyph-name="gdotaccent" unicode="&#x121;" horiz-adv-x="657" 
d="M628 532l-7 -515q0 -50 -19.5 -112.5t-80.5 -113.5t-173 -51q-87 0 -156.5 38t-108.5 108t-39 161l193 -62q0 -31 28 -54t69 -23q66 0 91 44.5t23 105.5v21q-26 -23 -64.5 -37t-85.5 -14q-72 0 -133 30t-97.5 86t-36.5 131q0 68 31 132t91.5 104.5t145.5 40.5
q38 0 80.5 -13t75.5 -33l1 26h172zM378.5 221q27.5 26 27.5 69q0 44 -30 69t-66 25q-37 0 -65 -26.5t-28 -67.5q0 -42 29 -68.5t67 -26.5t65.5 26zM295.5 598.5q-22.5 23.5 -22.5 54.5q0 32 25 54.5t57 22.5q30 0 51.5 -20.5t21.5 -54.5q0 -33 -22 -56.5t-55 -23.5
t-55.5 23.5z" />
    <glyph glyph-name="Gcommaaccent" unicode="&#x122;" horiz-adv-x="809" 
d="M779 324q0 -89 -47 -167t-129 -125t-181 -47q-105 0 -195 53.5t-143.5 145t-53.5 200.5q0 107 52 197t143 142.5t202 52.5q68 0 130.5 -19.5t107.5 -52t63 -70.5l-141 -114q-26 23 -64 37t-82 14q-57 0 -102.5 -24t-71.5 -67.5t-26 -98.5q0 -50 22.5 -93t63.5 -69t93 -26
q67 0 107.5 26t52.5 68l-192 23l34 164l338 -42l-1 -1q20 -50 20 -107zM284 -141l74 107l168 -9l-122 -104z" />
    <glyph glyph-name="gcommaaccent" unicode="&#x123;" horiz-adv-x="657" 
d="M628 532l-7 -515q0 -50 -19.5 -112.5t-80.5 -113.5t-173 -51q-87 0 -156.5 38t-108.5 108t-39 161l193 -62q0 -31 28 -54t69 -23q66 0 91 44.5t23 105.5v21q-26 -23 -64.5 -37t-85.5 -14q-72 0 -133 30t-97.5 86t-36.5 131q0 68 31 132t91.5 104.5t145.5 40.5
q38 0 80.5 -13t75.5 -33l1 26h172zM378.5 221q27.5 26 27.5 69q0 44 -30 69t-66 25q-37 0 -65 -26.5t-28 -67.5q0 -42 29 -68.5t67 -26.5t65.5 26zM327 581l-83 16l40 119l128 -22z" />
    <glyph glyph-name="Hbar" unicode="&#x126;" horiz-adv-x="832" 
d="M802 594l-70 -1l4 -600l-208 1l-2 289l-205 7v-289h-208v585l-83 -1l10 112l73 1v61h208v-59l202 3v53l208 4v-55l61 1zM525 492l-1 99l-203 -3v-90z" />
    <glyph glyph-name="hbar" unicode="&#x127;" horiz-adv-x="656" 
d="M626 0h-208l-14 270q-2 40 -20.5 67.5t-57.5 27.5q-70 0 -77 -121l2 -243l-210 3l-8 576h-57l-6 142h61l-1 85l214 -26l1 -57h53l1 -142h-53l1 -82q53 48 146 48q53 0 104.5 -27t85 -78.5t35.5 -119.5z" />
    <glyph glyph-name="Imacron" unicode="&#x12a;" horiz-adv-x="270" 
d="M54 0l16 750l194 10l-6 -770zM20 808l5 98h277l-6 -98h-276z" />
    <glyph glyph-name="imacron" unicode="&#x12b;" horiz-adv-x="297" 
d="M29 576l5 98h249l-5 -98h-249zM56 3l-10 530h211l7 -530h-208z" />
    <glyph glyph-name="Iogonek" unicode="&#x12e;" horiz-adv-x="270" 
d="M185 -133l37 -73q-29 -19 -60 -19q-41 0 -70.5 30t-29.5 70q0 34 18 62t59 58l-109 5l16 750l194 10l-6 -769l9 -1l-40 -35q-35 -30 -48 -45t-13 -31q0 -20 18 -20q12 0 25 8z" />
    <glyph glyph-name="iogonek" unicode="&#x12f;" horiz-adv-x="291" 
d="M84.5 586q-28.5 16 -46.5 43.5t-18 59.5q0 49 37.5 82t89.5 33q50 0 80 -30t30 -79q0 -54 -33 -89.5t-82 -35.5q-29 0 -57.5 16zM243 533l7 -530h-12l-37 -36q-32 -31 -43 -45t-11 -30q0 -20 16 -20q10 0 23 8l33 -73q-26 -19 -54 -19q-37 0 -63.5 30.5t-26.5 70.5
q0 32 15 59t49 55h-97l-10 530h211z" />
    <glyph glyph-name="Idotaccent" unicode="&#x130;" horiz-adv-x="270" 
d="M30 0l16 750l194 10l-6 -770zM95.5 818.5q-22.5 23.5 -22.5 54.5q0 32 25 54.5t57 22.5q30 0 51.5 -20.5t21.5 -54.5q0 -33 -22 -56.5t-55 -23.5t-55.5 23.5z" />
    <glyph glyph-name="dotlessi" unicode="&#x131;" horiz-adv-x="278" 
d="M40 3l-10 530h211l7 -530h-208z" />
    <glyph glyph-name="IJ" unicode="&#x132;" horiz-adv-x="897" 
d="M30 0l16 750l194 10l-6 -770zM848 346q10 -39 10 -79q0 -77 -36 -141.5t-98 -102.5t-138 -38q-60 0 -119.5 24t-104.5 67.5t-62 100.5l158 99q13 -32 40.5 -54.5t61.5 -22.5q43 0 64.5 24t21.5 66q0 29 -8 53l-52 207l-227 1l23 210l470 -3l16 -210h-74z" />
    <glyph glyph-name="ij" unicode="&#x133;" horiz-adv-x="600" 
d="M94.5 586q-28.5 16 -46.5 43.5t-18 59.5q0 49 37.5 82t89.5 33q50 0 80 -30t30 -79q0 -54 -33 -89.5t-82 -35.5q-29 0 -57.5 16zM52 3l-10 530h211l7 -530h-208zM187 -211l65 172q33 -26 54 -26q39 0 52.5 45.5t13.5 130.5l-11 418l206 6l3 -534q0 -97 -52 -173.5
t-186 -76.5q-87 0 -145 38zM391 610.5q-32 33.5 -32 78.5q0 30 16.5 55.5t43.5 40t57 14.5q44 0 74.5 -29t30.5 -78q0 -48 -31.5 -81.5t-78.5 -33.5q-48 0 -80 33.5z" />
    <glyph glyph-name="Kcommaaccent" unicode="&#x136;" horiz-adv-x="710" 
d="M504 -36l-219 299l-43 -43l1 -222l-209 5l-4 754h211l1 -244l262 261l148 -139l-216 -219l243 -324zM234 -141l74 107l168 -9l-122 -104z" />
    <glyph glyph-name="kcommaaccent" unicode="&#x137;" horiz-adv-x="626" 
d="M595 0l-210 -12l-145 209v-195l-210 -2v807l212 10l-1 -440l105 166l210 -15l-151 -237zM320 -210l-83 16l40 119l128 -22z" />
    <glyph glyph-name="Lacute" unicode="&#x139;" horiz-adv-x="568" 
d="M245 200l293 7v-210l-508 -1l4 756l208 13zM302 811l-140 14l90 165l156 -46z" />
    <glyph glyph-name="lacute" unicode="&#x13a;" horiz-adv-x="400" 
d="M312.5 -3.5q-40.5 -11.5 -98.5 -11.5q-54 0 -95.5 26t-64.5 73t-23 108l2 516l196 48l1 -498q0 -28 13.5 -47t35.5 -19q29 0 44 17l47 -181q-17 -20 -57.5 -31.5zM194 806l-140 14l90 165l156 -46z" />
    <glyph glyph-name="Lcommaaccent" unicode="&#x13b;" horiz-adv-x="568" 
d="M245 200l293 7v-210l-508 -1l4 756l208 13zM144 -141l74 107l168 -9l-122 -104z" />
    <glyph glyph-name="lcommaaccent" unicode="&#x13c;" horiz-adv-x="400" 
d="M312.5 -3.5q-40.5 -11.5 -98.5 -11.5q-54 0 -95.5 26t-64.5 73t-23 108l2 516l196 48l1 -498q0 -28 13.5 -47t35.5 -19q29 0 44 17l47 -181q-17 -20 -57.5 -31.5zM205 -210l-83 16l40 119l128 -22z" />
    <glyph glyph-name="Lcaron" unicode="&#x13d;" horiz-adv-x="568" 
d="M245 200l293 7v-210l-508 -1l4 756l208 13zM500.5 738q22.5 -26 22.5 -65q0 -40 -25 -79.5t-68 -66.5l-25 50l32 60q-5 -2 -13 -2q-22 0 -36.5 17t-14.5 43q0 29 21 49t50 20q34 0 56.5 -26z" />
    <glyph glyph-name="lcaron" unicode="&#x13e;" horiz-adv-x="458" 
d="M302.5 -3.5q-40.5 -11.5 -98.5 -11.5q-54 0 -95.5 26t-64.5 73t-23 108l2 516l196 48l1 -498q0 -28 13.5 -47t35.5 -19q29 0 44 17l47 -181q-17 -20 -57.5 -31.5zM387.5 741q22.5 -26 22.5 -65q0 -40 -25 -79.5t-68 -66.5l-25 50l32 60q-5 -2 -13 -2q-22 0 -36.5 17
t-14.5 43q0 29 21 49t50 20q34 0 56.5 -26z" />
    <glyph glyph-name="Lslash" unicode="&#x141;" horiz-adv-x="700" 
d="M368 200l293 7v-210l-508 -1l1 211l-60 -28l-63 200l124 57l2 316l208 13l1 -232l88 40l72 -194l-159 -73z" />
    <glyph glyph-name="lslash" unicode="&#x142;" horiz-adv-x="501" 
d="M462 28q-17 -20 -57.5 -31.5t-98.5 -11.5q-54 0 -95.5 26t-64.5 73t-23 108v4l-57 -35l-35 191l93 56l1 300l196 48v-228l77 47l49 -183l-125 -76v-58q0 -28 13.5 -47t35.5 -19q29 0 44 17z" />
    <glyph glyph-name="Nacute" unicode="&#x143;" horiz-adv-x="779" 
d="M520 760l227 4l-5 -764h-201v2l-1 -2l-279 355l11 -354l-233 -7l-9 773l218 -7l282 -358zM426 811l-140 14l90 165l156 -46z" />
    <glyph glyph-name="nacute" unicode="&#x144;" horiz-adv-x="612" 
d="M374 244q1 48 -16 74t-50 26q-36 0 -50.5 -23.5t-14.5 -74.5h-1l-1 -247h-208l-3 538l213 11v-40q65 50 132 50q103 0 154.5 -76t51.5 -210l1 -270h-213zM329 582l-140 14l90 165l156 -46z" />
    <glyph glyph-name="Ncommaaccent" unicode="&#x145;" horiz-adv-x="779" 
d="M520 760l227 4l-5 -764h-201v2l-1 -2l-279 355l11 -354l-233 -7l-9 773l218 -7l282 -358zM267 -141l74 107l168 -9l-122 -104z" />
    <glyph glyph-name="ncommaaccent" unicode="&#x146;" horiz-adv-x="612" 
d="M374 244q1 48 -16 74t-50 26q-36 0 -50.5 -23.5t-14.5 -74.5h-1l-1 -247h-208l-3 538l213 11v-40q65 50 132 50q103 0 154.5 -76t51.5 -210l1 -270h-213zM312 -210l-83 16l40 119l128 -22z" />
    <glyph glyph-name="Ncaron" unicode="&#x147;" horiz-adv-x="779" 
d="M520 760l227 4l-5 -764h-201v2l-1 -2l-279 355l11 -354l-233 -7l-9 773l218 -7l282 -358zM439 939l125 -4l-111 -129l-114 4l-123 133l122 -4l53 -62z" />
    <glyph glyph-name="ncaron" unicode="&#x148;" horiz-adv-x="612" 
d="M374 244q1 48 -16 74t-50 26q-36 0 -50.5 -23.5t-14.5 -74.5h-1l-1 -247h-208l-3 538l213 11v-40q65 50 132 50q103 0 154.5 -76t51.5 -210l1 -270h-213zM362 721l125 -4l-111 -129l-114 4l-123 133l122 -4l53 -62z" />
    <glyph glyph-name="Eng" unicode="&#x14a;" horiz-adv-x="779" 
d="M734 0q-1 -64 -23 -122t-76.5 -97.5t-145.5 -39.5q-48 0 -82 9t-61 27l67 176q10 -9 22 -12t32 -3q25 0 42 17.5t17 44.5q0 6 -1 8l-272 347l11 -354l-233 -7l-9 773l218 -7l282 -358l-10 358l227 4z" />
    <glyph glyph-name="eng" unicode="&#x14b;" horiz-adv-x="628" 
d="M512 -184.5q-51 -68.5 -145 -68.5q-45 0 -94 15t-82 38l72 161q29 -17 47 -17q17 0 28 16.5t11 42.5l5 241q1 48 -16 74t-50 26q-36 0 -50.5 -23.5t-14.5 -74.5h-1l-1 -247h-208l-3 538l213 11v-40q65 50 132 50q103 0 154.5 -76t51.5 -210l1 -259q1 -129 -50 -197.5z
" />
    <glyph glyph-name="Omacron" unicode="&#x14c;" horiz-adv-x="860" 
d="M233.5 39.5q-92.5 55.5 -148 147.5t-55.5 195q0 104 55.5 194.5t148.5 144t200 53.5q106 0 197 -53.5t145 -143.5t54 -194q0 -106 -54.5 -198t-146.5 -146.5t-197 -54.5q-106 0 -198.5 55.5zM523 216q45 25 72 69t27 98q0 52 -26 94.5t-70 66.5t-97 24t-97 -25t-69 -67.5
t-25 -94.5t25.5 -95.5t68.5 -69t95 -25.5q51 0 96 25zM290 808l5 98h277l-6 -98h-276z" />
    <glyph glyph-name="omacron" unicode="&#x14d;" horiz-adv-x="640" 
d="M178.5 24.5q-67.5 40.5 -108 108.5t-40.5 147q0 73 39 135.5t107 99.5t152 37q81 0 145.5 -36t100.5 -98.5t36 -138.5q0 -79 -38.5 -147t-104.5 -108t-143 -40q-78 0 -145.5 40.5zM386 203.5q26 26.5 26 66.5q0 36 -25.5 63.5t-65.5 27.5q-42 0 -67.5 -26t-25.5 -65
t27 -66t66 -27t65 26.5zM181 576l5 98h277l-6 -98h-276z" />
    <glyph glyph-name="Ohungarumlaut" unicode="&#x150;" horiz-adv-x="860" 
d="M233.5 39.5q-92.5 55.5 -148 147.5t-55.5 195q0 104 55.5 194.5t148.5 144t200 53.5q106 0 197 -53.5t145 -143.5t54 -194q0 -106 -54.5 -198t-146.5 -146.5t-197 -54.5q-106 0 -198.5 55.5zM523 216q45 25 72 69t27 98q0 52 -26 94.5t-70 66.5t-97 24t-97 -25t-69 -67.5
t-25 -94.5t25.5 -95.5t68.5 -69t95 -25.5q51 0 96 25zM470 813l-59 4l36 130l97 3zM315 814l13 135h101l-57 -135h-57z" />
    <glyph glyph-name="ohungarumlaut" unicode="&#x151;" horiz-adv-x="640" 
d="M178.5 24.5q-67.5 40.5 -108 108.5t-40.5 147q0 73 39 135.5t107 99.5t152 37q81 0 145.5 -36t100.5 -98.5t36 -138.5q0 -79 -38.5 -147t-104.5 -108t-143 -40q-78 0 -145.5 40.5zM386 203.5q26 26.5 26 66.5q0 36 -25.5 63.5t-65.5 27.5q-42 0 -67.5 -26t-25.5 -65
t27 -66t66 -27t65 26.5zM192 574l13 135l108 5l-48 -140h-73zM390 576l-78 1l36 134l101 -3z" />
    <glyph glyph-name="OE" unicode="&#x152;" horiz-adv-x="1198" 
d="M1169 206v-212h-531l-2 56q-98 -65 -214 -65q-106 0 -198.5 55.5t-148 147.5t-55.5 195q0 104 55.5 194.5t148.5 144t200 53.5q102 0 191 -50l-1 29l531 17l14 -205l-330 -6l4 -86l273 9l9 -183l-271 -13l4 -87zM513 217q45 25 72 69t27 98q0 52 -26 94.5t-70 66.5
t-97 24t-97 -25t-69 -67.5t-25 -94.5t25.5 -95.5t68.5 -69t95 -25.5q51 0 96 25z" />
    <glyph glyph-name="oe" unicode="&#x153;" horiz-adv-x="1030" 
d="M880 510.5q62 -38.5 93 -108t27 -159.5l-365 -26q14 -31 41.5 -49.5t62.5 -19.5q36 0 61 13t36 36l157 -40q-15 -50 -53 -89t-91.5 -61t-110.5 -22q-60 0 -113.5 24t-93.5 67q-40 -43 -94 -67.5t-113 -24.5q-78 0 -145.5 40.5t-108 108.5t-40.5 147q0 73 39 135.5
t107 99.5t152 37q61 0 112.5 -20.5t90.5 -57.5q38 36 89.5 55.5t111.5 19.5q86 0 148 -38.5zM666.5 394q-25.5 -21 -36.5 -56l189 17q-8 27 -32.5 43.5t-57.5 16.5q-37 0 -62.5 -21zM386 203.5q26 26.5 26 66.5q0 36 -25.5 63.5t-65.5 27.5q-42 0 -67.5 -26t-25.5 -65
t27 -66t66 -27t65 26.5z" />
    <glyph glyph-name="Racute" unicode="&#x154;" horiz-adv-x="637" 
d="M529.5 189q35.5 -18 73.5 -21v-209q-17 -3 -34 -3q-64 0 -130 33t-115 88t-65 115l-15 2l1 -193h-207l-7 723q27 22 98.5 37t130.5 15q114 0 192 -38t116.5 -102.5t38.5 -145.5q0 -78 -34 -143.5t-96 -105.5q17 -34 52.5 -52zM242 384q18 -5 35 -5q49 0 86 29t37 75
q0 38 -26.5 67.5t-72.5 29.5q-34 0 -60 -13zM356 811l-140 14l90 165l156 -46z" />
    <glyph glyph-name="racute" unicode="&#x155;" horiz-adv-x="524" 
d="M429.5 526q40.5 -22 64.5 -54l-71 -162q-19 21 -37 30t-39 9q-56 0 -79.5 -30.5t-28.5 -93.5v-222l-209 -3l9 533l183 4l8 -36q22 22 51 34.5t62 12.5q46 0 86.5 -22zM280 574l-140 14l90 165l156 -46z" />
    <glyph glyph-name="Rcommaaccent" unicode="&#x156;" horiz-adv-x="637" 
d="M529.5 189q35.5 -18 73.5 -21v-209q-17 -3 -34 -3q-64 0 -130 33t-115 88t-65 115l-15 2l1 -193h-207l-7 723q27 22 98.5 37t130.5 15q114 0 192 -38t116.5 -102.5t38.5 -145.5q0 -78 -34 -143.5t-96 -105.5q17 -34 52.5 -52zM242 384q18 -5 35 -5q49 0 86 29t37 75
q0 38 -26.5 67.5t-72.5 29.5q-34 0 -60 -13zM198 -178l74 107l168 -9l-122 -104z" />
    <glyph glyph-name="rcommaaccent" unicode="&#x157;" horiz-adv-x="524" 
d="M429.5 526q40.5 -22 64.5 -54l-71 -162q-19 21 -37 30t-39 9q-56 0 -79.5 -30.5t-28.5 -93.5v-222l-209 -3l9 533l183 4l8 -36q22 22 51 34.5t62 12.5q46 0 86.5 -22zM263 -210l-83 16l40 119l128 -22z" />
    <glyph glyph-name="Rcaron" unicode="&#x158;" horiz-adv-x="637" 
d="M529.5 189q35.5 -18 73.5 -21v-209q-17 -3 -34 -3q-64 0 -130 33t-115 88t-65 115l-15 2l1 -193h-207l-7 723q27 22 98.5 37t130.5 15q114 0 192 -38t116.5 -102.5t38.5 -145.5q0 -78 -34 -143.5t-96 -105.5q17 -34 52.5 -52zM242 384q18 -5 35 -5q49 0 86 29t37 75
q0 38 -26.5 67.5t-72.5 29.5q-34 0 -60 -13zM369 939l125 -4l-111 -129l-114 4l-123 133l122 -4l53 -62z" />
    <glyph glyph-name="rcaron" unicode="&#x159;" horiz-adv-x="524" 
d="M429.5 526q40.5 -22 64.5 -54l-71 -162q-19 21 -37 30t-39 9q-56 0 -79.5 -30.5t-28.5 -93.5v-222l-209 -3l9 533l183 4l8 -36q22 22 51 34.5t62 12.5q46 0 86.5 -22zM313 713l125 -4l-111 -129l-114 4l-123 133l122 -4l53 -62z" />
    <glyph glyph-name="Sacute" unicode="&#x15a;" horiz-adv-x="670" 
d="M171 28.5q-84 33.5 -141 92.5l101 139q104 -77 207 -77q40 0 64 15t24 41t-30 37t-97 18q-113 13 -173.5 65t-60.5 150q0 74 36 132.5t100.5 91.5t146.5 33q79 0 156.5 -31.5t135.5 -90.5l-98 -134q-52 37 -91.5 52.5t-97.5 15.5q-43 0 -65.5 -13.5t-22.5 -38.5
q0 -24 22 -35t71 -13q103 -3 185 -50t82 -164q0 -79 -38.5 -140t-104.5 -95t-146 -34q-81 0 -165 33.5zM373 811l-140 14l90 165l156 -46z" />
    <glyph glyph-name="sacute" unicode="&#x15b;" horiz-adv-x="542" 
d="M429 348q-36 25 -66 37t-74 12q-65 0 -65 -32q0 -13 13.5 -17.5t56.5 -7.5q91 -7 149.5 -48t58.5 -114q0 -51 -31.5 -94.5t-87 -69.5t-124.5 -26q-68 0 -131 25t-98 66l99 122q25 -21 68.5 -34.5t74.5 -13.5q27 0 43 10t16 27q0 13 -11 16.5t-52 7.5q-103 13 -157 51
t-54 100q0 49 31.5 90.5t84.5 66t114 24.5q60 0 123.5 -22.5t99.5 -57.5zM289 574l-140 14l90 165l156 -46z" />
    <glyph glyph-name="Scedilla" unicode="&#x15e;" horiz-adv-x="670" 
d="M543 428q82 -47 82 -164q0 -79 -38.5 -140t-104.5 -95t-146 -34h-2l-3 -13q38 3 63.5 -18t25.5 -56q0 -38 -23 -63t-61 -25q-37 0 -62.5 24t-21.5 59l56 2q2 -26 25 -28q11 0 18 7.5t7 19.5q0 13 -10 20t-29 7q-11 0 -62 -6l11 76q-67 12 -130.5 43t-107.5 77l101 139
q104 -77 207 -77q40 0 64 15t24 41t-30 37t-97 18q-113 13 -173.5 65t-60.5 150q0 74 36 132.5t100.5 91.5t146.5 33q79 0 156.5 -31.5t135.5 -90.5l-98 -134q-52 37 -91.5 52.5t-97.5 15.5q-43 0 -65.5 -13.5t-22.5 -38.5q0 -24 22 -35t71 -13q103 -3 185 -50z" />
    <glyph glyph-name="scedilla" unicode="&#x15f;" horiz-adv-x="542" 
d="M443.5 292q58.5 -41 58.5 -114q0 -50 -30 -93t-83 -69t-119 -28l-3 -11q38 3 63.5 -18t25.5 -56q0 -38 -23 -63t-61 -25q-37 0 -62.5 24t-21.5 59l56 2q2 -26 25 -28q11 0 18 7.5t7 19.5q0 13 -10 20t-29 7q-11 0 -62 -6l10 72q-54 9 -100 32t-73 55l99 122
q25 -21 68.5 -34.5t74.5 -13.5q27 0 43 10t16 27q0 13 -11 16.5t-52 7.5q-103 13 -157 51t-54 100q0 49 31.5 90.5t84.5 66t114 24.5q60 0 123.5 -22.5t99.5 -57.5l-81 -118q-36 25 -66 37t-74 12q-65 0 -65 -32q0 -13 13.5 -17.5t56.5 -7.5q91 -7 149.5 -48z" />
    <glyph glyph-name="Scaron" unicode="&#x160;" horiz-adv-x="670" 
d="M171 28.5q-84 33.5 -141 92.5l101 139q104 -77 207 -77q40 0 64 15t24 41t-30 37t-97 18q-113 13 -173.5 65t-60.5 150q0 74 36 132.5t100.5 91.5t146.5 33q79 0 156.5 -31.5t135.5 -90.5l-98 -134q-52 37 -91.5 52.5t-97.5 15.5q-43 0 -65.5 -13.5t-22.5 -38.5
q0 -24 22 -35t71 -13q103 -3 185 -50t82 -164q0 -79 -38.5 -140t-104.5 -95t-146 -34q-81 0 -165 33.5zM386 939l125 -4l-111 -129l-114 4l-123 133l122 -4l53 -62z" />
    <glyph glyph-name="scaron" unicode="&#x161;" horiz-adv-x="542" 
d="M429 348q-36 25 -66 37t-74 12q-65 0 -65 -32q0 -13 13.5 -17.5t56.5 -7.5q91 -7 149.5 -48t58.5 -114q0 -51 -31.5 -94.5t-87 -69.5t-124.5 -26q-68 0 -131 25t-98 66l99 122q25 -21 68.5 -34.5t74.5 -13.5q27 0 43 10t16 27q0 13 -11 16.5t-52 7.5q-103 13 -157 51
t-54 100q0 49 31.5 90.5t84.5 66t114 24.5q60 0 123.5 -22.5t99.5 -57.5zM322 713l125 -4l-111 -129l-114 4l-123 133l122 -4l53 -62z" />
    <glyph glyph-name="uni0162" unicode="&#x162;" horiz-adv-x="704" 
d="M674 575l-224 -5l2 -568l-198 -9l-2 572l-208 -5l-14 200l628 15zM289.5 -151q-25.5 24 -21.5 59l56 2q2 -26 25 -28q11 0 18 7.5t7 19.5q0 13 -10 20t-29 7q-11 0 -62 -6l13 91l70 6l-9 -40q38 3 63.5 -18t25.5 -56q0 -38 -23 -63t-61 -25q-37 0 -62.5 24z" />
    <glyph glyph-name="uni0163" unicode="&#x163;" horiz-adv-x="498" 
d="M250 -12l-2 -11q38 3 63.5 -18t25.5 -56q0 -38 -23 -63t-61 -25q-37 0 -62.5 24t-21.5 59l56 2q2 -26 25 -28q11 0 18 7.5t7 19.5q0 13 -10 20t-29 7q-11 0 -62 -6l12 81q-45 17 -68.5 58t-23.5 111q0 28 5 73l20 146l-82 -1l-7 161l111 2l11 80l185 9l-11 -85l104 2
l19 -166l-145 -1l-16 -127q-1 -6 -1 -17q0 -31 17 -51t43 -20q42 0 70 48l52 -145q-30 -47 -75 -69t-113 -22q-21 0 -31 1z" />
    <glyph glyph-name="Tcaron" unicode="&#x164;" horiz-adv-x="704" 
d="M674 575l-224 -5l2 -568l-198 -9l-2 572l-208 -5l-14 200l628 15zM402 939l125 -4l-111 -129l-114 4l-123 133l122 -4l53 -62z" />
    <glyph glyph-name="tcaron" unicode="&#x165;" horiz-adv-x="648" 
d="M469 78q-30 -47 -75 -69t-113 -22q-92 0 -139.5 41t-47.5 142q0 28 5 73l20 146l-82 -1l-7 161l111 2l11 80l185 9l-11 -85l104 2l19 -166l-145 -1l-16 -127q-1 -6 -1 -17q0 -31 17 -51t43 -20q42 0 70 48zM577.5 640q22.5 -26 22.5 -65q0 -40 -25 -79.5t-68 -66.5
l-25 50l32 60q-5 -2 -13 -2q-22 0 -36.5 17t-14.5 43q0 29 21 49t50 20q34 0 56.5 -26z" />
    <glyph glyph-name="Tbar" unicode="&#x166;" horiz-adv-x="704" 
d="M573 452l1 -142l-123 -1l1 -307l-198 -9l-1 315h-99l-7 142h106l-1 115l-208 -5l-14 200l628 15l16 -200l-224 -5l1 -119z" />
    <glyph glyph-name="tbar" unicode="&#x167;" horiz-adv-x="498" 
d="M469 78q-30 -47 -75 -69t-113 -22q-92 0 -139.5 41t-47.5 142q0 18 1 27h-36l-6 142h59l7 50l-82 -1l-7 161l111 2l11 80l185 9l-11 -85l104 2l19 -166l-145 -1l-6 -50l83 1l1 -142l-81 -1q18 -23 46 -23q42 0 70 48z" />
    <glyph glyph-name="Umacron" unicode="&#x16a;" horiz-adv-x="718" 
d="M182.5 44q-74.5 56 -113.5 156t-39 231q0 195 52 345l218 -65q-21 -67 -33 -143.5t-12 -132.5q0 -108 26 -174t78 -66q48 0 76 66t28 174q0 56 -12 132.5t-33 143.5l218 65q52 -150 52 -345q0 -134 -39.5 -234t-113.5 -154.5t-175 -54.5q-103 0 -177.5 56zM218 808l5 98
h277l-6 -98h-276z" />
    <glyph glyph-name="umacron" unicode="&#x16b;" horiz-adv-x="612" 
d="M369 -15v40q-65 -50 -132 -50q-103 0 -154.5 76t-51.5 210l-1 270h213l-5 -242q-1 -48 16 -74t50 -26q36 0 50.5 23.5t14.5 74.5h1l1 247h208l3 -538zM167 576l5 98h277l-6 -98h-276z" />
    <glyph glyph-name="Uring" unicode="&#x16e;" horiz-adv-x="718" 
d="M182.5 44q-74.5 56 -113.5 156t-39 231q0 195 52 345l218 -65q-21 -67 -33 -143.5t-12 -132.5q0 -108 26 -174t78 -66q48 0 76 66t28 174q0 56 -12 132.5t-33 143.5l218 65q52 -150 52 -345q0 -134 -39.5 -234t-113.5 -154.5t-175 -54.5q-103 0 -177.5 56zM416.5 939.5
q24.5 -23.5 24.5 -55.5t-25 -56.5t-58 -24.5q-31 0 -57 24t-26 55q0 32 24.5 56.5t58.5 24.5t58.5 -23.5zM378.5 863.5q7.5 6.5 7.5 17.5q0 12 -7.5 20t-20.5 8q-11 0 -19.5 -8t-8.5 -20q0 -10 8 -17t20 -7q13 0 20.5 6.5z" />
    <glyph glyph-name="uring" unicode="&#x16f;" horiz-adv-x="612" 
d="M369 -15v40q-65 -50 -132 -50q-103 0 -154.5 76t-51.5 210l-1 270h213l-5 -242q-1 -48 16 -74t50 -26q36 0 50.5 23.5t14.5 74.5h1l1 247h208l3 -538zM365.5 709.5q24.5 -23.5 24.5 -55.5t-25 -56.5t-58 -24.5q-31 0 -57 24t-26 55q0 32 24.5 56.5t58.5 24.5t58.5 -23.5z
M327.5 633.5q7.5 6.5 7.5 17.5q0 12 -7.5 20t-20.5 8q-11 0 -19.5 -8t-8.5 -20q0 -10 8 -17t20 -7q13 0 20.5 6.5z" />
    <glyph glyph-name="Uhungarumlaut" unicode="&#x170;" horiz-adv-x="718" 
d="M182.5 44q-74.5 56 -113.5 156t-39 231q0 195 52 345l218 -65q-21 -67 -33 -143.5t-12 -132.5q0 -108 26 -174t78 -66q48 0 76 66t28 174q0 56 -12 132.5t-33 143.5l218 65q52 -150 52 -345q0 -134 -39.5 -234t-113.5 -154.5t-175 -54.5q-103 0 -177.5 56zM398 813l-59 4
l36 130l97 3zM243 814l13 135h101l-57 -135h-57z" />
    <glyph glyph-name="uhungarumlaut" unicode="&#x171;" horiz-adv-x="612" 
d="M369 -15v40q-65 -50 -132 -50q-103 0 -154.5 76t-51.5 210l-1 270h213l-5 -242q-1 -48 16 -74t50 -26q36 0 50.5 23.5t14.5 74.5h1l1 247h208l3 -538zM178 574l13 135l108 5l-48 -140h-73zM376 576l-78 1l36 134l101 -3z" />
    <glyph glyph-name="Uogonek" unicode="&#x172;" horiz-adv-x="718" 
d="M377.5 -55.5q-13.5 -14.5 -13.5 -31.5q0 -20 18 -20q12 0 25 8l37 -73q-29 -19 -60 -19q-41 0 -70.5 30t-29.5 70q0 23 8 43t26 39q-91 11 -156 69t-98.5 153.5t-33.5 217.5q0 195 52 345l218 -65q-21 -67 -33 -143.5t-12 -132.5q0 -108 26 -174t78 -66q48 0 76 66
t28 174q0 56 -12 132.5t-33 143.5l218 65q52 -150 52 -345q0 -177 -67.5 -292t-187.5 -143q-42 -37 -55.5 -51.5z" />
    <glyph glyph-name="uogonek" unicode="&#x173;" horiz-adv-x="612" 
d="M533 -127l37 -73q-29 -19 -60 -19q-41 0 -70.5 30.5t-29.5 70.5q0 30 15.5 55.5t48.5 52.5l-105 -5v40q-65 -50 -132 -50q-103 0 -154.5 76t-51.5 210l-1 270h213l-5 -242q-1 -48 16 -74t50 -26q36 0 50.5 23.5t14.5 74.5h1l1 247h208l3 -537l9 -1l-40 -35
q-35 -30 -48 -45t-13 -31q0 -20 18 -20q12 0 25 8z" />
    <glyph glyph-name="Wcircumflex" unicode="&#x174;" horiz-adv-x="1195" 
d="M922 785l243 -116l-263 -686h-211l-113 372l-101 -354l-235 3l-212 689l232 72l116 -427l111 407h192l105 -431zM769 814l-125 -4l-47 62l-54 -62l-122 -4l125 133l114 4z" />
    <glyph glyph-name="wcircumflex" unicode="&#x175;" horiz-adv-x="935" 
d="M695 531l210 5l-178 -536h-208l-59 193l-60 -193h-209l-161 527l210 7l57 -191l59 188l-1 3h106l105 2l-1 -3l63 -206zM638 578l-125 -4l-48 62l-53 -62l-122 -4l123 133l114 4z" />
    <glyph glyph-name="Ycircumflex" unicode="&#x176;" horiz-adv-x="795" 
d="M765 714l-267 -396l8 -311l-215 -7l1 336l-262 340l219 89l155 -230l151 229zM569 814l-125 -4l-47 62l-54 -62l-122 -4l125 133l114 4z" />
    <glyph glyph-name="ycircumflex" unicode="&#x177;" horiz-adv-x="662" 
d="M632 545l-151 -525q-41 -136 -113 -201.5t-165 -65.5q-37 0 -83.5 12.5t-89.5 31.5l77 196q9 -14 42.5 -30.5t52.5 -16.5q32 0 52.5 17.5t33.5 48.5l-246 517l215 2l101 -266l68 268zM505 586l-125 -4l-48 62l-53 -62l-122 -4l123 133l114 4z" />
    <glyph glyph-name="Ydieresis" unicode="&#x178;" horiz-adv-x="795" 
d="M255.5 816.5q-22.5 23.5 -22.5 54.5q0 32 25 54.5t57 22.5q30 0 51.5 -20.5t21.5 -54.5q0 -33 -22 -56.5t-55 -23.5t-55.5 23.5zM431.5 816.5q-22.5 23.5 -22.5 54.5q0 32 25 54.5t57 22.5q30 0 51.5 -20.5t21.5 -54.5q0 -33 -22 -56.5t-55 -23.5t-55.5 23.5zM765 714
l-267 -396l8 -311l-215 -7l1 336l-262 340l219 89l155 -230l151 229z" />
    <glyph glyph-name="Zacute" unicode="&#x179;" horiz-adv-x="698" 
d="M668 765v-199l-321 -365l308 11l1 -214l-626 -3l2 201l299 353l-268 14l-2 202h607zM386 811l-140 14l90 165l156 -46z" />
    <glyph glyph-name="zacute" unicode="&#x17a;" horiz-adv-x="528" 
d="M486 163l12 -163h-463l-5 146l187 216l-172 -6v180h426l18 -165l-175 -214zM282 574l-140 14l90 165l156 -46z" />
    <glyph glyph-name="Zdotaccent" unicode="&#x17b;" horiz-adv-x="698" 
d="M287.5 824.5q-24.5 25.5 -24.5 60.5t27.5 59.5t62.5 24.5q34 0 57.5 -22.5t23.5 -59.5t-24.5 -62.5t-60.5 -25.5q-37 0 -61.5 25.5zM668 765v-199l-321 -365l308 11l1 -214l-626 -3l2 201l299 353l-268 14l-2 202h607z" />
    <glyph glyph-name="zdotaccent" unicode="&#x17c;" horiz-adv-x="528" 
d="M486 163l12 -163h-463l-5 146l187 216l-172 -6v180h426l18 -165l-175 -214zM232.5 589.5q-22.5 23.5 -22.5 54.5q0 32 25 54.5t57 22.5q30 0 51.5 -20.5t21.5 -54.5q0 -33 -22 -56.5t-55 -23.5t-55.5 23.5z" />
    <glyph glyph-name="Zcaron" unicode="&#x17d;" horiz-adv-x="698" 
d="M668 765v-199l-321 -365l308 11l1 -214l-626 -3l2 201l299 353l-268 14l-2 202h607zM399 939l125 -4l-111 -129l-114 4l-123 133l122 -4l53 -62z" />
    <glyph glyph-name="zcaron" unicode="&#x17e;" horiz-adv-x="528" 
d="M486 163l12 -163h-463l-5 146l187 216l-172 -6v180h426l18 -165l-175 -214zM315 713l125 -4l-111 -129l-114 4l-123 133l122 -4l53 -62z" />
    <glyph glyph-name="florin" unicode="&#x192;" horiz-adv-x="591" 
d="M368.5 557q-24.5 -45 -27.5 -122l139 6l-45 -184l-112 -1l-27 -256h-196l32 255l-102 -1l25 170l99 4q25 173 86.5 256t175.5 83q95 0 146 -51l-26 -141q-50 27 -88 27q-55 0 -79.5 -45z" />
    <glyph glyph-name="Gcaron" unicode="&#x1e6;" horiz-adv-x="809" 
d="M779 324q0 -89 -47 -167t-129 -125t-181 -47q-105 0 -195 53.5t-143.5 145t-53.5 200.5q0 107 52 197t143 142.5t202 52.5q68 0 130.5 -19.5t107.5 -52t63 -70.5l-141 -114q-26 23 -64 37t-82 14q-57 0 -102.5 -24t-71.5 -67.5t-26 -98.5q0 -50 22.5 -93t63.5 -69t93 -26
q67 0 107.5 26t52.5 68l-192 23l34 164l338 -42l-1 -1q20 -50 20 -107zM455 939l125 -4l-111 -129l-114 4l-123 133l122 -4l53 -62z" />
    <glyph glyph-name="gcaron" unicode="&#x1e7;" horiz-adv-x="657" 
d="M628 532l-7 -515q0 -50 -19.5 -112.5t-80.5 -113.5t-173 -51q-87 0 -156.5 38t-108.5 108t-39 161l193 -62q0 -31 28 -54t69 -23q66 0 91 44.5t23 105.5v21q-26 -23 -64.5 -37t-85.5 -14q-72 0 -133 30t-97.5 86t-36.5 131q0 68 31 132t91.5 104.5t145.5 40.5
q38 0 80.5 -13t75.5 -33l1 26h172zM378.5 221q27.5 26 27.5 69q0 44 -30 69t-66 25q-37 0 -65 -26.5t-28 -67.5q0 -42 29 -68.5t67 -26.5t65.5 26zM378 722l125 -4l-111 -129l-114 4l-123 133l122 -4l53 -62z" />
    <glyph glyph-name="Scommaaccent" unicode="&#x218;" horiz-adv-x="670" 
d="M171 28.5q-84 33.5 -141 92.5l101 139q104 -77 207 -77q40 0 64 15t24 41t-30 37t-97 18q-113 13 -173.5 65t-60.5 150q0 74 36 132.5t100.5 91.5t146.5 33q79 0 156.5 -31.5t135.5 -90.5l-98 -134q-52 37 -91.5 52.5t-97.5 15.5q-43 0 -65.5 -13.5t-22.5 -38.5
q0 -24 22 -35t71 -13q103 -3 185 -50t82 -164q0 -79 -38.5 -140t-104.5 -95t-146 -34q-81 0 -165 33.5zM215 -146l74 107l168 -9l-122 -104z" />
    <glyph glyph-name="scommaaccent" unicode="&#x219;" horiz-adv-x="542" 
d="M429 348q-36 25 -66 37t-74 12q-65 0 -65 -32q0 -13 13.5 -17.5t56.5 -7.5q91 -7 149.5 -48t58.5 -114q0 -51 -31.5 -94.5t-87 -69.5t-124.5 -26q-68 0 -131 25t-98 66l99 122q25 -21 68.5 -34.5t74.5 -13.5q27 0 43 10t16 27q0 13 -11 16.5t-52 7.5q-103 13 -157 51
t-54 100q0 49 31.5 90.5t84.5 66t114 24.5q60 0 123.5 -22.5t99.5 -57.5zM272 -210l-83 16l40 119l128 -22z" />
    <glyph glyph-name="uni021A" unicode="&#x21a;" horiz-adv-x="704" 
d="M674 575l-224 -5l2 -568l-198 -9l-2 572l-208 -5l-14 200l628 15zM231 -141l74 107l168 -9l-122 -104z" />
    <glyph glyph-name="uni021B" unicode="&#x21b;" horiz-adv-x="498" 
d="M469 78q-30 -47 -75 -69t-113 -22q-92 0 -139.5 41t-47.5 142q0 28 5 73l20 146l-82 -1l-7 161l111 2l11 80l185 9l-11 -85l104 2l19 -166l-145 -1l-16 -127q-1 -6 -1 -17q0 -31 17 -51t43 -20q42 0 70 48zM253 -210l-83 16l40 119l128 -22z" />
    <glyph glyph-name="uni0237" unicode="&#x237;" horiz-adv-x="443" 
d="M30 -211l65 172q33 -26 54 -26q39 0 52.5 45.5t13.5 130.5l-11 418l206 6l3 -534q0 -97 -52 -173.5t-186 -76.5q-87 0 -145 38z" />
    <glyph glyph-name="circumflex" unicode="&#x2c6;" horiz-adv-x="406" 
d="M370 619l-142 -1l-32 115l-46 -113h-130l104 186h151z" />
    <glyph glyph-name="caron" unicode="&#x2c7;" horiz-adv-x="408" 
d="M243 909l125 -4l-111 -129l-114 4l-123 133l122 -4l53 -62z" />
    <glyph glyph-name="breve" unicode="&#x2d8;" horiz-adv-x="402" 
d="M113 661q-39 22 -61 60.5t-22 84.5l98 -9q0 -29 20.5 -49t51.5 -20t51.5 20.5t19.5 51.5l101 3q3 -43 -19 -81t-62.5 -60.5t-90.5 -22.5q-48 0 -87 22z" />
    <glyph glyph-name="dotaccent" unicode="&#x2d9;" horiz-adv-x="215" 
d="M39.5 673.5q-22.5 23.5 -22.5 54.5q0 32 25 54.5t57 22.5q30 0 51.5 -20.5t21.5 -54.5q0 -33 -22 -56.5t-55 -23.5t-55.5 23.5z" />
    <glyph glyph-name="ring" unicode="&#x2da;" horiz-adv-x="226" 
d="M171.5 736.5q24.5 -23.5 24.5 -55.5t-25 -56.5t-58 -24.5q-31 0 -57 24t-26 55q0 32 24.5 56.5t58.5 24.5t58.5 -23.5zM133.5 660.5q7.5 6.5 7.5 17.5q0 12 -7.5 20t-20.5 8q-11 0 -19.5 -8t-8.5 -20q0 -10 8 -17t20 -7q13 0 20.5 6.5z" />
    <glyph glyph-name="ogonek" unicode="&#x2db;" horiz-adv-x="241" 
d="M211 0l-40 -35q-35 -30 -48 -45t-13 -31q0 -20 18 -20q12 0 25 8l37 -73q-29 -19 -60 -19q-39 0 -68.5 27.5t-31.5 64.5q-2 38 17 68t66 64z" />
    <glyph glyph-name="tilde" unicode="&#x2dc;" horiz-adv-x="461" 
d="M272 682.5q-19 6.5 -46 19.5q-20 10 -31.5 14.5t-22.5 4.5q-18 0 -29.5 -12.5t-7.5 -27.5l-115 12q-1 69 34 93t79 24q33 0 56 -7t49 -19q28 -14 45 -14q14 0 21.5 8t7.5 21q0 5 -1 8l103 -11q1 -6 1 -17q0 -46 -29.5 -74.5t-72.5 -28.5q-22 0 -41 6.5z" />
    <glyph glyph-name="hungarumlaut" unicode="&#x2dd;" horiz-adv-x="433" 
d="M175 644l-145 4l70 119l132 -10zM348 633l-147 8l68 116h134z" />
    <glyph glyph-name="gravecomb" unicode="&#x300;" 
d="M-170 584l-106 133l156 46l90 -165z" />
    <glyph glyph-name="acutecomb" unicode="&#x301;" 
d="M-126 584l-140 14l90 165l156 -46z" />
    <glyph glyph-name="uni0302" unicode="&#x302;" 
d="M-30 637l-125 -4l-48 62l-53 -62l-122 -4l123 133l114 4z" />
    <glyph glyph-name="tildecomb" unicode="&#x303;" 
d="M-189 642.5q-19 6.5 -46 19.5q-20 10 -31.5 14.5t-22.5 4.5q-18 0 -29.5 -12.5t-7.5 -27.5l-115 12q-1 69 34 93t79 24q33 0 56 -7t49 -19q28 -14 45 -14q14 0 21.5 8t7.5 21q0 5 -1 8l103 -11q1 -6 1 -17q0 -46 -29.5 -74.5t-72.5 -28.5q-22 0 -41 6.5z" />
    <glyph glyph-name="uni0304" unicode="&#x304;" 
d="M-314 660l5 98h277l-6 -98h-276z" />
    <glyph glyph-name="uni0306" unicode="&#x306;" 
d="M-299 621q-39 22 -61 60.5t-22 84.5l98 -9q0 -29 20.5 -49t51.5 -20t51.5 20.5t19.5 51.5l101 3q3 -43 -19 -81t-62.5 -60.5t-90.5 -22.5q-48 0 -87 22z" />
    <glyph glyph-name="uni0307" unicode="&#x307;" 
d="M-172.5 673.5q-22.5 23.5 -22.5 54.5q0 32 25 54.5t57 22.5q30 0 51.5 -20.5t21.5 -54.5q0 -33 -22 -56.5t-55 -23.5t-55.5 23.5z" />
    <glyph glyph-name="uni0308" unicode="&#x308;" 
d="M-339.5 681.5q-22.5 23.5 -22.5 54.5q0 32 25 54.5t57 22.5q30 0 51.5 -20.5t21.5 -54.5q0 -33 -22 -56.5t-55 -23.5t-55.5 23.5zM-163.5 681.5q-22.5 23.5 -22.5 54.5q0 32 25 54.5t57 22.5q30 0 51.5 -20.5t21.5 -54.5q0 -33 -22 -56.5t-55 -23.5t-55.5 23.5z" />
    <glyph glyph-name="uni030A" unicode="&#x30a;" 
d="M-64.5 741.5q24.5 -23.5 24.5 -55.5t-25 -56.5t-58 -24.5q-31 0 -57 24t-26 55q0 32 24.5 56.5t58.5 24.5t58.5 -23.5zM-102.5 665.5q7.5 6.5 7.5 17.5q0 12 -7.5 20t-20.5 8q-11 0 -19.5 -8t-8.5 -20q0 -10 8 -17t20 -7q13 0 20.5 6.5z" />
    <glyph glyph-name="uni030B" unicode="&#x30b;" 
d="M-287 624l13 135l108 5l-48 -140h-73zM-89 626l-78 1l36 134l101 -3z" />
    <glyph glyph-name="uni030C" unicode="&#x30c;" 
d="M-165 772l125 -4l-111 -129l-114 4l-123 133l122 -4l53 -62z" />
    <glyph glyph-name="uni0312" unicode="&#x312;" 
d="M-115 630l-83 16l40 119l128 -22z" />
    <glyph glyph-name="uni0326" unicode="&#x326;" 
d="M-125 -260l-83 16l40 119l128 -22z" />
    <glyph glyph-name="uni0327" unicode="&#x327;" 
d="M-186.5 -151q-25.5 24 -21.5 59l56 2q2 -26 25 -28q11 0 18 7.5t7 19.5q0 13 -10 20t-29 7q-11 0 -62 -6l13 91l70 6l-9 -40q38 3 63.5 -18t25.5 -56q0 -38 -23 -63t-61 -25q-37 0 -62.5 24z" />
    <glyph glyph-name="uni0328" unicode="&#x328;" 
d="M-39 0l-40 -35q-35 -30 -48 -45t-13 -31q0 -20 18 -20q12 0 25 8l37 -73q-29 -19 -60 -19q-39 0 -68.5 27.5t-31.5 64.5q-2 38 17 68t66 64z" />
    <glyph glyph-name="uni0335" unicode="&#x335;" 
d="M-350 208l-6 142l328 2l1 -142z" />
    <glyph glyph-name="uni0336" unicode="&#x336;" 
d="M-852 587l752 9l10 -112l-772 -9z" />
    <glyph glyph-name="uni0337" unicode="&#x337;" 
d="M-650 116l518 437l102 -113l-516 -456z" />
    <glyph glyph-name="uni0338" unicode="&#x338;" 
d="M-831 101l650 675l151 -116l-651 -669z" />
    <glyph glyph-name="tonos" unicode="&#x384;" horiz-adv-x="306" 
d="M160 584l-140 14l90 165l156 -46z" />
    <glyph glyph-name="dieresistonos" unicode="&#x385;" horiz-adv-x="552" 
d="M300 656l-140 14l90 165l156 -46zM48.5 690.5q-18.5 19.5 -18.5 48.5t18 46.5t47 17.5q28 0 44 -16.5t16 -45.5q0 -30 -17.5 -50t-43.5 -20q-27 0 -45.5 19.5zM415 688q-18 19 -18 47q0 29 18 47.5t47 18.5q28 0 44 -16.5t16 -45.5q0 -30 -18 -50t-44 -20q-27 0 -45 19z
" />
    <glyph glyph-name="Alphatonos" unicode="&#x386;" horiz-adv-x="841" 
d="M596 -18l-44 167l-239 11l-63 -170l-220 29l329 741l208 -2l244 -743zM389 367l108 -9l-46 178zM496 802l-140 14l90 165l156 -46z" />
    <glyph glyph-name="Epsilontonos" unicode="&#x388;" horiz-adv-x="872" 
d="M532 206l321 6v-212h-531l-24 760l531 17l14 -205l-330 -6l4 -86l273 9l9 -183l-271 -13zM160 629l-140 14l90 165l156 -46z" />
    <glyph glyph-name="Etatonos" unicode="&#x389;" horiz-adv-x="970" 
d="M730 -6l-2 289l-205 7v-289h-208v758h208v-261l204 -6l-2 264l208 4l5 -767zM160 629l-140 14l90 165l156 -46z" />
    <glyph glyph-name="Iotatonos" unicode="&#x38a;" horiz-adv-x="520" 
d="M280 0l16 750l194 10l-6 -770zM160 619l-140 14l90 165l156 -46z" />
    <glyph glyph-name="Omicrontonos" unicode="&#x38c;" horiz-adv-x="976" 
d="M344.5 39.5q-92.5 55.5 -148 147.5t-55.5 195q0 104 55.5 194.5t148.5 144t200 53.5q106 0 197 -53.5t145 -143.5t54 -194q0 -106 -54.5 -198t-146.5 -146.5t-197 -54.5q-106 0 -198.5 55.5zM634 216q45 25 72 69t27 98q0 52 -26 94.5t-70 66.5t-97 24t-97 -25t-69 -67.5
t-25 -94.5t25.5 -95.5t68.5 -69t95 -25.5q51 0 96 25zM160 628l-140 14l90 165l156 -46z" />
    <glyph glyph-name="Upsilontonos" unicode="&#x38e;" horiz-adv-x="981" 
d="M962 714l-267 -396l8 -311l-215 -7l1 336l-262 340l219 89l155 -230l151 229zM160 629l-140 14l90 165l156 -46z" />
    <glyph glyph-name="Omegatonos" unicode="&#x38f;" horiz-adv-x="952" 
d="M554 -4l-11 242h-1h1v1h3q55 16 94 60.5t39 105.5q0 45 -21.5 80.5t-58.5 56t-81 20.5q-45 0 -81.5 -22t-57.5 -58.5t-21 -77.5q0 -53 35 -101t92 -63l-13 -239l-345 3l6 236h90q-33 52 -49.5 95t-16.5 96q0 94 47.5 170.5t130.5 120.5t185 44q101 0 184.5 -44.5
t132 -120t48.5 -165.5q0 -57 -18.5 -105.5t-50.5 -86.5l78 2l18 -246zM160 620l-140 14l90 165l156 -46z" />
    <glyph glyph-name="iotadieresistonos" unicode="&#x390;" horiz-adv-x="382" 
d="M352 13q-45 -24 -95 -24q-57 0 -109.5 30t-84.5 84t-32 121l-1 309h218l-1 -270q0 -36 17.5 -58.5t47.5 -22.5q18 0 38 10zM215 561l-140 14l90 165l156 -46zM-36.5 595.5q-18.5 19.5 -18.5 48.5t18 46.5t47 17.5q28 0 44 -16.5t16 -45.5q0 -30 -17.5 -50t-43.5 -20
q-27 0 -45.5 19.5zM330 593q-18 19 -18 47q0 29 18 47.5t47 18.5q28 0 44 -16.5t16 -45.5q0 -30 -18 -50t-44 -20q-27 0 -45 19z" />
    <glyph glyph-name="Alpha" unicode="&#x391;" horiz-adv-x="841" 
d="M596 -18l-44 167l-239 11l-63 -170l-220 29l329 741l208 -2l244 -743zM389 367l108 -9l-46 178z" />
    <glyph glyph-name="Beta" unicode="&#x392;" horiz-adv-x="631" 
d="M526 396q35 -28 55 -74t20 -101q0 -229 -332 -229q-138 0 -236 7v723q45 22 120 33t135 11q110 0 179 -52.5t69 -146.5q0 -99 -87 -139q42 -4 77 -32zM333.5 595q-22.5 17 -54.5 17q-29 0 -48 -8l1 -112q15 -4 32 -4q44 0 68 17t24 46q0 27 -22.5 44zM360 189
q27 23 27 53q0 38 -29 56.5t-71 18.5q-32 0 -54 -15l1 -128q11 -5 27.5 -7.5t30.5 -1.5q41 1 68 24z" />
    <glyph glyph-name="Gamma" unicode="&#x393;" horiz-adv-x="576" 
d="M547 768l-23 -216l-283 -13l-2 -547h-208v769z" />
    <glyph glyph-name="uni0394" unicode="&#x394;" horiz-adv-x="874" 
d="M592 738l252 -734l-814 -13l323 749zM461 492l-110 -284h197z" />
    <glyph glyph-name="Epsilon" unicode="&#x395;" horiz-adv-x="615" 
d="M264 206l321 6v-212h-531l-24 760l531 17l14 -205l-330 -6l4 -86l273 9l9 -183l-271 -13z" />
    <glyph glyph-name="Zeta" unicode="&#x396;" horiz-adv-x="698" 
d="M668 765v-199l-321 -365l308 11l1 -214l-626 -3l2 201l299 353l-268 14l-2 202h607z" />
    <glyph glyph-name="Eta" unicode="&#x397;" horiz-adv-x="684" 
d="M446 -6l-2 289l-205 7v-289h-208v758h208v-261l204 -6l-2 264l208 4l5 -767z" />
    <glyph glyph-name="Theta" unicode="&#x398;" horiz-adv-x="860" 
d="M225.5 39.5q-92.5 55.5 -148 147.5t-55.5 195q0 104 55.5 194.5t148.5 144t200 53.5q106 0 197 -53.5t145 -143.5t54 -194q0 -106 -54.5 -198t-146.5 -146.5t-197 -54.5q-106 0 -198.5 55.5zM515 216q45 25 72 69t27 98q0 52 -26 94.5t-70 66.5t-97 24t-97 -25t-69 -67.5
t-25 -94.5t25.5 -95.5t68.5 -69t95 -25.5q51 0 96 25zM298 447l250 -2v-121l-250 2v121z" />
    <glyph glyph-name="Iota" unicode="&#x399;" horiz-adv-x="270" 
d="M30 0l16 750l194 10l-6 -770z" />
    <glyph glyph-name="Kappa" unicode="&#x39a;" horiz-adv-x="710" 
d="M504 -36l-219 299l-43 -43l1 -222l-209 5l-4 754h211l1 -244l262 261l148 -139l-216 -219l243 -324z" />
    <glyph glyph-name="Lambda" unicode="&#x39b;" horiz-adv-x="875" 
d="M845 15l-223 -23l-186 447l-180 -444l-226 28l306 750l208 -14z" />
    <glyph glyph-name="Mu" unicode="&#x39c;" horiz-adv-x="914" 
d="M884 5l-211 -10l-19 302l-113 -296l-172 -1l-122 299l-5 -300l-208 9l12 753l226 -10l180 -414l172 427l226 -5z" />
    <glyph glyph-name="Nu" unicode="&#x39d;" horiz-adv-x="779" 
d="M520 760l227 4l-5 -764h-201v2l-1 -2l-279 355l11 -354l-233 -7l-9 773l218 -7l282 -358z" />
    <glyph glyph-name="Xi" unicode="&#x39e;" horiz-adv-x="664" 
d="M58 744l569 18l-17 -227l-572 1zM106 457l450 -1l3 -152l-442 -9zM30 212l604 12l-1 -224h-585z" />
    <glyph glyph-name="Omicron" unicode="&#x39f;" horiz-adv-x="860" 
d="M233.5 39.5q-92.5 55.5 -148 147.5t-55.5 195q0 104 55.5 194.5t148.5 144t200 53.5q106 0 197 -53.5t145 -143.5t54 -194q0 -106 -54.5 -198t-146.5 -146.5t-197 -54.5q-106 0 -198.5 55.5zM523 216q45 25 72 69t27 98q0 52 -26 94.5t-70 66.5t-97 24t-97 -25t-69 -67.5
t-25 -94.5t25.5 -95.5t68.5 -69t95 -25.5q51 0 96 25z" />
    <glyph glyph-name="Pi" unicode="&#x3a0;" horiz-adv-x="702" 
d="M461 0l-3 563l-218 4l11 -567h-210l-10 772l636 -10l5 -762h-211z" />
    <glyph glyph-name="Rho" unicode="&#x3a1;" horiz-adv-x="650" 
d="M455.5 738.5q75.5 -33.5 120 -99t44.5 -157.5q0 -79 -43 -150t-115 -114t-154 -43q-29 0 -57 9l5 -184h-210l-16 695q26 29 109 53t150 24q91 0 166.5 -33.5zM381 412q34 30 34 70q0 38 -31 65t-80 27q-32 0 -63 -18l4 -161q28 -13 53 -13q49 0 83 30z" />
    <glyph glyph-name="Sigma" unicode="&#x3a3;" horiz-adv-x="565" 
d="M30 2l15 208l128 162l-141 181l6 203h475l15 -216l-214 6l118 -167l-112 -169h211l4 -208h-505z" />
    <glyph glyph-name="Tau" unicode="&#x3a4;" horiz-adv-x="704" 
d="M674 575l-224 -5l2 -568l-198 -9l-2 572l-208 -5l-14 200l628 15z" />
    <glyph glyph-name="Upsilon" unicode="&#x3a5;" horiz-adv-x="795" 
d="M765 714l-267 -396l8 -311l-215 -7l1 336l-262 340l219 89l155 -230l151 229z" />
    <glyph glyph-name="Phi" unicode="&#x3a6;" horiz-adv-x="865" 
d="M794.5 234.5q-40.5 -69.5 -109.5 -115t-150 -54.5v-66l-208 1v66q-81 11 -149 57.5t-108 116.5t-40 148t39.5 144t107.5 108.5t150 51.5v68h208v-68q83 -9 151.5 -52t108.5 -110.5t40 -145.5q0 -80 -40.5 -149.5zM598 305q24 32 24 72q0 41 -25 74t-62 43v-231
q39 10 63 42zM264 307q24 -31 63 -42v228q-37 -10 -62 -42t-25 -72q0 -41 24 -72z" />
    <glyph glyph-name="Chi" unicode="&#x3a7;" horiz-adv-x="774" 
d="M741 89l-200 -112l-156 217l-166 -217l-189 131l215 279l-188 260l175 114l149 -197l158 204l189 -125l-204 -267z" />
    <glyph glyph-name="Psi" unicode="&#x3a8;" horiz-adv-x="954" 
d="M924 758l-5 -289q-2 -112 -81.5 -179.5t-248.5 -70.5l-2 -219h-237l7 219q-162 4 -241 71.5t-81 178.5l-5 285l217 5v-253q0 -39 10.5 -60.5t35 -31t69.5 -11.5l11 360h222l-4 -361q62 1 89 25.5t27 78.5v251z" />
    <glyph glyph-name="uni03A9" unicode="&#x3a9;" horiz-adv-x="845" 
d="M457 -4l-11 242h-1h1v1h3q55 16 94 60.5t39 105.5q0 45 -21.5 80.5t-58.5 56t-81 20.5q-45 0 -81.5 -22t-57.5 -58.5t-21 -77.5q0 -53 35 -101t92 -63l-13 -239l-345 3l6 236h90q-33 52 -49.5 95t-16.5 96q0 94 47.5 170.5t130.5 120.5t185 44q101 0 184.5 -44.5
t132 -120t48.5 -165.5q0 -57 -18.5 -105.5t-50.5 -86.5l78 2l18 -246z" />
    <glyph glyph-name="Iotadieresis" unicode="&#x3aa;" horiz-adv-x="270" 
d="M7.5 816.5q-22.5 23.5 -22.5 54.5q0 32 25 54.5t57 22.5q30 0 51.5 -20.5t21.5 -54.5q0 -33 -22 -56.5t-55 -23.5t-55.5 23.5zM183.5 816.5q-22.5 23.5 -22.5 54.5q0 32 25 54.5t57 22.5q30 0 51.5 -20.5t21.5 -54.5q0 -33 -22 -56.5t-55 -23.5t-55.5 23.5zM30 0l16 750
l194 10l-6 -770z" />
    <glyph glyph-name="Upsilondieresis" unicode="&#x3ab;" horiz-adv-x="795" 
d="M240.5 816.5q-22.5 23.5 -22.5 54.5q0 32 25 54.5t57 22.5q30 0 51.5 -20.5t21.5 -54.5q0 -33 -22 -56.5t-55 -23.5t-55.5 23.5zM416.5 816.5q-22.5 23.5 -22.5 54.5q0 32 25 54.5t57 22.5q30 0 51.5 -20.5t21.5 -54.5q0 -33 -22 -56.5t-55 -23.5t-55.5 23.5zM765 714
l-267 -396l8 -311l-215 -7l1 336l-262 340l219 89l155 -230l151 229z" />
    <glyph glyph-name="alphatonos" unicode="&#x3ac;" horiz-adv-x="660" 
d="M148.5 33.5q-54.5 37.5 -86.5 100.5t-32 136q0 74 34.5 135t94 96.5t132.5 35.5q47 0 76.5 -14.5t43.5 -45.5l2 54h171v-274q0 -33 8 -47.5t33 -11.5l5 -198q-27 -7 -83 -7q-41 0 -83 21.5t-50 50.5q-24 -33 -61.5 -51t-83.5 -18q-66 0 -120.5 37.5zM286 202.5
q14 -7.5 29 -7.5q24 0 40 19q19 29 19 53q0 23 -15 48q-21 25 -50 25q-24 0 -44 -18q-23 -19 -23 -51q0 -29 20 -49q10 -12 24 -19.5zM359 575l-140 14l90 165l156 -46z" />
    <glyph glyph-name="epsilontonos" unicode="&#x3ad;" horiz-adv-x="529" 
d="M142.5 16q-50.5 19 -80.5 56.5t-30 90.5q0 42 17 73.5t47 41.5q-26 8 -46 39.5t-20 65.5q0 48 34 84.5t89 55.5t116 19q85 0 153.5 -37.5t76.5 -123.5l-160 -33q-2 23 -19 41t-39 18q-20 0 -36 -11.5t-16 -28.5q0 -18 16 -34t51 -16q12 0 18 1l-6 -85q-8 2 -26 2
q-29 0 -46.5 -12t-17.5 -36q0 -21 15 -35t39 -14q27 0 45 21.5t22 42.5l160 -43q-3 -48 -37.5 -85t-89 -57t-118.5 -20q-61 0 -111.5 19zM293 575l-140 14l90 165l156 -46z" />
    <glyph glyph-name="etatonos" unicode="&#x3ae;" horiz-adv-x="616" 
d="M351 -239l4 241l5 242q1 48 -16 74t-50 26q-36 0 -50.5 -23.5t-14.5 -74.5h-1l-1 -247h-208l-3 538l213 11v-40q65 50 132 50q103 0 154.5 -76t51.5 -210l1 -270h-1l3 -242zM316 575l-140 14l90 165l156 -46z" />
    <glyph glyph-name="iotatonos" unicode="&#x3af;" horiz-adv-x="382" 
d="M352 13q-45 -24 -95 -24q-57 0 -109.5 30t-84.5 84t-32 121l-1 309h218l-1 -270q0 -36 17.5 -58.5t47.5 -22.5q18 0 38 10zM220 575l-140 14l90 165l156 -46z" />
    <glyph glyph-name="upsilondieresistonos" unicode="&#x3b0;" horiz-adv-x="610" 
d="M577 241q0 -113 -73 -180t-208 -67q-133 0 -200.5 68t-65.5 199l3 275h192l-1 -252q0 -40 21 -66.5t64 -26.5q35 0 50.5 17.5t19.5 51.5l2 274h195zM329 561l-140 14l90 165l156 -46zM77.5 595.5q-18.5 19.5 -18.5 48.5t18 46.5t47 17.5q28 0 44 -16.5t16 -45.5
q0 -30 -17.5 -50t-43.5 -20q-27 0 -45.5 19.5zM444 593q-18 19 -18 47q0 29 18 47.5t47 18.5q28 0 44 -16.5t16 -45.5q0 -30 -18 -50t-44 -20q-27 0 -45 19z" />
    <glyph glyph-name="alpha" unicode="&#x3b1;" horiz-adv-x="660" 
d="M148.5 33.5q-54.5 37.5 -86.5 100.5t-32 136q0 74 34.5 135t94 96.5t132.5 35.5q47 0 76.5 -14.5t43.5 -45.5l2 54h171v-274q0 -33 8 -47.5t33 -11.5l5 -198q-27 -7 -83 -7q-41 0 -83 21.5t-50 50.5q-24 -33 -61.5 -51t-83.5 -18q-66 0 -120.5 37.5zM286 202.5
q14 -7.5 29 -7.5q24 0 40 19q19 29 19 53q0 23 -15 48q-21 25 -50 25q-24 0 -44 -18q-23 -19 -23 -51q0 -29 20 -49q10 -12 24 -19.5z" />
    <glyph glyph-name="beta" unicode="&#x3b2;" horiz-adv-x="644" 
d="M32 714q42 26 93.5 38.5t107.5 12.5q87 0 166.5 -29.5t128.5 -85.5t49 -131q0 -38 -15 -74t-44 -63q51 -37 73 -74.5t22 -93.5q0 -80 -38.5 -130t-97.5 -72t-124 -22q-49 0 -85 10t-36 22v-261l-201 -1zM309 154q38 0 66 21t28 56q0 40 -26.5 65t-68.5 25q-16 0 -36 -5
l-5 117q46 2 77 24.5t31 55.5q0 32 -28 52.5t-66 20.5q-25 0 -49 -11v-390q30 -31 77 -31z" />
    <glyph glyph-name="gamma" unicode="&#x3b3;" horiz-adv-x="745" 
d="M520 86l8 -325l-241 12l1 290l-85 201q-20 45 -41.5 68t-58.5 23q-17 0 -33 -5l-40 167q67 21 126 21q73 0 123.5 -32t74.5 -95l1 1l57 -136l73 261l230 -47z" />
    <glyph glyph-name="delta" unicode="&#x3b4;" horiz-adv-x="609" 
d="M534.5 390q44.5 -62 44.5 -134q0 -67 -38.5 -127.5t-101.5 -96.5t-132 -36q-70 0 -134 37t-103.5 98.5t-39.5 130.5q0 59 30 111t82 90q-30 30 -46 55.5t-16 57.5q0 59 35 102t95.5 65.5t133.5 22.5q61 0 109 -15.5t97 -42.5l-59 -147q-37 24 -59.5 33t-51.5 9
q-25 0 -48.5 -11t-23.5 -34q0 -17 16 -28t53 -26l42 -19q71 -33 115.5 -95zM373.5 187q26.5 28 26.5 62q0 36 -27.5 63t-65.5 27q-37 0 -67.5 -27t-30.5 -62q0 -22 14 -43t36.5 -34.5t48.5 -13.5q39 0 65.5 28z" />
    <glyph glyph-name="epsilon" unicode="&#x3b5;" horiz-adv-x="529" 
d="M142.5 16q-50.5 19 -80.5 56.5t-30 90.5q0 42 17 73.5t47 41.5q-26 8 -46 39.5t-20 65.5q0 48 34 84.5t89 55.5t116 19q85 0 153.5 -37.5t76.5 -123.5l-160 -33q-2 23 -19 41t-39 18q-20 0 -36 -11.5t-16 -28.5q0 -18 16 -34t51 -16q12 0 18 1l-6 -85q-8 2 -26 2
q-29 0 -46.5 -12t-17.5 -36q0 -21 15 -35t39 -14q27 0 45 21.5t22 42.5l160 -43q-3 -48 -37.5 -85t-89 -57t-118.5 -20q-61 0 -111.5 19z" />
    <glyph glyph-name="zeta" unicode="&#x3b6;" horiz-adv-x="594" 
d="M517 127q47 -63 47 -138q0 -72 -45 -136t-111 -92l-164 99q47 15 79 40t32 51q0 16 -18 27t-55 19q-81 19 -133.5 45t-85.5 80.5t-33 147.5q0 90 35.5 164t114.5 139l-142 -3l10 189l435 1v-180q-116 -77 -166.5 -130.5t-50.5 -115.5q0 -39 16 -61.5t37 -32t64 -23.5
q87 -27 134 -90z" />
    <glyph glyph-name="eta" unicode="&#x3b7;" horiz-adv-x="616" 
d="M351 -239l4 241l5 242q1 48 -16 74t-50 26q-36 0 -50.5 -23.5t-14.5 -74.5h-1l-1 -247h-208l-3 538l213 11v-40q65 50 132 50q103 0 154.5 -76t51.5 -210l1 -270h-1l3 -242z" />
    <glyph glyph-name="theta" unicode="&#x3b8;" horiz-adv-x="720" 
d="M188.5 45.5q-76.5 56.5 -117.5 150.5t-41 203q0 104 45 192t123 139t170 51q91 0 164.5 -49t115.5 -135.5t42 -193.5q0 -113 -39 -207.5t-112.5 -150.5t-171.5 -56q-102 0 -178.5 56.5zM474 498q-3 45 -33 73.5t-73 28.5q-44 0 -78.5 -31.5t-36.5 -75.5zM440.5 221.5
q29.5 31.5 30.5 75.5h-218q6 -44 40 -75.5t75 -31.5q43 0 72.5 31.5z" />
    <glyph glyph-name="iota" unicode="&#x3b9;" horiz-adv-x="382" 
d="M352 13q-45 -24 -95 -24q-57 0 -109.5 30t-84.5 84t-32 121l-1 309h218l-1 -270q0 -36 17.5 -58.5t47.5 -22.5q18 0 38 10z" />
    <glyph glyph-name="kappa" unicode="&#x3ba;" horiz-adv-x="555" 
d="M390 -24l-162 201l-36 -34v-141h-162v529h162v-138l173 153l129 -119l-139 -130l170 -201z" />
    <glyph glyph-name="lambda" unicode="&#x3bb;" horiz-adv-x="651" 
d="M390 -4l-48 274l-83 -275l-229 7l162 411q17 45 25 72q5 15 5 33q0 27 -18 42t-53 16h-50l1 184l106 1q90 -1 138.5 -23.5t76.5 -75t56 -159.5l142 -509z" />
    <glyph glyph-name="uni03BC" unicode="&#x3bc;" horiz-adv-x="610" 
d="M380 5v45q-24 -27 -62.5 -42.5t-82.5 -15.5h-7v-231h-198l1 474v26v36l1 235h2v4h192v-4h1v-285q6 -27 24.5 -41.5t47.5 -14.5q35 0 56.5 25t25.5 65l1 253h195l1 -529h-198z" />
    <glyph glyph-name="nu" unicode="&#x3bd;" horiz-adv-x="686" 
d="M143 310q-6 39 -25 60.5t-47 21.5q-19 0 -38 -9l-3 143q46 14 89 14q62 0 110 -29t65 -95l59 -223l81 341l222 -14l-187 -520h-271z" />
    <glyph glyph-name="xi" unicode="&#x3be;" horiz-adv-x="642" 
d="M205 -88q30 0 82.5 7t94 22.5t41.5 38.5q0 16 -22 21.5t-72 9.5q-41 3 -73 7.5t-62 13.5q-85 23 -124.5 79t-39.5 124q0 56 21.5 96.5t60.5 54.5q-31 16 -47 53t-16 84q0 74 34.5 132t96 90t137.5 32q66 0 123.5 -23.5t95.5 -68t47 -104.5l-129 -62q-17 45 -42 64t-66 19
q-43 0 -68.5 -20.5t-25.5 -56.5q0 -32 19.5 -47t50.5 -19.5t90 -7.5l52 -3l29 -158q-22 2 -50 6q-67 9 -93 9q-102 0 -102 -64q0 -36 30.5 -49.5t100.5 -19.5q85 -8 157 -47.5t72 -142.5q0 -75 -46 -126.5t-121.5 -76.5t-165.5 -27z" />
    <glyph glyph-name="omicron" unicode="&#x3bf;" horiz-adv-x="640" 
d="M178.5 24.5q-67.5 40.5 -108 108.5t-40.5 147q0 73 39 135.5t107 99.5t152 37q81 0 145.5 -36t100.5 -98.5t36 -138.5q0 -79 -38.5 -147t-104.5 -108t-143 -40q-78 0 -145.5 40.5zM386 203.5q26 26.5 26 66.5q0 36 -25.5 63.5t-65.5 27.5q-42 0 -67.5 -26t-25.5 -65
t27 -66t66 -27t65 26.5z" />
    <glyph glyph-name="pi" unicode="&#x3c0;" horiz-adv-x="672" 
d="M642 542l-21 -172h-42v-372h-196v372l-75 1v-374h-191v374h-86l-1 173z" />
    <glyph glyph-name="rho" unicode="&#x3c1;" horiz-adv-x="606" 
d="M451.5 513q59.5 -32 92 -91.5t32.5 -139.5q0 -83 -32.5 -144.5t-92 -94.5t-138.5 -33q-43 0 -81 9l7 -258h-206l1 518h1q0 77 35 137.5t98 94.5t144 34q80 0 139.5 -32zM382.5 207q27.5 28 27.5 69q0 40 -28 66t-67 26t-64.5 -25t-27.5 -64h1l1 -23q6 -34 32 -55.5
t61 -21.5q37 0 64.5 28z" />
    <glyph glyph-name="uni03C2" unicode="&#x3c2;" horiz-adv-x="632" 
d="M176 -88q83 -1 137.5 11.5t54.5 44.5q0 15 -15.5 21t-34.5 6q-82 2 -148 41t-103 103t-37 138q0 71 36 132t97 97t131 36q66 0 129.5 -30.5t103 -82.5t39.5 -111l-170 -33q-4 36 -29.5 55t-61.5 19q-37 0 -64 -24t-27 -67q0 -56 54 -80t134 -26q81 -2 129 -43.5
t48 -118.5q0 -73 -44.5 -130t-118.5 -88.5t-160 -32.5z" />
    <glyph glyph-name="sigma" unicode="&#x3c3;" horiz-adv-x="664" 
d="M625 372h-40q15 -43 15 -93q0 -79 -38.5 -147t-104.5 -108t-143 -40q-78 0 -145.5 40.5t-108 108.5t-40.5 147q0 73 39 135.5t107 99.5t152 37q40 0 76 -9h231v-171zM376 203.5q26 26.5 26 66.5q0 36 -25.5 63.5t-65.5 27.5q-42 0 -67.5 -26t-25.5 -65t27 -66t66 -27
t65 26.5z" />
    <glyph glyph-name="tau" unicode="&#x3c4;" horiz-adv-x="505" 
d="M475 84q-33 -50 -79 -73t-114 -23q-98 0 -141.5 54t-43.5 173l9 155h-69l-7 163l396 7l19 -169h-153l-3 -85q-3 -53 11 -80.5t42 -27.5q23 0 42 13t39 37z" />
    <glyph glyph-name="upsilon" unicode="&#x3c5;" horiz-adv-x="610" 
d="M577 241q0 -113 -73 -180t-208 -67q-133 0 -200.5 68t-65.5 199l3 275h192l-1 -252q0 -40 21 -66.5t64 -26.5q35 0 50.5 17.5t19.5 51.5l2 274h195z" />
    <glyph glyph-name="phi" unicode="&#x3c6;" horiz-adv-x="787" 
d="M691.5 88.5q-65.5 -78.5 -188.5 -101.5l8 -227l-210 23l10 203q-89 15 -152.5 58.5t-96 103.5t-32.5 127q0 77 41 131.5t99.5 85t115.5 40.5l20 -160q-31 2 -56.5 -25.5t-25.5 -62.5q0 -39 26 -65t71 -39l17 355l-1 1q47 9 98 9q77 0 150.5 -26.5t122.5 -87.5t49 -157
q0 -107 -65.5 -185.5zM558.5 230q21.5 29 21.5 64q0 40 -27 66t-65 31l7 -206q42 16 63.5 45z" />
    <glyph glyph-name="chi" unicode="&#x3c7;" horiz-adv-x="704" 
d="M467 -241l-129 228l-118 -225l-190 85l180 324l-163 342l200 20l91 -220l68 217l227 -17l-186 -332l227 -400z" />
    <glyph glyph-name="psi" unicode="&#x3c8;" horiz-adv-x="875" 
d="M845 563l-5 -289q-2 -109 -73.5 -178t-219.5 -74l-1 -261h-236l5 258q-70 0 -136.5 35.5t-108 93t-41.5 122.5l6 288l216 10l-2 -264q1 -34 19.5 -60t50.5 -36l11 557h221l-3 -558q36 10 54 39t19 70l5 227z" />
    <glyph glyph-name="omega" unicode="&#x3c9;" horiz-adv-x="822" 
d="M148.5 28q-55.5 34 -87 97t-31.5 146q0 175 125 274l148 -62q-48 -46 -70 -92.5t-22 -101.5q0 -46 14.5 -75.5t46.5 -29.5q29 0 49 34t20 108q0 22 -2 58q-1 11 -1 24l149 -3q0 -42 -0.5 -56.5t-0.5 -17.5q0 -79 18.5 -113.5t47.5 -34.5q28 0 42.5 30t14.5 95
q0 56 -15 103.5t-40 72.5l142 61q96 -88 96 -254q0 -92 -28.5 -158.5t-79.5 -102t-117 -35.5q-44 0 -76.5 15t-50 34.5t-22.5 33.5q-18 -37 -52 -60.5t-94 -23.5q-68 0 -123.5 34z" />
    <glyph glyph-name="iotadieresis" unicode="&#x3ca;" horiz-adv-x="382" 
d="M0.5 591.5q-22.5 23.5 -22.5 54.5q0 32 25 54.5t57 22.5q30 0 51.5 -20.5t21.5 -54.5q0 -33 -22 -56.5t-55 -23.5t-55.5 23.5zM176.5 591.5q-22.5 23.5 -22.5 54.5q0 32 25 54.5t57 22.5q30 0 51.5 -20.5t21.5 -54.5q0 -33 -22 -56.5t-55 -23.5t-55.5 23.5zM352 13
q-45 -24 -95 -24q-57 0 -109.5 30t-84.5 84t-32 121l-1 309h218l-1 -270q0 -36 17.5 -58.5t47.5 -22.5q18 0 38 10z" />
    <glyph glyph-name="upsilondieresis" unicode="&#x3cb;" horiz-adv-x="610" 
d="M156.5 591.5q-22.5 23.5 -22.5 54.5q0 32 25 54.5t57 22.5q30 0 51.5 -20.5t21.5 -54.5q0 -33 -22 -56.5t-55 -23.5t-55.5 23.5zM332.5 591.5q-22.5 23.5 -22.5 54.5q0 32 25 54.5t57 22.5q30 0 51.5 -20.5t21.5 -54.5q0 -33 -22 -56.5t-55 -23.5t-55.5 23.5zM577 241
q0 -113 -73 -180t-208 -67q-133 0 -200.5 68t-65.5 199l3 275h192l-1 -252q0 -40 21 -66.5t64 -26.5q35 0 50.5 17.5t19.5 51.5l2 274h195z" />
    <glyph glyph-name="omicrontonos" unicode="&#x3cc;" horiz-adv-x="640" 
d="M178.5 24.5q-67.5 40.5 -108 108.5t-40.5 147q0 73 39 135.5t107 99.5t152 37q81 0 145.5 -36t100.5 -98.5t36 -138.5q0 -79 -38.5 -147t-104.5 -108t-143 -40q-78 0 -145.5 40.5zM386 203.5q26 26.5 26 66.5q0 36 -25.5 63.5t-65.5 27.5q-42 0 -67.5 -26t-25.5 -65
t27 -66t66 -27t65 26.5zM346 575l-140 14l90 165l156 -46z" />
    <glyph glyph-name="upsilontonos" unicode="&#x3cd;" horiz-adv-x="610" 
d="M577 241q0 -113 -73 -180t-208 -67q-133 0 -200.5 68t-65.5 199l3 275h192l-1 -252q0 -40 21 -66.5t64 -26.5q35 0 50.5 17.5t19.5 51.5l2 274h195zM334 575l-140 14l90 165l156 -46z" />
    <glyph glyph-name="omegatonos" unicode="&#x3ce;" horiz-adv-x="822" 
d="M148.5 28q-55.5 34 -87 97t-31.5 146q0 175 125 274l148 -62q-48 -46 -70 -92.5t-22 -101.5q0 -46 14.5 -75.5t46.5 -29.5q29 0 49 34t20 108q0 22 -2 58q-1 11 -1 24l149 -3q0 -42 -0.5 -56.5t-0.5 -17.5q0 -79 18.5 -113.5t47.5 -34.5q28 0 42.5 30t14.5 95
q0 56 -15 103.5t-40 72.5l142 61q96 -88 96 -254q0 -92 -28.5 -158.5t-79.5 -102t-117 -35.5q-44 0 -76.5 15t-50 34.5t-22.5 33.5q-18 -37 -52 -60.5t-94 -23.5q-68 0 -123.5 34zM439 575l-140 14l90 165l156 -46z" />
    <glyph glyph-name="uni0401" unicode="&#x401;" horiz-adv-x="615" 
d="M150.5 816.5q-22.5 23.5 -22.5 54.5q0 32 25 54.5t57 22.5q30 0 51.5 -20.5t21.5 -54.5q0 -33 -22 -56.5t-55 -23.5t-55.5 23.5zM326.5 816.5q-22.5 23.5 -22.5 54.5q0 32 25 54.5t57 22.5q30 0 51.5 -20.5t21.5 -54.5q0 -33 -22 -56.5t-55 -23.5t-55.5 23.5zM264 206
l321 6v-212h-531l-24 760l531 17l14 -205l-330 -6l4 -86l273 9l9 -183l-271 -13z" />
    <glyph glyph-name="uni0410" unicode="&#x410;" horiz-adv-x="841" 
d="M596 -18l-44 167l-239 11l-63 -170l-220 29l329 741l208 -2l244 -743zM389 367l108 -9l-46 178z" />
    <glyph glyph-name="uni0411" unicode="&#x411;" horiz-adv-x="646" 
d="M490.5 471q58.5 -31 92 -88.5t33.5 -134.5q0 -130 -99 -196.5t-291 -66.5q-84 0 -196 14l8 762l537 16l27 -211l-351 -10l-1 -75q55 21 110 21q72 0 130.5 -31zM370.5 187q35.5 26 35.5 69q0 36 -24.5 57.5t-62.5 21.5t-73 -24l-3 -143q18 -7 40 -7q52 0 87.5 26z" />
    <glyph glyph-name="uni0412" unicode="&#x412;" horiz-adv-x="631" 
d="M526 396q35 -28 55 -74t20 -101q0 -229 -332 -229q-138 0 -236 7v723q45 22 120 33t135 11q110 0 179 -52.5t69 -146.5q0 -99 -87 -139q42 -4 77 -32zM333.5 595q-22.5 17 -54.5 17q-29 0 -48 -8l1 -112q15 -4 32 -4q44 0 68 17t24 46q0 27 -22.5 44zM360 189
q27 23 27 53q0 38 -29 56.5t-71 18.5q-32 0 -54 -15l1 -128q11 -5 27.5 -7.5t30.5 -1.5q41 1 68 24z" />
    <glyph glyph-name="uni0413" unicode="&#x413;" horiz-adv-x="576" 
d="M547 768l-23 -216l-283 -13l-2 -547h-208v769z" />
    <glyph glyph-name="uni0414" unicode="&#x414;" horiz-adv-x="724" 
d="M694 293l-3 -295h-210l-2 87l-231 1l-6 -87l-212 4l23 290q66 70 99.5 171.5t33.5 224.5q0 35 -3 71h1l436 -7l10 -460h64zM284 293h138l-7 266l-57 5q-6 -149 -74 -271z" />
    <glyph glyph-name="uni0415" unicode="&#x415;" horiz-adv-x="615" 
d="M264 206l321 6v-212h-531l-24 760l531 17l14 -205l-330 -6l4 -86l273 9l9 -183l-271 -13z" />
    <glyph glyph-name="uni0416" unicode="&#x416;" horiz-adv-x="1166" 
d="M239 -9l-209 131l241 301l-197 204l167 150l238 -241v223h207v-223l238 241l169 -150l-200 -203l243 -302l-206 -119l-173 252l-71 -41l1 -209h-207l-1 209l-50 40z" />
    <glyph glyph-name="uni0417" unicode="&#x417;" horiz-adv-x="671" 
d="M191.5 14q-66.5 22 -110 68t-51.5 115l181 55q8 -43 36.5 -61t65.5 -18q46 0 75.5 24t29.5 55q0 39 -29 52t-85 13l-35 -1l-9 156q57 1 88.5 4.5t51 18.5t19.5 47q0 35 -26.5 54t-67.5 19q-45 0 -76 -26t-41 -61l-178 53q11 68 61 110t115.5 59.5t129.5 17.5
q90 0 158 -31t105 -83t38 -114q-1 -92 -86 -145q19 -5 40.5 -34.5t35.5 -69.5t14 -75q0 -58 -36.5 -109.5t-106.5 -83t-164 -31.5q-76 0 -142.5 22z" />
    <glyph glyph-name="uni0418" unicode="&#x418;" horiz-adv-x="779" 
d="M531 760l218 7l-9 -773l-233 7l11 354l-279 -355l-1 2v-2h-201l-5 764l227 -4l-10 -358z" />
    <glyph glyph-name="uni0419" unicode="&#x419;" horiz-adv-x="779" 
d="M531 760l218 7l-9 -773l-233 7l11 354l-279 -355l-1 2v-2h-201l-5 764l227 -4l-10 -358zM278 824q-39 22 -61 60.5t-22 84.5l98 -9q0 -29 20.5 -49t51.5 -20t51.5 20.5t19.5 51.5l101 3q3 -43 -19 -81t-62.5 -60.5t-90.5 -22.5q-48 0 -87 22z" />
    <glyph glyph-name="uni041A" unicode="&#x41a;" horiz-adv-x="710" 
d="M504 -36l-219 299l-43 -43l1 -222l-209 5l-4 754h211l1 -244l262 261l148 -139l-216 -219l243 -324z" />
    <glyph glyph-name="uni041B" unicode="&#x41b;" horiz-adv-x="785" 
d="M754 763l-8 -762l-208 -6v554l-133 -2l-1 -144q-2 -142 -25.5 -233.5t-76.5 -138.5t-144 -47q-38 0 -64 6t-50 23l-13 209q14 -11 36 -19t40 -8q36 1 53.5 31t23.5 78t8 134v311z" />
    <glyph glyph-name="uni041C" unicode="&#x41c;" horiz-adv-x="914" 
d="M884 5l-211 -10l-19 302l-113 -296l-172 -1l-122 299l-5 -300l-208 9l12 753l226 -10l180 -414l172 427l226 -5z" />
    <glyph glyph-name="uni041D" unicode="&#x41d;" horiz-adv-x="684" 
d="M446 -6l-2 289l-205 7v-289h-208v758h208v-261l204 -6l-2 264l208 4l5 -767z" />
    <glyph glyph-name="uni041E" unicode="&#x41e;" horiz-adv-x="860" 
d="M233.5 39.5q-92.5 55.5 -148 147.5t-55.5 195q0 104 55.5 194.5t148.5 144t200 53.5q106 0 197 -53.5t145 -143.5t54 -194q0 -106 -54.5 -198t-146.5 -146.5t-197 -54.5q-106 0 -198.5 55.5zM523 216q45 25 72 69t27 98q0 52 -26 94.5t-70 66.5t-97 24t-97 -25t-69 -67.5
t-25 -94.5t25.5 -95.5t68.5 -69t95 -25.5q51 0 96 25z" />
    <glyph glyph-name="uni041F" unicode="&#x41f;" horiz-adv-x="702" 
d="M461 0l-3 563l-218 4l11 -567h-210l-10 772l636 -10l5 -762h-211z" />
    <glyph glyph-name="uni0420" unicode="&#x420;" horiz-adv-x="650" 
d="M455.5 738.5q75.5 -33.5 120 -99t44.5 -157.5q0 -79 -43 -150t-115 -114t-154 -43q-29 0 -57 9l5 -184h-210l-16 695q26 29 109 53t150 24q91 0 166.5 -33.5zM381 412q34 30 34 70q0 38 -31 65t-80 27q-32 0 -63 -18l4 -161q28 -13 53 -13q49 0 83 30z" />
    <glyph glyph-name="uni0421" unicode="&#x421;" horiz-adv-x="804" 
d="M209 39q-86 54 -132.5 144.5t-46.5 197.5q0 108 54.5 198.5t145 143t194.5 52.5q78 0 149 -29t124.5 -88.5t76.5 -146.5l-186 -55q-16 42 -59.5 75.5t-106.5 33.5q-46 0 -88 -22.5t-68 -65t-26 -97.5q0 -49 21.5 -92t61 -68.5t90.5 -25.5q45 0 82 17t61 43t32 51l186 -58
q-18 -75 -69 -134.5t-128 -93.5t-169 -34q-113 0 -199 54z" />
    <glyph glyph-name="uni0422" unicode="&#x422;" horiz-adv-x="704" 
d="M674 575l-224 -5l2 -568l-198 -9l-2 572l-208 -5l-14 200l628 15z" />
    <glyph glyph-name="uni0423" unicode="&#x423;" horiz-adv-x="678" 
d="M650 770l-148 -529q-34 -115 -103.5 -180t-176.5 -65q-77 0 -165 36v209q19 -19 60.5 -40t83.5 -21q52 0 78 22l-250 553l208 7l128 -282l77 281z" />
    <glyph glyph-name="uni0424" unicode="&#x424;" horiz-adv-x="805" 
d="M737.5 251q-37.5 -62 -99.5 -101.5t-132 -43.5v-103l-208 -14v117q-70 5 -132 45.5t-99.5 103.5t-37.5 131q0 69 36 128t98 96t135 42v108l208 9v-117q74 -6 135.5 -44t97.5 -97.5t36 -128.5t-37.5 -131zM239 317q24 -26 59 -33v192q-33 -7 -58 -35.5t-25 -62.5
q0 -35 24 -61zM563.5 315.5q23.5 25.5 23.5 60.5q0 36 -24.5 64.5t-56.5 35.5v-193q34 7 57.5 32.5z" />
    <glyph glyph-name="uni0425" unicode="&#x425;" horiz-adv-x="774" 
d="M741 89l-200 -112l-156 217l-166 -217l-189 131l215 279l-188 260l175 114l149 -197l158 204l189 -125l-204 -267z" />
    <glyph glyph-name="uni0426" unicode="&#x426;" horiz-adv-x="888" 
d="M677 219h180l-16 -330l-227 -7l-2 107l-568 9l-5 762h211l3 -563l218 -4l-11 567h210z" />
    <glyph glyph-name="uni0427" unicode="&#x427;" horiz-adv-x="673" 
d="M441 0l-5 317q-28 -24 -72 -37.5t-90 -13.5q-73 0 -127.5 32.5t-84 89t-30.5 126.5l-3 246h193l1 -188q0 -53 29.5 -82t76.5 -29q99 0 104 102l-3 196l200 -3l14 -756h-203z" />
    <glyph glyph-name="uni0428" unicode="&#x428;" horiz-adv-x="1089" 
d="M1058 765l1 -763l-1026 -4l-3 762h215l5 -536l176 11l5 525l220 1l2 -538l192 -2l-1 544h214z" />
    <glyph glyph-name="uni0429" unicode="&#x429;" horiz-adv-x="1238" 
d="M1050 245h159l-15 -331l-214 -7l-1 95l-955 -4l-3 762h215l5 -536l176 11l5 525l220 1l2 -538l192 -2l-1 544h214z" />
    <glyph glyph-name="uni042A" unicode="&#x42a;" horiz-adv-x="733" 
d="M536 542q72 -43 115 -114t43 -150q0 -92 -44.5 -157.5t-120 -99t-166.5 -33.5q-67 0 -150 24t-109 53l11 496l-84 4l29 195h270l-5 -184q29 9 57 9q82 0 154 -43zM458 213q31 27 31 65q0 40 -34 70t-83 30q-25 0 -53 -13l-4 -161q31 -18 63 -18q49 0 80 27z" />
    <glyph glyph-name="uni042B" unicode="&#x42b;" horiz-adv-x="894" 
d="M462 542q72 -43 115 -114t43 -150q0 -92 -44.5 -157.5t-120 -99t-166.5 -33.5q-67 0 -150 24t-109 53l16 695h210l-5 -184q28 9 57 9q82 0 154 -43zM660 750l194 10l-6 -770l-204 10zM384 213q31 27 31 65q0 40 -34 70t-83 30q-25 0 -53 -13l-4 -161q31 -18 63 -18
q49 0 80 27z" />
    <glyph glyph-name="uni042C" unicode="&#x42c;" horiz-adv-x="650" 
d="M462 542q72 -43 115 -114t43 -150q0 -92 -44.5 -157.5t-120 -99t-166.5 -33.5q-67 0 -150 24t-109 53l16 695h210l-5 -184q28 9 57 9q82 0 154 -43zM384 213q31 27 31 65q0 40 -34 70t-83 30q-25 0 -53 -13l-4 -161q31 -18 63 -18q49 0 80 27z" />
    <glyph glyph-name="uni042D" unicode="&#x42d;" horiz-adv-x="804" 
d="M582.5 722.5q90.5 -52.5 145 -143t54.5 -198.5q0 -107 -46.5 -197.5t-132.5 -144.5t-199 -54q-92 0 -169 34t-128 93.5t-69 134.5l186 58q8 -25 32 -51t61 -43t82 -17q50 0 89.5 25.5t61.5 67.5h-213v186h212q-24 43 -67.5 67.5t-91.5 24.5q-63 0 -106.5 -33.5
t-59.5 -75.5l-186 55q23 87 76.5 146.5t124.5 88.5t149 29q104 0 194.5 -52.5z" />
    <glyph glyph-name="uni042E" unicode="&#x42e;" horiz-adv-x="1100" 
d="M864 720.5q91 -53.5 145 -143.5t54 -194q0 -106 -54.5 -198t-146.5 -146.5t-197 -54.5q-87 0 -166.5 38.5t-137 105t-82.5 147.5h-51l-2 -286l-204 10l16 750l194 10l-2 -276h47q24 82 82 148.5t138.5 104.5t169.5 38q106 0 197 -53.5zM756 216q45 25 72 69t27 98
q0 52 -26 94.5t-70 66.5t-97 24t-97 -25t-69 -67.5t-25 -94.5t25.5 -95.5t68.5 -69t95 -25.5q51 0 96 25z" />
    <glyph glyph-name="uni042F" unicode="&#x42f;" horiz-adv-x="637" 
d="M507.5 761q71.5 -15 98.5 -37l-7 -723h-207l1 193l-15 -2q-16 -60 -65 -115t-115 -88t-130 -33q-18 0 -34 3v209q38 3 73.5 21t52.5 52q-62 40 -96 105.5t-34 143.5q0 81 38.5 145.5t116.5 102.5t192 38q59 0 130.5 -15zM395 384l1 183q-26 13 -60 13q-46 0 -72.5 -29.5
t-26.5 -67.5q0 -46 37 -75t86 -29q17 0 35 5z" />
    <glyph glyph-name="uni0430" unicode="&#x430;" horiz-adv-x="640" 
d="M420 0v38q-51 -53 -151 -53q-66 0 -121 38.5t-87 103.5t-32 140q0 74 34.5 138.5t90.5 103t117 38.5q100 0 143 -53v37h172l24 -531h-190zM391 197.5q25 25.5 25 69.5q0 43 -26.5 68t-68.5 25q-39 0 -65.5 -26t-26.5 -65q0 -23 12 -45.5t33.5 -37t48.5 -14.5
q43 0 68 25.5z" />
    <glyph glyph-name="uni0431" unicode="&#x431;" horiz-adv-x="602" 
d="M447 463q59 -33 92 -89.5t33 -127.5q0 -75 -33.5 -132t-92.5 -88.5t-134 -31.5q-79 0 -141.5 35t-98.5 94.5t-41 129.5l-1 13v3q0 16 1 23q6 137 75.5 244.5t179 166.5t230.5 59q20 0 30 -1v-165l-28 -7q-57 -12 -108.5 -31t-97.5 -59q76 -3 135 -36zM362.5 188.5
q25.5 26.5 25.5 63.5q0 33 -25 58.5t-65 25.5q-35 0 -60 -20.5t-27 -54.5v-7q1 -41 30 -66.5t62 -25.5q34 0 59.5 26.5z" />
    <glyph glyph-name="uni0432" unicode="&#x432;" horiz-adv-x="485" 
d="M397.5 278q26.5 -18 42 -49.5t15.5 -70.5q0 -80 -76.5 -119.5t-233.5 -39.5h-115l3 501q98 43 195 43q75 0 127.5 -32t52.5 -96q0 -48 -23 -80t-61 -40q5 1 15 1q32 0 58.5 -18zM251 420.5q-16 11.5 -41 11.5q-12 0 -32 -8v-78q6 -2 11 -2q32 1 55 14.5t23 33.5
q0 17 -16 28.5zM267.5 138.5q24.5 16.5 24.5 40.5q0 22 -20 34t-50 12q-23 0 -44 -12v-86q13 -5 29 -5q36 0 60.5 16.5z" />
    <glyph glyph-name="uni0433" unicode="&#x433;" horiz-adv-x="429" 
d="M399 539l-17 -177h-179v-367h-173v543z" />
    <glyph glyph-name="uni0434" unicode="&#x434;" horiz-adv-x="547" 
d="M517 206l-7 -207h-161l-1 84l-146 -7l-3 -77l-169 3l15 204l20 20q32 32 48 53t25.5 53t9.5 83q0 46 -9 118l315 -2l-6 -325h69zM270 359q0 -42 -11 -79t-35 -74h82v173l-37 1q1 -7 1 -21z" />
    <glyph glyph-name="uni0435" unicode="&#x435;" horiz-adv-x="608" 
d="M458 510.5q62 -38.5 93 -108t27 -159.5l-365 -26q14 -31 41.5 -49.5t62.5 -19.5q36 0 61 13t36 36l157 -40q-15 -50 -53 -89t-91.5 -61t-110.5 -22q-78 0 -143.5 39.5t-104 107t-38.5 148.5q0 79 36.5 140t100 95t143.5 34q86 0 148 -38.5zM244.5 394
q-25.5 -21 -36.5 -56l189 17q-8 27 -32.5 43.5t-57.5 16.5q-37 0 -62.5 -21z" />
    <glyph glyph-name="uni0436" unicode="&#x436;" horiz-adv-x="827" 
d="M179 -8l-149 96l162 204l-132 134l119 108l161 -158v145h147v-145l162 158l118 -108l-132 -134l162 -204l-148 -87l-112 168l-50 -25v-142h-147v142l-34 25z" />
    <glyph glyph-name="uni0437" unicode="&#x437;" horiz-adv-x="529" 
d="M156.5 17q-54.5 20 -89 57t-37.5 85l160 43q4 -21 22 -42.5t45 -21.5q24 0 39 14t15 35q0 24 -17.5 36t-46.5 12q-18 0 -26 -2l-6 85q6 -1 18 -1q35 0 51 16t16 34q0 17 -16 28.5t-36 11.5q-22 0 -39 -18t-19 -41l-160 33q8 86 76.5 123.5t153.5 37.5q61 0 116 -19
t89 -55.5t34 -84.5q0 -34 -20 -65.5t-46 -39.5q30 -10 47 -41.5t17 -73.5q0 -53 -30 -90.5t-80.5 -56.5t-111.5 -19q-64 0 -118.5 20z" />
    <glyph glyph-name="uni0438" unicode="&#x438;" horiz-adv-x="541" 
d="M350 527l161 9l-5 -535h-171l6 197l-156 -196v-1h-155v533l165 -4l-4 -195l158 192v-20z" />
    <glyph glyph-name="uni0439" unicode="&#x439;" horiz-adv-x="541" 
d="M350 527l161 9l-5 -535h-171l6 197l-156 -196v-1h-155v533l165 -4l-4 -195l158 192v-20zM172 597q-39 22 -61 60.5t-22 84.5l98 -9q0 -29 20.5 -49t51.5 -20t51.5 20.5t19.5 51.5l101 3q3 -43 -19 -81t-62.5 -60.5t-90.5 -22.5q-48 0 -87 22z" />
    <glyph glyph-name="uni043A" unicode="&#x43a;" horiz-adv-x="555" 
d="M390 -24l-162 201l-36 -34v-141h-162v529h162v-138l173 153l129 -119l-139 -130l170 -201z" />
    <glyph glyph-name="uni043B" unicode="&#x43b;" horiz-adv-x="670" 
d="M641 532l-7 -526h-213l9 366h-81l-3 -211q-1 -59 -16 -94.5t-49.5 -53t-94.5 -17.5q-54 0 -87 4t-56 20l-13 146q10 -10 26 -15.5t32 -5.5q27 0 45.5 14t18.5 41l6 322z" />
    <glyph glyph-name="uni043C" unicode="&#x43c;" horiz-adv-x="659" 
d="M628 5l-165 -6l2 309l-72 -311h-121l-90 316l10 -312l-159 5v542l142 -9v-1l86 -5l64 -228l53 229h210z" />
    <glyph glyph-name="uni043D" unicode="&#x43d;" horiz-adv-x="517" 
d="M487 -3l-178 2v179l-110 12l-1 -189h-168v537l170 1l-1 -179l110 -12v185l173 3z" />
    <glyph glyph-name="uni043E" unicode="&#x43e;" horiz-adv-x="640" 
d="M178.5 24.5q-67.5 40.5 -108 108.5t-40.5 147q0 73 39 135.5t107 99.5t152 37q81 0 145.5 -36t100.5 -98.5t36 -138.5q0 -79 -38.5 -147t-104.5 -108t-143 -40q-78 0 -145.5 40.5zM386 203.5q26 26.5 26 66.5q0 36 -25.5 63.5t-65.5 27.5q-42 0 -67.5 -26t-25.5 -65
t27 -66t66 -27t65 26.5z" />
    <glyph glyph-name="uni043F" unicode="&#x43f;" horiz-adv-x="535" 
d="M39 2l-9 530h467l8 -530h-191l-7 360h-86l7 -360h-189z" />
    <glyph glyph-name="uni0440" unicode="&#x440;" horiz-adv-x="627" 
d="M486 510q51 -35 80.5 -95t29.5 -132q0 -81 -27.5 -148t-84 -107.5t-139.5 -40.5q-64 0 -116 32l15 -258h-206l-8 773l168 -1l6 -42q59 54 169 54q62 0 113 -35zM368.5 205q25.5 26 25.5 67q0 40 -25.5 64.5t-65.5 24.5q-42 0 -66.5 -24t-24.5 -64q0 -42 26 -68t67 -26
q38 0 63.5 26z" />
    <glyph glyph-name="uni0441" unicode="&#x441;" horiz-adv-x="612" 
d="M172.5 28q-66.5 39 -104.5 106t-38 147q0 78 37 139.5t103.5 96t150.5 34.5q109 0 176.5 -54t84.5 -149l-181 -33q-11 27 -33.5 40.5t-50.5 13.5q-40 0 -70 -26.5t-30 -70.5q0 -45 30.5 -73t71.5 -28q26 0 48.5 14.5t34.5 40.5l176 -35q-23 -93 -93.5 -147.5
t-165.5 -54.5q-80 0 -146.5 39z" />
    <glyph glyph-name="uni0442" unicode="&#x442;" horiz-adv-x="508" 
d="M478 355l-128 -4l3 -364l-196 -19l-3 378l-114 -3l-10 185l437 11z" />
    <glyph glyph-name="uni0443" unicode="&#x443;" horiz-adv-x="654" 
d="M624 541l-151 -509q-39 -129 -109 -199t-164 -70q-40 0 -85.5 12.5t-84.5 34.5l45 180q6 -17 43.5 -32.5t71.5 -15.5q23 0 42 14.5t31 40.5l-222 529l214 7l89 -241l64 240z" />
    <glyph glyph-name="uni0444" unicode="&#x444;" horiz-adv-x="929" 
d="M801 495.5q48 -32.5 73.5 -90t25.5 -131.5q0 -78 -28.5 -142t-80.5 -101.5t-120 -37.5q-53 0 -102 23l1 -255h-204l3 258q-54 -26 -110 -26q-68 0 -120 37.5t-80.5 101.5t-28.5 142q0 109 54 179t148 75q33 1 71.5 -7.5t72.5 -25.5l3 265l188 -1l1 -258q28 13 60 20t60 7
q65 0 113 -32.5zM339 177.5q21 12.5 33 34.5l1 99q-12 22 -34.5 34t-47.5 12q-37 0 -65.5 -28t-28.5 -65q0 -41 28 -70t67 -29q26 0 47 12.5zM719.5 196q26.5 31 26.5 69q0 35 -28.5 63.5t-66.5 28.5q-26 0 -48.5 -12.5t-34.5 -36.5l1 -93q12 -24 34 -37t48 -13
q42 0 68.5 31z" />
    <glyph glyph-name="uni0445" unicode="&#x445;" horiz-adv-x="629" 
d="M599 21l-190 -33l-97 137l-90 -125l-192 2l182 265l-163 232l168 46l96 -132l93 135l187 -35l-176 -243z" />
    <glyph glyph-name="uni0446" unicode="&#x446;" horiz-adv-x="673" 
d="M506 160l137 12l-13 -250h-176l5 76h-421l-8 535h184l8 -360h95l-7 360h190z" />
    <glyph glyph-name="uni0447" unicode="&#x447;" horiz-adv-x="530" 
d="M330 -1l-4 213q-46 -37 -102 -37q-73 0 -128 44t-60 157l-6 163h165v-116q0 -39 18 -61t49 -22q33 0 47 17t14 56q0 16 -1 25l1 -2l-2 102l169 -2l10 -537h-170z" />
    <glyph glyph-name="uni0448" unicode="&#x448;" horiz-adv-x="784" 
d="M32 -2l-2 530h186l1 -335l73 7l5 328h189l2 -337l82 -2l-1 344h185l2 -531z" />
    <glyph glyph-name="uni0449" unicode="&#x449;" horiz-adv-x="914" 
d="M752 171l132 11l-12 -239h-159v59l-681 -4l-2 528h185l1 -333l75 7l3 326h189l2 -337l82 -1l-1 344h185z" />
    <glyph glyph-name="uni044A" unicode="&#x44a;" horiz-adv-x="527" 
d="M392.5 375q51.5 -29 79 -76.5t27.5 -101.5q0 -56 -33 -102t-88 -72t-117 -26q-81 0 -179 49l18 342l-70 3l23 143h204l-6 -131q7 1 20 1q70 0 121.5 -29zM324.5 160q19.5 18 19.5 44q0 24 -21 42.5t-49 18.5q-11 0 -29 -7l-5 -105q19 -11 38 -11q27 0 46.5 18z" />
    <glyph glyph-name="uni044B" unicode="&#x44b;" horiz-adv-x="682" 
d="M344.5 376.5q51.5 -29.5 79 -76.5t27.5 -100q0 -58 -33.5 -104.5t-89 -72.5t-118.5 -26q-85 0 -180 49l25 491h154l-6 -132q7 1 20 1q70 0 121.5 -29.5zM482 537h170l-5 -537h-170zM274.5 154q20.5 17 20.5 43q0 28 -23.5 46.5t-53.5 18.5q-11 0 -21 -3l-4 -109
q14 -13 36 -13q25 0 45.5 17z" />
    <glyph glyph-name="uni044C" unicode="&#x44c;" horiz-adv-x="477" 
d="M340.5 375q51.5 -29 79 -77t27.5 -102q0 -56 -33 -102t-88 -72t-117 -26q-81 0 -179 49l25 489h151l-5 -131q6 1 18 1q70 0 121.5 -29zM273 159q20 18 20 45q0 24 -21.5 42.5t-49.5 18.5q-13 0 -27 -6l-4 -108q16 -10 35 -10q27 0 47 18z" />
    <glyph glyph-name="uni044D" unicode="&#x44d;" horiz-adv-x="588" 
d="M427 506q60 -36 95 -97.5t35 -135.5q0 -75 -36.5 -139t-98 -102t-132.5 -38q-63 0 -122 30.5t-96.5 80.5t-39.5 106l135 21q1 -15 16.5 -34t41.5 -33t55 -14q41 0 68 17.5t40 47.5h-149l-11 110l161 -1q-13 32 -42 49t-66 17q-41 0 -73.5 -23.5t-40.5 -62.5l-137 14
q3 60 41 111.5t98.5 81.5t127.5 30q70 0 130 -36z" />
    <glyph glyph-name="uni044E" unicode="&#x44e;" horiz-adv-x="815" 
d="M647 501q63 -37 100.5 -99t37.5 -133q0 -72 -37.5 -135t-100.5 -100.5t-135 -37.5q-59 0 -112 24.5t-92.5 67t-58.5 95.5h-42l-2 -183h-175l5 535h175l-2 -191h38q17 55 57 99t94.5 69.5t114.5 25.5q72 0 135 -37zM564.5 206.5q27.5 26.5 27.5 61.5q0 36 -28.5 62
t-61.5 26q-35 0 -62 -27t-27 -59q0 -24 13.5 -44.5t34.5 -33t42 -12.5q34 0 61.5 26.5z" />
    <glyph glyph-name="uni044F" unicode="&#x44f;" horiz-adv-x="474" 
d="M275 0l-1 128q-17 -48 -55 -89.5t-87 -65.5t-99 -23v163q56 3 82 56q-40 27 -62.5 69.5t-22.5 97.5q1 89 63.5 145.5t180.5 56.5q50 0 92 -9t71 -23l3 -506h-165zM203.5 387.5q-19.5 -14.5 -19.5 -42.5q0 -24 20 -39.5t52 -15.5q11 0 17 2l-1 105q-10 5 -26 5
q-23 0 -42.5 -14.5z" />
    <glyph glyph-name="uni0451" unicode="&#x451;" horiz-adv-x="608" 
d="M138.5 591.5q-22.5 23.5 -22.5 54.5q0 32 25 54.5t57 22.5q30 0 51.5 -20.5t21.5 -54.5q0 -33 -22 -56.5t-55 -23.5t-55.5 23.5zM314.5 591.5q-22.5 23.5 -22.5 54.5q0 32 25 54.5t57 22.5q30 0 51.5 -20.5t21.5 -54.5q0 -33 -22 -56.5t-55 -23.5t-55.5 23.5zM458 510.5
q62 -38.5 93 -108t27 -159.5l-365 -26q14 -31 41.5 -49.5t62.5 -19.5q36 0 61 13t36 36l157 -40q-15 -50 -53 -89t-91.5 -61t-110.5 -22q-78 0 -143.5 39.5t-104 107t-38.5 148.5q0 79 36.5 140t100 95t143.5 34q86 0 148 -38.5zM244.5 394q-25.5 -21 -36.5 -56l189 17
q-8 27 -32.5 43.5t-57.5 16.5q-37 0 -62.5 -21z" />
    <glyph glyph-name="Wgrave" unicode="&#x1e80;" horiz-adv-x="1195" 
d="M922 785l243 -116l-263 -686h-211l-113 372l-101 -354l-235 3l-212 689l232 72l116 -427l111 407h192l105 -431zM530 800l-106 133l156 46l90 -165z" />
    <glyph glyph-name="wgrave" unicode="&#x1e81;" horiz-adv-x="935" 
d="M695 531l210 5l-178 -536h-208l-59 193l-60 -193h-209l-161 527l210 7l57 -191l59 188l-1 3h106l105 2l-1 -3l63 -206zM447 574l-106 133l156 46l90 -165z" />
    <glyph glyph-name="Wacute" unicode="&#x1e82;" horiz-adv-x="1195" 
d="M922 785l243 -116l-263 -686h-211l-113 372l-101 -354l-235 3l-212 689l232 72l116 -427l111 407h192l105 -431zM634 811l-140 14l90 165l156 -46z" />
    <glyph glyph-name="wacute" unicode="&#x1e83;" horiz-adv-x="935" 
d="M695 531l210 5l-178 -536h-208l-59 193l-60 -193h-209l-161 527l210 7l57 -191l59 188l-1 3h106l105 2l-1 -3l63 -206zM481 574l-140 14l90 165l156 -46z" />
    <glyph glyph-name="Wdieresis" unicode="&#x1e84;" horiz-adv-x="1195" 
d="M455.5 816.5q-22.5 23.5 -22.5 54.5q0 32 25 54.5t57 22.5q30 0 51.5 -20.5t21.5 -54.5q0 -33 -22 -56.5t-55 -23.5t-55.5 23.5zM631.5 816.5q-22.5 23.5 -22.5 54.5q0 32 25 54.5t57 22.5q30 0 51.5 -20.5t21.5 -54.5q0 -33 -22 -56.5t-55 -23.5t-55.5 23.5zM922 785
l243 -116l-263 -686h-211l-113 372l-101 -354l-235 3l-212 689l232 72l116 -427l111 407h192l105 -431z" />
    <glyph glyph-name="wdieresis" unicode="&#x1e85;" horiz-adv-x="935" 
d="M315.5 591.5q-22.5 23.5 -22.5 54.5q0 32 25 54.5t57 22.5q30 0 51.5 -20.5t21.5 -54.5q0 -33 -22 -56.5t-55 -23.5t-55.5 23.5zM491.5 591.5q-22.5 23.5 -22.5 54.5q0 32 25 54.5t57 22.5q30 0 51.5 -20.5t21.5 -54.5q0 -33 -22 -56.5t-55 -23.5t-55.5 23.5zM695 531
l210 5l-178 -536h-208l-59 193l-60 -193h-209l-161 527l210 7l57 -191l59 188l-1 3h106l105 2l-1 -3l63 -206z" />
    <glyph glyph-name="uni1E9E" unicode="&#x1e9e;" horiz-adv-x="663" 
d="M30 518q0 74 34 132.5t94.5 91t137.5 32.5q67 0 124.5 -26t91 -72.5t32.5 -107.5l-89 -106q50 -6 90.5 -34t64 -74t23.5 -103q0 -72 -34.5 -133.5t-91.5 -97t-123 -35.5q-61 0 -108 25l10 158q21 -14 47 -14q39 0 68.5 28t29.5 73q0 36 -22 55t-54 19q-18 0 -35.5 -6
t-28.5 -16l-14 142l68 73q4 21 -13.5 35t-42.5 14t-43.5 -14t-18.5 -40l4 -517l-197 -18z" />
    <glyph glyph-name="Ygrave" unicode="&#x1ef2;" horiz-adv-x="795" 
d="M765 714l-267 -396l8 -311l-215 -7l1 336l-262 340l219 89l155 -230l151 229zM330 800l-106 133l156 46l90 -165z" />
    <glyph glyph-name="ygrave" unicode="&#x1ef3;" horiz-adv-x="662" 
d="M632 545l-151 -525q-41 -136 -113 -201.5t-165 -65.5q-37 0 -83.5 12.5t-89.5 31.5l77 196q9 -14 42.5 -30.5t52.5 -16.5q32 0 52.5 17.5t33.5 48.5l-246 517l215 2l101 -266l68 268zM314 582l-106 133l156 46l90 -165z" />
    <glyph glyph-name="endash" unicode="&#x2013;" horiz-adv-x="593" 
d="M36 206l-5 205l531 7l-1 -205z" />
    <glyph glyph-name="emdash" unicode="&#x2014;" horiz-adv-x="871" 
d="M30 176l4 210l787 1l16 -206z" />
    <glyph glyph-name="quoteleft" unicode="&#x2018;" horiz-adv-x="207" 
d="M173.5 683q14.5 -17 14.5 -43q0 -29 -21 -49t-50 -20q-34 0 -56.5 26t-22.5 65q0 40 25 79.5t68 66.5l25 -50l-32 -60q5 2 13 2q22 0 36.5 -17z" />
    <glyph glyph-name="quoteright" unicode="&#x2019;" horiz-adv-x="207" 
d="M146.5 782q22.5 -26 22.5 -65q0 -40 -25 -79.5t-68 -66.5l-25 50l32 60q-5 -2 -13 -2q-22 0 -36.5 17t-14.5 43q0 29 21 49t50 20q34 0 56.5 -26z" />
    <glyph glyph-name="quotesinglbase" unicode="&#x201a;" horiz-adv-x="209" 
d="M156.5 93q22.5 -26 22.5 -65q0 -40 -25 -79.5t-68 -66.5l-25 50l32 60q-5 -2 -13 -2q-22 0 -36.5 17t-14.5 43q0 29 21 49t50 20q34 0 56.5 -26z" />
    <glyph glyph-name="quotedblleft" unicode="&#x201c;" horiz-adv-x="363" 
d="M173.5 682q14.5 -17 14.5 -43q0 -29 -21 -49t-50 -20q-34 0 -56.5 26t-22.5 65q0 40 25 79.5t68 66.5l25 -50l-32 -60q5 2 13 2q22 0 36.5 -17zM329.5 682q14.5 -17 14.5 -43q0 -29 -21 -49t-50 -20q-34 0 -56.5 26t-22.5 65q0 40 25 79.5t68 66.5l25 -50l-32 -60
q5 2 13 2q22 0 36.5 -17z" />
    <glyph glyph-name="quotedblright" unicode="&#x201d;" horiz-adv-x="362" 
d="M146.5 782q22.5 -26 22.5 -65q0 -40 -25 -79.5t-68 -66.5l-25 50l32 60q-5 -2 -13 -2q-22 0 -36.5 17t-14.5 43q0 29 21 49t50 20q34 0 56.5 -26zM301.5 782q22.5 -26 22.5 -65q0 -40 -25 -79.5t-68 -66.5l-25 50l32 60q-5 -2 -13 -2q-22 0 -36.5 17t-14.5 43q0 29 21 49
t50 20q34 0 56.5 -26z" />
    <glyph glyph-name="quotedblbase" unicode="&#x201e;" horiz-adv-x="362" 
d="M301.5 93q22.5 -26 22.5 -65q0 -40 -25 -79.5t-68 -66.5l-25 50l32 60q-5 -2 -13 -2q-22 0 -36.5 17t-14.5 43q0 29 21 49t50 20q34 0 56.5 -26zM146.5 93q22.5 -26 22.5 -65q0 -40 -25 -79.5t-68 -66.5l-25 50l32 60q-5 -2 -13 -2q-22 0 -36.5 17t-14.5 43q0 29 21 49
t50 20q34 0 56.5 -26z" />
    <glyph glyph-name="dagger" unicode="&#x2020;" horiz-adv-x="386" 
d="M356 574v-145l-89 1l-1 -513h-148v516l-88 1v145l88 -1v215h150v-218z" />
    <glyph glyph-name="daggerdbl" unicode="&#x2021;" horiz-adv-x="392" 
d="M116 -83v288h-86v145h86v84h-80v145h80v214h148v-219h98v-145h-98v-87h94v-146h-94v-279h-148z" />
    <glyph glyph-name="bullet" unicode="&#x2022;" horiz-adv-x="359" 
d="M103.5 138.5q-33.5 19.5 -53.5 53t-20 72.5q0 40 20.5 73.5t55.5 53.5t78 20q40 0 73.5 -19t52.5 -52t19 -72q0 -40 -21 -74.5t-56.5 -54.5t-75.5 -20q-39 0 -72.5 19.5z" />
    <glyph glyph-name="ellipsis" unicode="&#x2026;" horiz-adv-x="750" 
d="M281 18.5q-32 33.5 -32 78.5q0 30 16.5 55.5t43.5 40t57 14.5q44 0 74.5 -29t30.5 -78q0 -48 -31.5 -81.5t-78.5 -33.5q-48 0 -80 33.5zM515 18.5q-32 33.5 -32 78.5q0 30 16.5 55.5t43.5 40t57 14.5q44 0 74.5 -29t30.5 -78q0 -48 -31.5 -81.5t-78.5 -33.5
q-48 0 -80 33.5zM47 18.5q-32 33.5 -32 78.5q0 30 16.5 55.5t43.5 40t57 14.5q44 0 74.5 -29t30.5 -78q0 -48 -31.5 -81.5t-78.5 -33.5q-48 0 -80 33.5z" />
    <glyph glyph-name="perthousand" unicode="&#x2030;" horiz-adv-x="1430" 
d="M125.5 397.5q-45.5 27.5 -70.5 71.5t-25 91q0 49 28 91t76.5 66.5t107.5 24.5q54 0 96.5 -21.5t67 -60.5t24.5 -90t-24.5 -97t-70 -74.5t-105.5 -28.5q-59 0 -104.5 27.5zM479 -12l-204 105l266 619h189zM270 517q16 17 16 39t-17.5 39t-40.5 17q-22 0 -38 -15.5
t-16 -36.5q0 -23 18.5 -41.5t41.5 -18.5q20 0 36 17zM685 23q-45 24 -71 66t-26 94q0 51 25 96t70 72t102 27q59 0 103 -29t67 -75.5t23 -96.5q0 -55 -28 -95.5t-73 -61.5t-94 -21q-53 0 -98 24zM1102 28q-44 26 -68.5 69t-24.5 93q0 53 26.5 95t72.5 66t101 24
q56 0 99.5 -24.5t67.5 -67t24 -93.5q0 -54 -26.5 -97t-72 -67t-100.5 -24t-99 26zM821.5 149q18.5 17 18.5 41q0 22 -16.5 39t-40.5 17q-25 0 -40.5 -16.5t-15.5 -44.5q0 -25 13.5 -39t36.5 -14q26 0 44.5 17zM1245 149.5q16 16.5 16 38.5q0 23 -17.5 39.5t-40.5 16.5
q-22 0 -38 -15t-16 -36q0 -23 18.5 -41.5t41.5 -18.5q20 0 36 16.5z" />
    <glyph glyph-name="guilsinglleft" unicode="&#x2039;" horiz-adv-x="237" 
d="M168 50l-127 148l-11 80l128 156l49 -100l-67 -87l67 -98z" />
    <glyph glyph-name="guilsinglright" unicode="&#x203a;" horiz-adv-x="237" 
d="M71 62l-41 99l67 97l-67 86l51 100l126 -157l-9 -79z" />
    <glyph glyph-name="fraction" unicode="&#x2044;" horiz-adv-x="464" 
d="M146 -8l-116 9l289 756l115 -10z" />
    <glyph glyph-name="Euro" unicode="&#x20ac;" horiz-adv-x="875" 
d="M556 211q37 17 61 43t32 51l186 -58q-18 -75 -69 -134.5t-128 -93.5t-169 -34q-94 0 -170 38t-126 104t-70 149h-53l-19 211l74 -1q24 84 80.5 149.5t135 102.5t164.5 37q78 0 149 -29t124.5 -88.5t76.5 -146.5l-186 -55q-16 42 -59.5 75.5t-106.5 33.5q-44 0 -85 -21
t-66 -59l137 -1l13 -210l-152 1q23 -37 60.5 -59t83.5 -22q45 0 82 17z" />
    <glyph glyph-name="trademark" unicode="&#x2122;" horiz-adv-x="507" 
d="M214 768l5 -68l-60 -2l2 -156l-73 -6v160l-54 -2l-4 70zM476 543l-72 -2l3 116l-28 -116h-50l-32 112l3 -109h-68v221l35 -4v1l60 -7l25 -86l21 91h88z" />
    <glyph glyph-name="minus" unicode="&#x2212;" horiz-adv-x="519" 
d="M38 186l-8 200l457 3l2 -201z" />
    <glyph glyph-name="musicalnote" unicode="&#x266a;" horiz-adv-x="659" 
d="M629 764l-8 -172l-134 -14l-1 -378q-1 -69 -35 -114.5t-86.5 -66t-111.5 -20.5q-63 0 -113.5 19.5t-80 56.5t-29.5 86q0 45 28 83t74 60.5t98 22.5q42 0 75 -11l9 441z" />
    <glyph glyph-name="musicalnotedbl" unicode="&#x266b;" horiz-adv-x="991" 
d="M927.5 60q-33.5 -37 -87 -55.5t-112.5 -18.5q-61 0 -111.5 20t-79.5 57.5t-29 87.5q0 51 34 89t89 57.5t116 19.5h9l6 226l-266 1l-13 -379q-5 -87 -72.5 -126.5t-155.5 -39.5q-63 0 -114.5 20t-81 57.5t-29.5 87.5q0 47 32.5 87t83 63.5t103.5 23.5q23 0 35 -4l23 423
h646l8 -605q0 -55 -33.5 -92z" />
    <glyph glyph-name="I.ss01" horiz-adv-x="659" 
d="M627 549l-193 4l-6 -340l197 4v-219h-588l-4 207l187 4v349l-181 4l-9 202l599 -7z" />
    <glyph glyph-name="IJ.ss01" horiz-adv-x="1286" 
d="M627 549l-193 4l-6 -340l197 4v-219h-588l-4 207l187 4v349l-181 4l-9 202l599 -7zM1237 346q10 -39 10 -79q0 -77 -36 -141.5t-98 -102.5t-138 -38q-60 0 -119.5 24t-104.5 67.5t-62 100.5l158 99q13 -32 40.5 -54.5t61.5 -22.5q43 0 64.5 24t21.5 66q0 29 -8 53
l-52 207l-227 1l23 210l470 -3l16 -210h-74z" />
    <glyph glyph-name="Iacute.ss01" horiz-adv-x="659" 
d="M627 549l-193 4l-6 -340l197 4v-219h-588l-4 207l187 4v349l-181 4l-9 202l599 -7zM367 811l-140 14l90 165l156 -46z" />
    <glyph glyph-name="Icircumflex.ss01" horiz-adv-x="659" 
d="M627 549l-193 4l-6 -340l197 4v-219h-588l-4 207l187 4v349l-181 4l-9 202l599 -7zM502 814l-125 -4l-47 62l-54 -62l-122 -4l125 133l114 4z" />
    <glyph glyph-name="Idieresis.ss01" horiz-adv-x="659" 
d="M188.5 816.5q-22.5 23.5 -22.5 54.5q0 32 25 54.5t57 22.5q30 0 51.5 -20.5t21.5 -54.5q0 -33 -22 -56.5t-55 -23.5t-55.5 23.5zM364.5 816.5q-22.5 23.5 -22.5 54.5q0 32 25 54.5t57 22.5q30 0 51.5 -20.5t21.5 -54.5q0 -33 -22 -56.5t-55 -23.5t-55.5 23.5zM627 549
l-193 4l-6 -340l197 4v-219h-588l-4 207l187 4v349l-181 4l-9 202l599 -7z" />
    <glyph glyph-name="Igrave.ss01" horiz-adv-x="659" 
d="M627 549l-193 4l-6 -340l197 4v-219h-588l-4 207l187 4v349l-181 4l-9 202l599 -7zM263 800l-106 133l156 46l90 -165z" />
    <glyph glyph-name="Imacron.ss01" horiz-adv-x="659" 
d="M627 549l-193 4l-6 -340l197 4v-219h-588l-4 207l187 4v349l-181 4l-9 202l599 -7zM190 808l5 98h277l-6 -98h-276z" />
    <glyph glyph-name="Iogonek.ss01" horiz-adv-x="659" 
d="M434 553l-6 -340l197 4v-219h-45l-29 -26q-33 -28 -45.5 -42.5t-12.5 -30.5q0 -20 18 -20q12 0 25 8l37 -73q-29 -19 -60 -19q-39 0 -68.5 27.5t-31.5 64.5q-2 32 11.5 58t44.5 53h-432l-4 207l187 4v349l-181 4l-9 202l599 -7l-2 -208z" />
    <glyph glyph-name="k.ss01" horiz-adv-x="639" 
d="M442 -34l-179 223l-30 -28l-2 -159l-194 -2l-7 777l210 10l-4 -383l197 196l146 -120l-169 -156l198 -226z" />
    <glyph glyph-name="kcommaaccent.ss01" horiz-adv-x="639" 
d="M442 -34l-179 223l-30 -28l-2 -159l-194 -2l-7 777l210 10l-4 -383l197 196l146 -120l-169 -156l198 -226zM315 -210l-83 16l40 119l128 -22z" />
    <glyph glyph-name="l.ss01" horiz-adv-x="276" 
d="M243 -1l-210 12l-3 669l216 80z" />
    <glyph glyph-name="lacute.ss01" horiz-adv-x="276" 
d="M243 -1l-210 12l-3 669l216 80zM177 812l-140 14l90 165l156 -46z" />
    <glyph glyph-name="lcaron.ss01" horiz-adv-x="456" 
d="M243 -1l-210 12l-3 669l216 80zM405.5 739q22.5 -26 22.5 -65q0 -40 -25 -79.5t-68 -66.5l-25 50l32 60q-5 -2 -13 -2q-22 0 -36.5 17t-14.5 43q0 29 21 49t50 20q34 0 56.5 -26z" />
    <glyph glyph-name="lcommaaccent.ss01" horiz-adv-x="276" 
d="M243 -1l-210 12l-3 669l216 80zM138 -210l-83 16l40 119l128 -22z" />
    <glyph glyph-name="lslash.ss01" horiz-adv-x="476" 
d="M446 392l-101 -61l-1 -332l-210 12l-1 191l-68 -41l-35 191l102 62l-1 266l216 80l-1 -216l51 31z" />
    <glyph glyph-name="t.ss01" horiz-adv-x="475" 
d="M445 389l-113 -6l5 -379l-185 -5l-4 374l-118 -7l9 166l107 3l-1 133l184 8l2 -135l111 3z" />
    <glyph glyph-name="tbar.ss01" horiz-adv-x="475" 
d="M412 327l1 -142h-78l2 -181l-185 -5l-2 184h-60l-6 142h65l-1 48l-118 -7l9 166l107 3l-1 133l184 8l2 -135l111 3l3 -155l-113 -6l1 -56h79z" />
    <glyph glyph-name="tcaron.ss01" horiz-adv-x="612" 
d="M577.5 661q22.5 -26 22.5 -65q0 -40 -25 -79.5t-68 -66.5l-25 50l32 60q-5 -2 -13 -2q-22 0 -36.5 17t-14.5 43q0 29 21 49t50 20q34 0 56.5 -26zM435 389l-113 -6l5 -379l-185 -5l-4 374l-118 -7l9 166l107 3l-1 133l184 8l2 -135l111 3z" />
    <glyph glyph-name="uni0163.ss01" horiz-adv-x="475" 
d="M327.5 -41q25.5 -21 25.5 -56q0 -38 -23 -63t-61 -25q-37 0 -62.5 24t-21.5 59l56 2q2 -26 25 -28q11 0 18 7.5t7 19.5q0 13 -10 20t-29 7q-11 0 -62 -6l11 80l-49 -1l-4 374l-118 -7l9 166l107 3l-1 133l184 8l2 -135l111 3l3 -155l-113 -6l5 -379l-67 -2l-6 -25
q38 3 63.5 -18z" />
    <glyph glyph-name="y.ss01" horiz-adv-x="667" 
d="M426 535h211l-297 -804l-203 20l98 265l-205 500l214 20l91 -249z" />
    <glyph glyph-name="yacute.ss01" horiz-adv-x="667" 
d="M426 535h211l-297 -804l-203 20l98 265l-205 500l214 20l91 -249zM361 574l-140 14l90 165l156 -46z" />
    <glyph glyph-name="ycircumflex.ss01" horiz-adv-x="667" 
d="M426 535h211l-297 -804l-203 20l98 265l-205 500l214 20l91 -249zM518 578l-125 -4l-48 62l-53 -62l-122 -4l123 133l114 4z" />
    <glyph glyph-name="ydieresis.ss01" horiz-adv-x="667" 
d="M195.5 591.5q-22.5 23.5 -22.5 54.5q0 32 25 54.5t57 22.5q30 0 51.5 -20.5t21.5 -54.5q0 -33 -22 -56.5t-55 -23.5t-55.5 23.5zM371.5 591.5q-22.5 23.5 -22.5 54.5q0 32 25 54.5t57 22.5q30 0 51.5 -20.5t21.5 -54.5q0 -33 -22 -56.5t-55 -23.5t-55.5 23.5zM426 535
h211l-297 -804l-203 20l98 265l-205 500l214 20l91 -249z" />
    <glyph glyph-name="ygrave.ss01" horiz-adv-x="667" 
d="M426 535h211l-297 -804l-203 20l98 265l-205 500l214 20l91 -249zM327 574l-106 133l156 46l90 -165z" />
    <glyph glyph-name="f_i" horiz-adv-x="700" 
d="M668 537l-1 -536h-198l-10 348l-116 2l15 -349h-213l-3 352l-102 1l-19 186l119 -1v43q-1 68 31 121.5t85.5 82.5t116.5 29q52 0 90 -15.5t68 -50.5l-7 -148q-24 19 -44.5 30.5t-47.5 11.5q-43 0 -67 -25t-28 -81l139 -2z" />
    <glyph glyph-name="t_t" horiz-adv-x="810" 
d="M780 80q-30 -48 -74.5 -70t-113.5 -22q-108 0 -151 55q-29 -29 -68 -42.5t-93 -13.5q-99 0 -142.5 44.5t-43.5 138.5q0 18 4 62l18 132l-79 -1l-7 165l108 2l14 101l184 9l-13 -107l128 2l13 97l184 9l-13 -103l108 2l19 -171l-148 -1l-14 -109q-1 -4 -1 -13
q0 -31 17 -52.5t43 -17.5q25 4 37 14t33 35zM408 212l2 21l18 133l-126 -1l-14 -108l-1 -12q0 -29 15 -50t38 -21q34 0 68 38z" />
    <glyph glyph-name="t_t.ss01" horiz-adv-x="740" 
d="M710 415l-87 -5l5 -406l-184 -6l-4 401l-109 -6l5 -389l-184 -5l-4 383l-116 -7l11 162l103 5l-1 126l183 8l1 -124l109 5l-1 111l183 8l1 -109l86 4z" />
    <glyph glyph-name="four.ss01" horiz-adv-x="646" 
d="M616 425v-181h-107l3 -232l-208 -6l9 237h-273l-10 162h10l-10 1l254 354l218 1h2l-2 -2l5 -338zM214 411l106 4l5 130z" />
    <glyph glyph-name="zero.zero" horiz-adv-x="717" 
d="M526.5 724.5q72.5 -49.5 112.5 -138.5t40 -204q0 -117 -41 -208t-114 -142t-166 -51q-95 0 -171.5 52.5t-120.5 144t-44 204.5q0 112 43.5 201.5t120.5 140t173 50.5q95 0 167.5 -49.5zM299 526.5q-26 -21.5 -41 -58.5t-15 -83q0 -16 1 -24l145 180q-17 7 -32 7
q-32 0 -58 -21.5zM407 229.5q24 23.5 38 63t14 86.5q0 18 -1 26l-154 -181q23 -18 50 -18q29 0 53 23.5z" />
    <glyph glyph-name="uni00B2.001" horiz-adv-x="290" 
d="M261 463h-225l-5 69q50 28 86 65t38 63q0 9 -5 15t-15 6q-11 0 -19 -9.5t-9 -22.5l-77 14q3 45 34 75t77 30t73.5 -30t27.5 -77q0 -63 -75 -124l86 4z" />
    <glyph glyph-name="zero.dnom" horiz-adv-x="333" 
d="M101 14.5q-32 21.5 -51.5 57t-19.5 76.5q0 40 19.5 75.5t51.5 57.5t68 22t66.5 -21.5t49 -57t18.5 -76.5q0 -42 -18 -77.5t-49 -56.5t-67 -21t-68 21.5zM201.5 102.5q12.5 17.5 12.5 45.5q0 32 -12.5 50.5t-32.5 18.5q-22 0 -35.5 -19.5t-13.5 -49.5q0 -29 13.5 -46
t35.5 -17q20 0 32.5 17.5z" />
    <glyph glyph-name="one.dnom" horiz-adv-x="214" 
d="M30 300h90l64 -6v-294h-99v207h-55v93z" />
    <glyph glyph-name="two.dnom" horiz-adv-x="290" 
d="M261 -2h-225l-5 69q50 28 86 65t38 63q0 9 -5 15t-15 6q-11 0 -19 -9.5t-9 -22.5l-77 14q3 45 34 75t77 30t73.5 -30t27.5 -77q0 -63 -75 -124l86 4z" />
    <glyph glyph-name="three.dnom" horiz-adv-x="277" 
d="M232 157.5q15 -26.5 15 -63.5q0 -43 -34 -72t-86 -29q-35 0 -57.5 12t-39.5 40l42 63q24 -34 50 -34q13 0 23 9t10 21t-9.5 22t-26.5 10q-18 0 -31 -6l-15 49l49 44l-84 -1v72h196v-70h2l-45 -28q26 -12 41 -38.5z" />
    <glyph glyph-name="four.dnom" horiz-adv-x="291" 
d="M261 148v-81l-37 1v-66l-91 -2l3 72l-101 4l-5 223l84 5l-1 -146l26 -2l2 67l83 22v-94z" />
    <glyph glyph-name="five.dnom" horiz-adv-x="272" 
d="M211 169q31 -25 31 -72q0 -44 -32 -75t-78 -31q-31 0 -58 15.5t-44 43.5l63 38q4 -9 14.5 -15.5t20.5 -6.5q13 0 23 8.5t10 22.5t-9.5 22t-22.5 8q-11 0 -21.5 -5.5t-16.5 -12.5l-52 23l3 162h184v-74h-107l1 -27q5 1 16 1q44 0 75 -25z" />
    <glyph glyph-name="six.dnom" horiz-adv-x="273" 
d="M220.5 157.5q22.5 -26.5 22.5 -64.5q0 -44 -28 -72t-73 -28q-47 0 -78 31.5t-33 74.5v2v2v7q3 56 35.5 99.5t101.5 85.5l56 -58q-33 -16 -65 -46q39 -7 61.5 -33.5zM158.5 73.5q8.5 8.5 8.5 20.5q0 11 -8.5 19.5t-21.5 8.5q-11 0 -20.5 -6t-9.5 -20t10.5 -22.5t21.5 -8.5
t19.5 8.5z" />
    <glyph glyph-name="seven.dnom" horiz-adv-x="280" 
d="M249 222q-41 -46 -68 -107q-16 -34 -41 -115h-105q14 55 38 115q30 67 53 102l-95 -4v86h215z" />
    <glyph glyph-name="eight.dnom" horiz-adv-x="277" 
d="M233.5 126.5q13.5 -19.5 13.5 -43.5q0 -37 -29.5 -61.5t-74.5 -24.5q-46 0 -79.5 25t-33.5 59q0 23 14.5 43t36.5 29q-47 23 -47 62q0 32 31 56.5t73 24.5q41 0 71 -24.5t30 -57.5q0 -18 -9.5 -34t-29.5 -26q20 -8 33.5 -27.5zM119 223q-8 -6 -8 -14t8.5 -14.5t22.5 -9.5
q23 8 23 23q0 9 -8 15t-19 6t-19 -6zM161.5 69.5q8.5 5.5 9.5 15.5q0 7 -8 14.5t-23 12.5q-29 -7 -29 -26q0 -10 9 -16t21 -6t20.5 5.5z" />
    <glyph glyph-name="nine.dnom" horiz-adv-x="273" 
d="M242 186v-7q-3 -56 -35.5 -99.5t-101.5 -85.5l-56 58q33 16 65 46q-39 7 -61.5 33.5t-22.5 64.5q0 44 28 72t73 28q47 0 78 -31.5t33 -74.5v-2v-2zM114.5 215.5q-8.5 -8.5 -8.5 -20.5q0 -11 8.5 -19.5t21.5 -8.5q11 0 20.5 6t9.5 20t-10.5 22.5t-21.5 8.5t-19.5 -8.5z
" />
    <glyph glyph-name="zero.numr" horiz-adv-x="333" 
d="M101 483.5q-32 21.5 -51.5 57t-19.5 76.5q0 40 19.5 75.5t51.5 57.5t68 22t66.5 -21.5t49 -57t18.5 -76.5q0 -42 -18 -77.5t-49 -56.5t-67 -21t-68 21.5zM201.5 571.5q12.5 17.5 12.5 45.5q0 32 -12.5 50.5t-32.5 18.5q-22 0 -35.5 -19.5t-13.5 -49.5q0 -29 13.5 -46
t35.5 -17q20 0 32.5 17.5z" />
    <glyph glyph-name="one.numr" horiz-adv-x="213" 
d="M30 760h90l64 -6v-294h-99v207h-55v93z" />
    <glyph glyph-name="two.numr" horiz-adv-x="293" 
d="M261 463h-225l-5 69q50 28 86 65t38 63q0 9 -5 15t-15 6q-11 0 -19 -9.5t-9 -22.5l-77 14q3 45 34 75t77 30t73.5 -30t27.5 -77q0 -63 -75 -124l86 4z" />
    <glyph glyph-name="three.numr" horiz-adv-x="281" 
d="M232 624.5q15 -26.5 15 -63.5q0 -43 -34 -72t-86 -29q-35 0 -57.5 12t-39.5 40l42 63q24 -34 50 -34q13 0 23 9t10 21t-9.5 22t-26.5 10q-18 0 -31 -6l-15 49l49 44l-84 -1v72h196v-70h2l-45 -28q26 -12 41 -38.5z" />
    <glyph glyph-name="four.numr" horiz-adv-x="291" 
d="M261 604v-81l-37 1v-66l-91 -2l3 72l-101 4l-5 223l84 5l-1 -146l26 -2l2 67l83 22v-94z" />
    <glyph glyph-name="five.numr" horiz-adv-x="272" 
d="M211 634q31 -25 31 -72q0 -44 -32 -75t-78 -31q-31 0 -58 15.5t-44 43.5l63 38q4 -9 14.5 -15.5t20.5 -6.5q13 0 23 8.5t10 22.5t-9.5 22t-22.5 8q-11 0 -21.5 -5.5t-16.5 -12.5l-52 23l3 162h184v-74h-107l1 -27q5 1 16 1q44 0 75 -25z" />
    <glyph glyph-name="six.numr" horiz-adv-x="273" 
d="M220.5 622.5q22.5 -26.5 22.5 -64.5q0 -44 -28 -72t-73 -28q-47 0 -78 31.5t-33 74.5v2v2v7q3 56 35.5 99.5t101.5 85.5l56 -58q-33 -16 -65 -46q39 -7 61.5 -33.5zM158.5 538.5q8.5 8.5 8.5 20.5q0 11 -8.5 19.5t-21.5 8.5q-11 0 -20.5 -6t-9.5 -20t10.5 -22.5
t21.5 -8.5t19.5 8.5z" />
    <glyph glyph-name="seven.numr" horiz-adv-x="280" 
d="M249 683q-41 -46 -68 -107q-16 -34 -41 -115h-105q14 55 38 115q30 67 53 102l-95 -4v86h215z" />
    <glyph glyph-name="eight.numr" horiz-adv-x="277" 
d="M233.5 599.5q13.5 -19.5 13.5 -43.5q0 -37 -29.5 -61.5t-74.5 -24.5q-46 0 -79.5 25t-33.5 59q0 23 14.5 43t36.5 29q-47 23 -47 62q0 32 31 56.5t73 24.5q41 0 71 -24.5t30 -57.5q0 -18 -9.5 -34t-29.5 -26q20 -8 33.5 -27.5zM119 696q-8 -6 -8 -14t8.5 -14.5t22.5 -9.5
q23 8 23 23q0 9 -8 15t-19 6t-19 -6zM161.5 542.5q8.5 5.5 9.5 15.5q0 7 -8 14.5t-23 12.5q-29 -7 -29 -26q0 -10 9 -16t21 -6t20.5 5.5z" />
    <glyph glyph-name="nine.numr" horiz-adv-x="273" 
d="M242 649v-7q-3 -56 -35.5 -99.5t-101.5 -85.5l-56 58q33 16 65 46q-39 7 -61.5 33.5t-22.5 64.5q0 44 28 72t73 28q47 0 78 -31.5t33 -74.5v-2v-2zM114.5 678.5q-8.5 -8.5 -8.5 -20.5q0 -11 8.5 -19.5t21.5 -8.5q11 0 20.5 6t9.5 20t-10.5 22.5t-21.5 8.5t-19.5 -8.5z
" />
    <glyph glyph-name="four.dnom.ss01" horiz-adv-x="295" 
d="M265 165v-72h-44l1 -93l-82 -2l2 95h-108l-4 64l100 142h88l2 -136zM109 160l35 1l1 45z" />
    <glyph glyph-name="four.numr.ss01" horiz-adv-x="295" 
d="M265 626v-72h-44l1 -93l-82 -2l2 95h-108l-4 64l100 142h88l2 -136zM109 621l35 1l1 45z" />
    <glyph glyph-name="onequarter.ss01" horiz-adv-x="652" 
d="M30 760h90l64 -6v-294h-99v207h-55v93zM219 -8l-116 9l289 756l115 -10zM622 165v-72h-44l1 -93l-82 -2l2 95h-108l-4 64l100 142h88l2 -136zM466 160l35 1l1 45z" />
    <glyph glyph-name="threequarters.ss01" horiz-adv-x="710" 
d="M232 624.5q15 -26.5 15 -63.5q0 -43 -34 -72t-86 -29q-35 0 -57.5 12t-39.5 40l42 63q24 -34 50 -34q13 0 23 9t10 21t-9.5 22t-26.5 10q-18 0 -31 -6l-15 49l49 44l-84 -1v72h196v-70h2l-45 -28q26 -12 41 -38.5zM277 -8l-116 9l289 756l115 -10zM680 165v-72h-44l1 -93
l-82 -2l2 95h-108l-4 64l100 142h88l2 -136zM524 160l35 1l1 45z" />
    <glyph glyph-name="zero.dnom.zero" horiz-adv-x="336" 
d="M238 283.5q31 -21.5 49.5 -57t18.5 -76.5q0 -42 -18.5 -78t-49.5 -57t-67 -21t-69 21.5t-52.5 57.5t-19.5 77q0 40 20 75.5t52.5 57.5t68.5 22t67 -21.5zM136.5 197q-13.5 -17 -15.5 -44l59 59q-6 2 -10 2q-20 0 -33.5 -17zM202 102q12 16 12 45l-60 -59q10 -2 16 -2
q20 0 32 16z" />
    <glyph glyph-name="zero.numr.zero" horiz-adv-x="336" 
d="M238 744.5q31 -21.5 49.5 -57t18.5 -76.5q0 -42 -18.5 -78t-49.5 -57t-67 -21t-69 21.5t-52.5 57.5t-19.5 77q0 40 20 75.5t52.5 57.5t68.5 22t67 -21.5zM136.5 658q-13.5 -17 -15.5 -44l59 59q-6 2 -10 2q-20 0 -33.5 -17zM202 563q12 16 12 45l-60 -59q10 -2 16 -2
q20 0 32 16z" />
    <glyph glyph-name="numbersign.ss01" horiz-adv-x="376" 
d="M346 513l-57 -1v-45h-82l-1 42h-29l1 -51l-89 9l-1 39l-48 -1l-10 101h54v21l-54 -2v90h51l-2 48h91l1 -48l29 1l-1 47h90v-47h38l9 -82l-47 -1v-28h47zM174 606l29 -1v25l-29 -1v-23z" />
    <glyph glyph-name="uni0308.case" 
d="M-339.5 719.5q-22.5 23.5 -22.5 54.5q0 32 25 54.5t57 22.5q30 0 51.5 -20.5t21.5 -54.5q0 -33 -22 -56.5t-55 -23.5t-55.5 23.5zM-163.5 719.5q-22.5 23.5 -22.5 54.5q0 32 25 54.5t57 22.5q30 0 51.5 -20.5t21.5 -54.5q0 -33 -22 -56.5t-55 -23.5t-55.5 23.5z" />
    <glyph glyph-name="uni0307.case" 
d="M-172.5 720.5q-22.5 23.5 -22.5 54.5q0 32 25 54.5t57 22.5q30 0 51.5 -20.5t21.5 -54.5q0 -33 -22 -56.5t-55 -23.5t-55.5 23.5z" />
    <glyph glyph-name="gravecomb.case" 
d="M-170 643l-106 133l156 46l90 -165z" />
    <glyph glyph-name="acutecomb.case" 
d="M-126 584l-140 14l90 165l156 -46z" />
    <glyph glyph-name="uni030B.case" 
d="M-104 673l-59 4l36 130l97 3zM-259 674l13 135h101l-57 -135h-57z" />
    <glyph glyph-name="uni0302.case" 
d="M-30 677l-125 -4l-47 62l-54 -62l-122 -4l125 133l114 4z" />
    <glyph glyph-name="uni030C.case" 
d="M-165 802l125 -4l-111 -129l-114 4l-123 133l122 -4l53 -62z" />
    <glyph glyph-name="uni0306.case" 
d="M-299 661q-39 22 -61 60.5t-22 84.5l98 -9q0 -29 20.5 -49t51.5 -20t51.5 20.5t19.5 51.5l101 3q3 -43 -19 -81t-62.5 -60.5t-90.5 -22.5q-48 0 -87 22z" />
    <glyph glyph-name="uni030A.case" 
d="M-64.5 736.5q24.5 -23.5 24.5 -55.5t-25 -56.5t-58 -24.5q-31 0 -57 24t-26 55q0 32 24.5 56.5t58.5 24.5t58.5 -23.5zM-102.5 660.5q7.5 6.5 7.5 17.5q0 12 -7.5 20t-20.5 8q-11 0 -19.5 -8t-8.5 -20q0 -10 8 -17t20 -7q13 0 20.5 6.5z" />
    <glyph glyph-name="tildecomb.case" 
d="M-189 682.5q-19 6.5 -46 19.5q-20 10 -31.5 14.5t-22.5 4.5q-18 0 -29.5 -12.5t-7.5 -27.5l-115 12q-1 69 34 93t79 24q33 0 56 -7t49 -19q28 -14 45 -14q14 0 21.5 8t7.5 21q0 5 -1 8l103 -11q1 -6 1 -17q0 -46 -29.5 -74.5t-72.5 -28.5q-22 0 -41 6.5z" />
    <glyph glyph-name="uni0304.case" 
d="M-314 709l5 98h277l-6 -98h-276z" />
    <glyph glyph-name="uni0312.case" 
d="M-226 699l90 107l106 -67l-138 -64z" />
    <glyph glyph-name="uni0326.case" 
d="M-272 -221l74 107l168 -9l-122 -104z" />
    <glyph glyph-name="uni0327.case" 
d="M-186.5 -151q-25.5 24 -21.5 59l56 2q2 -26 25 -28q11 0 18 7.5t7 19.5q0 13 -10 20t-29 7q-11 0 -62 -6l13 91l70 6l-9 -40q38 3 63.5 -18t25.5 -56q0 -38 -23 -63t-61 -25q-37 0 -62.5 24z" />
    <glyph glyph-name="uni0328.case" 
d="M-39 0l-40 -35q-35 -30 -48 -45t-13 -31q0 -20 18 -20q12 0 25 8l37 -73q-29 -19 -60 -19q-39 0 -68.5 27.5t-31.5 64.5q-2 38 17 68t66 64z" />
    <glyph glyph-name="brevecombcy" 
d="M-299 621q-39 22 -61 60.5t-22 84.5l98 -9q0 -29 20.5 -49t51.5 -20t51.5 20.5t19.5 51.5l101 3q3 -43 -19 -81t-62.5 -60.5t-90.5 -22.5q-48 0 -87 22z" />
    </font>
</defs>
</svg>
