<svg width="63" height="61" fill="none" xmlns="http://www.w3.org/2000/svg"><g clip-path="url(#clip0)" fill="#fff"><path d="M10.38 42.435V23.2l-5.22 2.74v-3.556l5.64-3.09h3.24v23.142h-3.66zm27.18-6.47c0 2.098-.9 3.789-2.7 5.013-1.8 1.224-3.96 1.865-6.6 1.865-2.64 0-4.86-.641-6.66-1.865-1.8-1.224-2.7-2.915-2.7-5.013 0-2.798 1.92-4.955 4.74-5.83-2.22-.932-3.6-2.739-3.6-5.012 0-1.866.78-3.323 2.34-4.489 1.56-1.165 3.48-1.748 5.88-1.748 2.34 0 4.32.583 5.82 1.748 1.56 1.166 2.34 2.623 2.34 4.489 0 2.273-1.38 4.08-3.6 5.013 2.88.932 4.74 3.09 4.74 5.829zm-5.4-3.09c-1.02-.757-2.34-1.107-3.9-1.107s-2.88.35-3.9 1.107c-1.02.758-1.56 1.75-1.56 2.857 0 1.165.54 2.098 1.56 2.856 1.08.758 2.4 1.166 3.9 1.166 1.56 0 2.82-.408 3.9-1.166s1.56-1.749 1.56-2.856c0-1.166-.54-2.099-1.56-2.857zm.66-7.46c0-2.1-1.98-3.556-4.56-3.556-2.64 0-4.62 1.457-4.62 3.555 0 2.099 1.98 3.556 4.62 3.556 2.58-.058 4.56-1.516 4.56-3.556zm15.42 14.339v-6.587h-6.72V29.96h6.72v-6.587h3.36v6.587h6.78v3.206H51.6v6.587h-3.36z"/><path d="M31.26 1.166c16.56 0 30.06 13.115 30.06 29.203s-13.5 29.203-30.06 29.203S1.2 46.457 1.2 30.37 14.7 1.166 31.26 1.166zm0-1.166C13.98 0 0 13.582 0 30.37c0 16.787 13.98 30.368 31.26 30.368S62.52 47.157 62.52 30.37C62.52 13.582 48.54 0 31.26 0z"/></g><defs><clipPath id="clip0"><path fill="#fff" d="M0 0h62.52v60.738H0z"/></clipPath></defs></svg>