<svg width="26" height="25" fill="none" xmlns="http://www.w3.org/2000/svg"><path d="M12.762.602c6.55 0 11.897 5.347 11.897 11.898 0 6.551-5.308 11.898-11.897 11.898C6.21 24.398.864 19.05.864 12.5.864 5.949 6.211.602 12.762.602zm0-.602C5.872 0 .262 5.61.262 12.5S5.872 25 12.762 25s12.5-5.61 12.5-12.5S19.652 0 12.762 0z" fill="#fffb00"/><path fill-rule="evenodd" clip-rule="evenodd" d="M16.79 12.161c0-1.242.678-2.41 1.732-3.05-.678-.94-1.732-1.58-2.937-1.618-1.242-.151-2.41.753-3.05.753-.64 0-1.619-.753-2.673-.716a3.919 3.919 0 00-3.275 1.996c-1.431 2.485-.377 6.137.979 8.132.677.98 1.468 2.071 2.522 2.033 1.017-.037 1.393-.64 2.636-.64 1.242 0 1.581.64 2.635.603 1.092 0 1.77-.98 2.448-1.958a8.688 8.688 0 001.13-2.297 3.524 3.524 0 01-2.147-3.238zm-2.033-6.024c.564-.715.903-1.657.828-2.598-.904.113-1.77.527-2.334 1.243-.565.715-.904 1.619-.866 2.484a2.792 2.792 0 002.372-1.13z" fill="#fffb00"/></svg>