<svg width="26" height="25" fill="none" xmlns="http://www.w3.org/2000/svg"><path d="M13.024.602c6.552 0 11.86 5.31 11.86 11.86 0 6.213-4.781 11.333-10.843 11.823-.339.075-.678.075-1.017.075-.903 0-1.731-.075-2.56-.264C5.118 22.93 1.127 18.148 1.127 12.5 1.127 5.911 6.473.602 13.024.602zm0-.602C6.134 0 .524 5.61.524 12.5c0 5.798 4.142 10.919 9.79 12.199.866.188 1.77.301 2.71.301.377 0 .753 0 1.13-.038 6.363-.527 11.37-5.986 11.37-12.424C25.524 5.61 19.914 0 13.024 0z" fill="#fffb00"/><path d="M14.38 10.014c.189-.225.565-.376 1.092-.376.49 0 1.054.075 1.62.226l.451-2.485c-.941-.339-1.92-.414-2.937-.414-1.016 0-1.807.15-2.447.527-.64.339-1.092.753-1.318 1.355-.263.527-.376 1.393-.376 2.523v.979H8.507v2.786h1.958v8.96c.828.19 1.694.264 2.56.264.339 0 .678 0 1.016-.075v-9.149h2.598v-2.861h-2.598v-.904c0-.678.113-1.13.34-1.355z" fill="#fffb00"/></svg>