<svg width="19" height="24" fill="none" xmlns="http://www.w3.org/2000/svg"><path d="M1.35 7.936c-.376 0-.694.138-.957.416-.262.277-.393.61-.393.998v5.963c0 .398.131.736.393 1.013.263.277.581.416.957.416s.693-.139.951-.416c.258-.277.387-.615.387-1.013V9.35c0-.388-.131-.721-.393-.998a1.254 1.254 0 00-.945-.416zm10.857-5.353l.931-1.817c.061-.12.04-.212-.065-.277-.114-.056-.201-.028-.263.083l-.944 1.83a6.148 6.148 0 00-2.635-.582 6.14 6.14 0 00-2.636.583L5.651.572C5.59.462 5.503.433 5.39.489c-.105.065-.127.157-.065.277l.93 1.817A5.872 5.872 0 004 4.712 5.603 5.603 0 003.16 7.7h12.13c0-1.081-.28-2.077-.84-2.988a5.898 5.898 0 00-2.242-2.13zM6.825 5.225a.479.479 0 01-.715 0 .548.548 0 01-.144-.382.55.55 0 01.144-.38.48.48 0 01.715 0c.1.106.15.233.15.38 0 .149-.05.275-.15.382zm5.526 0a.458.458 0 01-.354.16.478.478 0 01-.36-.16.534.534 0 01-.151-.382c0-.147.05-.274.15-.38a.48.48 0 01.715 0 .55.55 0 01.144.38.549.549 0 01-.144.382zM3.213 17.436c0 .425.14.786.42 1.081.28.296.62.444 1.022.444h.97l.014 3.148c0 .398.13.736.393 1.013.262.277.577.416.944.416.376 0 .695-.139.957-.416a1.42 1.42 0 00.393-1.013v-3.148h1.81v3.148c0 .398.13.736.393 1.013.262.277.581.416.957.416s.695-.139.957-.416a1.42 1.42 0 00.393-1.013v-3.148h.984c.393 0 .73-.148 1.01-.443.28-.296.42-.656.42-1.082V8.199H3.212v9.237zm13.897-9.5c-.366 0-.681.136-.943.409a1.396 1.396 0 00-.394 1.005v5.963c0 .398.132.736.394 1.013.262.277.577.416.944.416.375 0 .695-.139.957-.416a1.42 1.42 0 00.393-1.013V9.35c0-.397-.13-.732-.393-1.005a1.279 1.279 0 00-.957-.41z" fill="#fffb00"/></svg>