<svg width="22" height="25" fill="none" xmlns="http://www.w3.org/2000/svg"><path d="M15.287.46c-1.28.09-2.775.908-3.646 1.975-.795.967-1.45 2.405-1.194 3.801 1.398.044 2.842-.795 3.68-1.88.782-1.009 1.375-2.437 1.16-3.895z" fill="#fffb00"/><path d="M20.344 8.513c-1.229-1.54-2.955-2.435-4.586-2.435-2.152 0-3.063 1.03-4.558 1.03-1.542 0-2.714-1.027-4.575-1.027-1.829 0-3.776 1.118-5.01 3.029C-.121 11.8.176 16.86 2.989 21.17c1.006 1.542 2.35 3.276 4.108 3.291 1.565.015 2.006-1.003 4.125-1.014 2.12-.012 2.522 1.027 4.083 1.011 1.76-.013 3.177-1.935 4.184-3.477.721-1.106.99-1.662 1.55-2.91-4.07-1.55-4.723-7.337-.695-9.558z" fill="#fffb00"/></svg>