<svg width="22" height="25" fill="none" xmlns="http://www.w3.org/2000/svg"><path d="M9.436 5.943c0 .056.022.08.07.07.036 0 .076-.044.118-.133a.25.25 0 01.216-.147H9.7c-.176.029-.264.099-.264.21zm1.214-.168a.23.23 0 01.244.063c.07.07.123.1.16.09.056-.027.07-.069.042-.125-.075-.12-.223-.13-.447-.028z" fill="#fff"/><path d="M21.321 20.59a5.505 5.505 0 00-.23-.132 3.635 3.635 0 01-.3-.181 2.105 2.105 0 01-.293-.265 1.62 1.62 0 01-.286-.398 3.181 3.181 0 01-.202-.564 3.381 3.381 0 01-.112-.789c-.13.112-.202.333-.216.663-.014.33.056.668.21 1.011.153.345.383.568.69.67.297.102.537.212.718.328.182.116.298.248.349.397.051.149-.035.31-.258.481-.223.173-.581.343-1.074.51-.68.232-1.16.43-1.444.593-.284.162-.7.471-1.249.927-.372.307-.767.472-1.185.496a1.148 1.148 0 01-1.019-.46c-.26-.33-.344-.799-.251-1.403.176-1.162.172-2.068-.014-2.72-.149-.511-.181-.963-.098-1.353.084-.39.214-.618.391-.683.176-.065.367.074.572.418.019.047.06.137.125.272s.119.23.16.286c.043.056.105.128.19.216a.694.694 0 00.313.188c.125.038.272.06.44.07.315.01.6-.055.85-.195.252-.14.44-.296.565-.468.126-.171.252-.337.377-.495.126-.158.235-.247.328-.265.102-.018.195-.12.279-.306.083-.186.14-.445.167-.775.028-.33.005-.722-.07-1.179-.14-.809-.416-1.697-.83-2.664-.414-.967-.876-1.725-1.388-2.274-.92-.977-1.539-1.99-1.855-3.041-.325-1.107-.465-2.102-.418-2.986.046-.632-.091-1.318-.412-2.057-.32-.74-.746-1.305-1.276-1.695-.335-.251-.75-.444-1.242-.58a5.218 5.218 0 00-1.479-.187c-.604 0-1.088.097-1.45.292-.745.401-1.238.887-1.48 1.459-.241.571-.353 1.276-.334 2.113.037 1.841.112 3.283.223 4.324-.13.484-.707 1.39-1.73 2.72a3.425 3.425 0 00-.544.754 7.85 7.85 0 00-.418.851c-.103.251-.24.614-.412 1.088-.172.474-.295.81-.37 1.005a3.603 3.603 0 01-.306.585c-.14.224-.252.442-.335.656a2.2 2.2 0 00-.14.726c-.01.205 0 .381.028.53.037.223.107.292.21.209.418-.316.943-.13 1.576.558.446.484 1.232 1.609 2.357 3.376.093.158.186.328.28.509.092.181.18.423.264.725.084.303.119.575.105.816-.014.242-.121.465-.32.67-.201.205-.501.335-.9.39-.215.029-.473.01-.775-.055a12.79 12.79 0 01-1.151-.321 18.18 18.18 0 00-1.032-.307c-.326-.075-.789-.17-1.388-.286-.6-.116-.993-.202-1.18-.258-.316-.084-.487-.205-.515-.363-.028-.13.037-.354.195-.67.158-.316.237-.544.237-.683a1.15 1.15 0 00-.014-.306 1.24 1.24 0 00-.063-.238 4.439 4.439 0 00-.118-.25 2.15 2.15 0 01-.112-.252c-.167-.39-.19-.655-.07-.795.084-.12.284-.168.6-.14.475.047.86-.023 1.159-.209.492-.307.641-.8.446-1.479 0 .317-.056.554-.168.712-.111.158-.306.32-.585.488-.159.093-.438.149-.837.167-.4.019-.665.084-.796.196-.093.083-.141.209-.146.376-.005.168.016.338.063.51.046.172.093.369.14.593.046.222.064.409.055.558-.01.102-.093.355-.251.76-.158.404-.191.714-.098.927a.687.687 0 00.237.273c.112.078.267.146.468.202.2.055.383.1.55.132.168.032.4.074.698.126a14.302 14.302 0 012.748.732c.763.279 1.279.423 1.549.433.26.01.509-.045.746-.16.237-.117.44-.25.607-.398.167-.15.416-.289.746-.419s.7-.2 1.11-.209c.185-.01.455-.02.808-.035.354-.014.619-.02.795-.02.8 0 1.405.004 1.814.013.279.01.497.053.655.132.158.08.26.17.307.273.047.102.123.22.23.355.107.135.245.244.412.328.354.167.768.234 1.242.202s.79-.123.949-.272c.26-.251.611-.549 1.053-.892a7.27 7.27 0 011.193-.782c.074-.037.2-.097.376-.181a17.01 17.01 0 00.886-.447c.172-.093.311-.18.418-.258a4.13 4.13 0 00.328-.272.737.737 0 00.216-.307.796.796 0 00.035-.314.6.6 0 00-.167-.334 1.818 1.818 0 00-.432-.342zM14.276 7.45c.028-.018.047-.025.056-.021a.3.3 0 01.056.056l.077.09.097.112a.572.572 0 00.335.188c.08.014.14.038.182.07a.283.283 0 01.09.16.386.386 0 01-.049.279c-.05.084-.118.121-.202.112-.167-.037-.349-.184-.544-.44-.195-.255-.228-.457-.098-.606zm-1.73-5.42a.445.445 0 00.084-.146.318.318 0 00.007-.174.306.306 0 01.014-.182c.023-.06.077-.095.16-.104.084 0 .196.07.335.209l.132.084c.06.037.103.07.126.097.023.028.035.051.035.07-.019.046-.06.079-.126.097a.768.768 0 01-.209.028c-.074 0-.116.005-.125.014a.69.69 0 00-.21.125 3.675 3.675 0 01-.153.126c-.037.028-.074.028-.111 0-.038-.056-.052-.095-.043-.118a.707.707 0 01.084-.125zM5.795 12.473c.064-.074.111-.135.139-.182a.82.82 0 00.077-.188 1.12 1.12 0 01.063-.174c.018-.037.046-.051.083-.042.019.01.033.019.042.028a.05.05 0 01.014.035v.042a.303.303 0 01-.028.119.414.414 0 00-.027.083 1.38 1.38 0 01-.028.097.696.696 0 01-.174.251c-.08.075-.138.108-.175.098-.056-.018-.051-.074.014-.167zm9.032 7.582c.08.488.11.83.091 1.025-.019.298-.081.716-.188 1.255-.107.54-.175.898-.203 1.075-.195-.01-.307-.082-.334-.216-.028-.136 0-.31.083-.524.205-.623.312-1.05.321-1.283.019-.428-.028-.67-.14-.726-.102-.074-.26.066-.474.419-.41.67-1.232 1.074-2.469 1.214-1.116.148-1.888-.019-2.315-.502-.094-.066-.187-.077-.28-.035-.093.041-.153.086-.18.132-.01.018 0 .046.027.084.028.037.072.092.133.167.06.074.109.149.146.224.363.632.33 1.06-.098 1.283 0-.428-.032-.756-.097-.984a2.544 2.544 0 00-.391-.753 6.438 6.438 0 01-.405-.621c.28-.028.49-.134.635-.32a.863.863 0 00.195-.6.77.77 0 00-.244-.53c-.083-.085-.516-.44-1.297-1.068-.782-.627-1.265-1.048-1.451-1.262a6.068 6.068 0 00-.335-.279c-.186-.149-.302-.279-.349-.39-.428-.94-.474-1.712-.14-2.317l.057-.07c.046-.008.05.075.013.252-.055.26-.074.52-.055.781.037.586.204 1.023.502 1.311.195.196.33.182.404-.041.056-.075.082-.35.077-.823a9.574 9.574 0 01.021-.963c.074-.53.295-1.185.663-1.967.367-.781.657-1.2.872-1.255a1.187 1.187 0 01-.16-.88 2.43 2.43 0 01.292-.808c.135-.223.272-.482.412-.774.14-.293.209-.556.209-.789a.49.49 0 01.014-.14c.028-.082.144.02.349.307.39.577.683.917.879 1.019.204.112.432.107.683-.014.251-.12.56-.32.928-.6.367-.279.681-.483.942-.614a.884.884 0 00.132-.063c.06-.032.107-.055.14-.07a1.659 1.659 0 00.244-.132.9.9 0 00.083-.062.188.188 0 00.056-.07.176.176 0 00.014-.063c-.019-.083-.058-.135-.119-.153-.06-.019-.142-.007-.244.035a3.21 3.21 0 00-.342.167l-.418.237a6.15 6.15 0 01-.467.244 4.03 4.03 0 01-.503.196 2.078 2.078 0 01-.502.097c-.39.01-.702-.092-.935-.306-.149-.14-.228-.228-.237-.266-.01-.037.033-.045.126-.027.502.065.87.074 1.102.027.242-.037.567-.144.976-.32.084-.037.295-.128.635-.273a8.23 8.23 0 01.788-.3c.112-.027.188-.071.23-.132.042-.06.056-.116.042-.167a.194.194 0 00-.09-.119c-.103-.055-.196-.018-.28.112-.046.083-.144.165-.293.244-.149.08-.286.14-.411.182-.126.041-.287.09-.482.146a4.638 4.638 0 00-.32.098 4.232 4.232 0 01-1.423.209c-.205-.01-.37-.04-.495-.091a.547.547 0 01-.259-.182 2.153 2.153 0 00-.223-.264 1.549 1.549 0 00-.348-.272c-.094-.047-.128-.13-.105-.252a.79.79 0 01.216-.376c.01-.01.105-.067.286-.174a1.16 1.16 0 00.384-.328c.083-.13.228-.265.432-.405.01-.037.016-.14.021-.306a1.2 1.2 0 00-.133-.545c-.093-.195-.218-.292-.376-.292-.223-.01-.382.055-.475.195a.835.835 0 00-.125.516c.01.177.053.332.133.467.079.135.15.202.216.202.102-.01.135.028.098.112a.378.378 0 01-.224.195c-.065.02-.137-.044-.216-.188a1.85 1.85 0 01-.181-.523 2 2 0 01-.049-.516c.019-.288.095-.565.23-.83s.328-.393.58-.384c.26.01.469.168.627.475.158.307.232.725.223 1.256.028.065.1.088.216.07.116-.02.27-.022.46-.008.191.014.328.063.412.146.01 0 .014-.07.014-.209-.167-1.172.246-1.795 1.242-1.87.148.028.274.063.376.105.103.042.212.112.328.21.116.097.214.24.293.425.079.186.142.419.189.698v.516c0 .298-.06.465-.182.502-.195.065-.335.063-.418-.007-.084-.07-.075-.193.027-.37.093-.233.075-.502-.055-.81-.13-.306-.368-.445-.712-.418-.232.01-.4.135-.502.377a1.38 1.38 0 00-.112.712c.028.232.08.353.154.362.055.01.22.084.495.223.274.14.481.223.62.252.363.074.57.19.621.349.051.158.03.388-.062.69-.093.302-.121.55-.084.746.037.205.107.39.21.558.101.168.21.321.327.46.116.14.253.401.412.782.158.381.302.86.432 1.437.009.01.044.041.105.098.06.055.12.125.18.209.061.083.133.198.217.341.083.145.174.356.272.635.098.28.188.6.272.963.102.428.155.925.16 1.492.005.568.042.956.112 1.165.07.21.249.296.537.259.363-.019.595-.214.697-.587.307-1.078.056-2.371-.753-3.877-.307-.587-.572-.973-.795-1.158.325.186.66.534 1.004 1.046.345.512.563.99.656 1.437l.077.37c.042.2.065.316.07.348.004.033.022.129.055.287.033.157.05.26.05.306 0 .047.004.137.013.272s.007.24-.007.314a4.387 4.387 0 00-.042.3 2.283 2.283 0 01-.07.363 28.81 28.81 0 00-.104.383c.511.224.767.419.767.586-.195-.157-.474-.262-.837-.314-.362-.05-.7-.002-1.011.147a.788.788 0 00-.481.74c-.335 0-.572.083-.712.25-.205.242-.312.57-.32.984a7.56 7.56 0 00.105 1.352zM9.073 4.91c-.028-.01-.051-.037-.07-.084 0-.083.042-.115.126-.097.055.019.109.089.16.209a.735.735 0 01.035.419c0 .027-.014.041-.042.041-.102 0-.14-.092-.111-.279.028-.14-.005-.209-.098-.209zm3.613.223l-.028.042c-.074.047-.112.056-.112.028-.037-.251-.12-.395-.25-.433l-.057-.027c-.065-.056-.032-.089.098-.098.028-.01.07.005.126.042a.535.535 0 01.153.174c.047.08.07.17.07.272z" fill="#fffb00"/></svg>