<svg width="185" height="51" fill="none" xmlns="http://www.w3.org/2000/svg"><path d="M27.953.142l8.651 16.489L56 19.215 41.929 32.05l3.327 18.092-17.303-8.556-17.304 8.556 3.327-18.093L0 19.216l19.3-2.584L27.953.142zm49.183 24.85c1.254-.66 2.046-1.848 2.046-3.388 0-2.398-1.98-4.004-5.83-4.004h-7.524V33h7.964c4.048 0 6.16-1.54 6.16-4.202 0-1.936-1.1-3.256-2.816-3.806zm-4.224-4.708c1.738 0 2.684.594 2.684 1.804s-.946 1.826-2.684 1.826H69.37v-3.63h3.542zm.616 10.032H69.37V26.51h4.158c1.848 0 2.838.616 2.838 1.914 0 1.32-.99 1.892-2.838 1.892zm12.664-.176v-3.564h7.15v-2.772h-7.15V20.46h8.096V17.6H82.65V33h11.924v-2.86h-8.382zm16.278 3.124c4.4 0 6.534-2.2 6.534-4.774 0-5.654-8.954-3.696-8.954-6.534 0-.968.814-1.76 2.926-1.76 1.364 0 2.838.396 4.268 1.21l1.1-2.706c-1.43-.902-3.41-1.364-5.346-1.364-4.378 0-6.49 2.178-6.49 4.796 0 5.72 8.954 3.74 8.954 6.622 0 .946-.858 1.65-2.97 1.65-1.848 0-3.784-.66-5.082-1.606l-1.21 2.684c1.364 1.056 3.828 1.782 6.27 1.782zM114.414 33h3.564V20.504h4.928V17.6h-13.42v2.904h4.928V33z" fill="#fff"/><path d="M132.055 33.264c4.4 0 6.534-2.2 6.534-4.774 0-5.654-8.954-3.696-8.954-6.534 0-.968.814-1.76 2.926-1.76 1.364 0 2.838.396 4.268 1.21l1.1-2.706c-1.43-.902-3.41-1.364-5.346-1.364-4.378 0-6.49 2.178-6.49 4.796 0 5.72 8.954 3.74 8.954 6.622 0 .946-.858 1.65-2.97 1.65-1.848 0-3.784-.66-5.082-1.606l-1.21 2.684c1.364 1.056 3.828 1.782 6.27 1.782zM143.999 33h3.564V20.504h4.928V17.6h-13.42v2.904h4.928V33zm21.143 0h3.74l-6.886-15.4h-3.52L151.612 33h3.652l1.364-3.3h7.15l1.364 3.3zm-7.37-6.006l2.442-5.896 2.442 5.896h-4.884zM184.119 33l-3.454-4.95c2.002-.858 3.168-2.552 3.168-4.862 0-3.454-2.574-5.588-6.688-5.588h-6.666V33h3.564v-4.29h3.278l2.97 4.29h3.828zm-3.894-9.812c0 1.672-1.1 2.684-3.278 2.684h-2.904v-5.368h2.904c2.178 0 3.278.99 3.278 2.684z" fill="#FF00E4"/></svg>