<svg width="63" height="61" viewBox="0 0 63 61" fill="none" xmlns="http://www.w3.org/2000/svg">
<g clip-path="url(#clip0)">
<path d="M10.3802 42.4351V23.1994L5.16016 25.939V22.3833L10.8002 19.2939H14.0402V42.4351H10.3802Z" fill="white"/>
<path d="M37.5604 35.9648C37.5604 38.0632 36.6604 39.7536 34.8604 40.9777C33.0604 42.2018 30.9004 42.843 28.2604 42.843C25.6204 42.843 23.4004 42.2018 21.6004 40.9777C19.8004 39.7536 18.9004 38.0632 18.9004 35.9648C18.9004 33.1668 20.8204 31.0101 23.6404 30.1357C21.4204 29.2031 20.0404 27.3961 20.0404 25.1228C20.0404 23.2575 20.8204 21.8002 22.3804 20.6344C23.9404 19.4686 25.8604 18.8857 28.2604 18.8857C30.6004 18.8857 32.5804 19.4686 34.0804 20.6344C35.6404 21.8002 36.4204 23.2575 36.4204 25.1228C36.4204 27.3961 35.0404 29.2031 32.8204 30.1357C35.7004 31.0684 37.5604 33.2251 37.5604 35.9648ZM32.1604 32.8754C31.1404 32.1176 29.8204 31.7679 28.2604 31.7679C26.7004 31.7679 25.3804 32.1176 24.3604 32.8754C23.3404 33.6331 22.8004 34.6241 22.8004 35.7316C22.8004 36.8974 23.3404 37.83 24.3604 38.5878C25.4404 39.3456 26.7604 39.7536 28.2604 39.7536C29.8204 39.7536 31.0804 39.3456 32.1604 38.5878C33.2404 37.83 33.7204 36.8391 33.7204 35.7316C33.7204 34.5658 33.1804 33.6331 32.1604 32.8754ZM32.8204 25.4142C32.8204 23.3158 30.8404 21.8585 28.2604 21.8585C25.6204 21.8585 23.6404 23.3158 23.6404 25.4142C23.6404 27.5127 25.6204 28.9699 28.2604 28.9699C30.8404 28.9116 32.8204 27.4544 32.8204 25.4142Z" fill="white"/>
<path d="M48.2405 39.7536V33.1668H41.5205V29.9608H48.2405V23.374H51.6005V29.9608H58.3805V33.1668H51.6005V39.7536H48.2405Z" fill="white"/>
<path d="M31.26 1.1658C47.82 1.1658 61.32 14.2811 61.32 30.3692C61.32 46.4573 47.82 59.5725 31.26 59.5725C14.7 59.5725 1.2 46.4573 1.2 30.3692C1.2 14.2811 14.7 1.1658 31.26 1.1658ZM31.26 0C13.98 0 0 13.5816 0 30.3692C0 47.1567 13.98 60.7383 31.26 60.7383C48.54 60.7383 62.52 47.1567 62.52 30.3692C62.52 13.5816 48.54 0 31.26 0Z" fill="white"/>
</g>
<defs>
<clipPath id="clip0">
<rect width="62.52" height="60.7383" fill="white"/>
</clipPath>
</defs>
</svg>
