<svg width="19" height="24" viewBox="0 0 19 24" fill="none" xmlns="http://www.w3.org/2000/svg">
<path d="M1.35041 7.93555C0.974484 7.93555 0.655521 8.0742 0.393329 8.35152C0.131136 8.62884 0 8.96161 0 9.35V15.3134C0 15.7115 0.131096 16.0485 0.393329 16.3259C0.655521 16.6032 0.974484 16.7419 1.35041 16.7419C1.72607 16.7419 2.0431 16.6033 2.30123 16.3259C2.55884 16.0486 2.68801 15.7115 2.68801 15.3134V9.35C2.68801 8.96157 2.55691 8.62884 2.29468 8.35152C2.03245 8.0742 1.71763 7.93555 1.35041 7.93555Z" fill="#fffb00"/>
<path d="M12.2071 2.58261L13.1381 0.76616C13.1992 0.645903 13.1775 0.553687 13.0727 0.488843C12.959 0.43293 12.8716 0.461262 12.8105 0.571838L11.8665 2.40281C11.0359 2.01438 10.1573 1.8198 9.23091 1.8198C8.30428 1.8198 7.42566 2.01442 6.59533 2.40281L5.6513 0.571838C5.58996 0.461262 5.50257 0.43318 5.38911 0.488843C5.28409 0.553979 5.26235 0.645903 5.3237 0.76616L6.25471 2.58261C5.31068 3.09181 4.55882 3.80095 3.9994 4.7116C3.43998 5.62275 3.16016 6.61843 3.16016 7.70041H15.2885C15.2885 6.61868 15.0086 5.62296 14.4492 4.7116C13.8898 3.80095 13.1423 3.09181 12.2071 2.58261ZM6.8247 5.22467C6.72402 5.33141 6.60377 5.38453 6.464 5.38453C6.32395 5.38453 6.20614 5.33141 6.11004 5.22467C6.01394 5.11844 5.96589 4.99175 5.96589 4.84342C5.96589 4.69558 6.01394 4.56864 6.11004 4.46216C6.20614 4.35592 6.32422 4.3028 6.464 4.3028C6.60377 4.3028 6.72402 4.35592 6.8247 4.46216C6.92514 4.56889 6.9756 4.69558 6.9756 4.84342C6.97532 4.9915 6.92491 5.11844 6.8247 5.22467ZM12.3513 5.22467C12.255 5.33141 12.1369 5.38453 11.9973 5.38453C11.8573 5.38453 11.737 5.33141 11.6366 5.22467C11.5359 5.11844 11.4857 4.99175 11.4857 4.84342C11.4857 4.69558 11.5359 4.56864 11.6366 4.46216C11.737 4.35592 11.8573 4.3028 11.9973 4.3028C12.1371 4.3028 12.2549 4.35592 12.3513 4.46216C12.4474 4.56889 12.4954 4.69558 12.4954 4.84342C12.4954 4.9915 12.4474 5.11844 12.3513 5.22467Z" fill="#fffb00"/>
<path d="M3.21289 17.4356C3.21289 17.8613 3.35267 18.2217 3.63226 18.5174C3.91208 18.8131 4.25278 18.9609 4.65499 18.9609H5.62533L5.63863 22.1094C5.63863 22.507 5.76972 22.8446 6.03192 23.1219C6.29411 23.3993 6.60897 23.538 6.97594 23.538C7.35164 23.538 7.6708 23.3993 7.93303 23.1219C8.19526 22.8446 8.32636 22.507 8.32636 22.1094V18.9612H10.1357V22.1094C10.1357 22.507 10.2668 22.8446 10.529 23.1219C10.7913 23.3993 11.1102 23.538 11.4861 23.538C11.8618 23.538 12.181 23.3993 12.4432 23.1219C12.7054 22.8446 12.8365 22.507 12.8365 22.1094V18.9612H13.8199C14.2132 18.9612 14.5495 18.8134 14.8297 18.5176C15.1092 18.2219 15.2491 17.8616 15.2491 17.4359V8.19922H3.21289V17.4356Z" fill="#fffb00"/>
<path d="M17.1108 7.93555C16.7435 7.93555 16.429 8.07216 16.1667 8.34464C15.9045 8.61761 15.7734 8.95293 15.7734 9.35V15.3134C15.7734 15.7115 15.9045 16.0485 16.1667 16.3259C16.429 16.6033 16.7438 16.7419 17.1108 16.7419C17.4865 16.7419 17.8056 16.6033 18.0679 16.3259C18.3301 16.0485 18.4612 15.7115 18.4612 15.3134V9.35C18.4612 8.95289 18.3301 8.61761 18.0679 8.34464C17.8056 8.07216 17.4865 7.93555 17.1108 7.93555Z" fill="#fffb00"/>
</svg>
