<svg width="22" height="25" viewBox="0 0 22 25" fill="none" xmlns="http://www.w3.org/2000/svg">
<path d="M15.2872 0.460938C14.0077 0.549439 12.5122 1.36846 11.6406 2.43498C10.8456 3.4025 10.1916 4.83952 10.4466 6.23605C11.8446 6.27955 13.2892 5.44104 14.1262 4.35651C14.9092 3.34699 15.5017 1.91897 15.2872 0.460938Z" fill="#fffb00"/>
<path d="M20.3439 8.51267C19.1154 6.97214 17.3889 6.07812 15.7583 6.07812C13.6058 6.07812 12.6953 7.10865 11.1997 7.10865C9.65771 7.10865 8.48618 6.08113 6.62464 6.08113C4.79611 6.08113 2.84907 7.19865 1.61454 9.10968C-0.12099 11.8007 0.176016 16.8603 2.98857 21.1699C3.99509 22.712 5.33912 24.446 7.09715 24.461C8.66168 24.476 9.10269 23.4575 11.2222 23.447C13.3418 23.435 13.7438 24.4745 15.3053 24.458C17.0649 24.4445 18.4824 22.523 19.4889 20.9809C20.2104 19.8754 20.4789 19.3189 21.0384 18.0709C16.9689 16.5213 16.3163 10.7342 20.3439 8.51267Z" fill="#fffb00"/>
</svg>
