<svg width="25" height="25" viewBox="0 0 25 25" fill="none" xmlns="http://www.w3.org/2000/svg">
<path d="M12.5 0.60241C19.0512 0.60241 24.3599 5.91115 24.3599 12.4624C24.3599 18.6747 19.5783 23.7952 13.5166 24.2846C13.1777 24.3599 12.8389 24.3599 12.5 24.3599C11.5964 24.3599 10.7681 24.2846 9.93976 24.0964C4.59337 22.9292 0.60241 18.1476 0.60241 12.5C0.60241 5.91115 5.9488 0.60241 12.5 0.60241ZM12.5 0C5.60994 0 0 5.60994 0 12.5C0 18.2982 4.14157 23.4187 9.78916 24.6988C10.6551 24.8871 11.5587 25 12.5 25C12.8765 25 13.253 25 13.6295 24.9624C19.9925 24.4352 25 18.9759 25 12.5377C25 5.60994 19.3901 0 12.5 0Z" fill="white"/>
<path fill-rule="evenodd" clip-rule="evenodd" d="M8.20776 5.27148C8.43366 5.30913 8.65957 5.42209 8.84782 5.53504C11.6716 7.11636 14.4954 8.69769 17.3192 10.279C16.6415 10.9567 15.9638 11.6344 15.2484 12.3498C12.9141 9.97781 10.5421 7.60582 8.20776 5.27148ZM7.3418 6.13745C7.3418 10.5049 7.3418 14.8724 7.3418 19.2399C7.3418 19.5034 7.45475 19.767 7.643 19.9552C10.0903 17.5456 12.4999 15.0983 14.9096 12.6887C12.4999 10.2414 10.0526 7.83173 7.643 5.38444C7.45475 5.57269 7.3418 5.87389 7.3418 6.13745ZM15.6249 12.6887C16.3403 13.404 17.0557 14.1194 17.771 14.8347C18.6746 14.3453 19.5406 13.8558 20.4442 13.3287C20.6701 13.1781 20.896 12.9522 20.896 12.6887C20.896 12.3874 20.6701 12.1615 20.4442 12.0109C19.5406 11.5215 18.6746 11.032 17.771 10.5049C17.0557 11.2579 16.3403 11.9733 15.6249 12.6887ZM8.20776 20.1058C10.5421 17.7338 12.9141 15.3995 15.2861 13.0275C15.9638 13.7052 16.6415 14.3829 17.3569 15.0983C14.5331 16.6796 11.6716 18.2986 8.84782 19.8799C8.62192 19.9552 8.43366 20.0682 8.20776 20.1058Z" fill="white"/>
</svg>
