<svg width="26" height="25" viewBox="0 0 26 25" fill="none" xmlns="http://www.w3.org/2000/svg">
<path d="M13.2861 0.60241C19.8373 0.60241 25.1837 5.9488 25.1837 12.5C25.1837 19.0512 19.875 24.3976 13.2861 24.3976C6.73493 24.3976 1.38854 19.0512 1.38854 12.5C1.38854 5.9488 6.73493 0.60241 13.2861 0.60241ZM13.2861 0C6.39607 0 0.786133 5.60994 0.786133 12.5C0.786133 19.3901 6.39607 25 13.2861 25C20.1762 25 25.7861 19.3901 25.7861 12.5C25.7861 5.60994 20.1762 0 13.2861 0Z" fill="white"/>
<path fill-rule="evenodd" clip-rule="evenodd" d="M18.0303 6.09961C14.8677 6.09961 11.7427 6.09961 8.58002 6.09961C7.4505 6.09961 6.88574 6.70202 6.88574 7.83154C6.88574 9.37521 6.88574 10.9565 6.88574 12.5379C6.88574 14.0815 6.88574 15.7005 6.88574 17.2818C6.88574 18.3737 7.48815 18.9761 8.54237 18.9761C11.705 18.9761 14.8677 18.9761 18.0303 18.9761C19.1222 18.9761 19.7246 18.3737 19.7246 17.2818C19.7246 14.1192 19.7246 10.9942 19.7246 7.83154C19.7246 6.70202 19.1222 6.09961 18.0303 6.09961ZM16.9761 7.53033C18.2562 7.53033 18.2562 7.53033 18.2562 8.81045C18.2562 10.0529 18.2562 10.0529 17.0138 10.0529C15.7336 10.0529 15.7336 10.0529 15.7336 8.7728C15.7336 7.53033 15.7336 7.53033 16.9761 7.53033ZM13.2863 10.0153C14.6418 10.0153 15.7713 11.1824 15.7713 12.5002C15.7713 13.8556 14.6041 14.9852 13.2487 14.9852C11.8933 14.9475 10.7638 13.818 10.8014 12.5002C10.8391 11.1448 11.9686 10.0153 13.2863 10.0153ZM18.2562 16.7171C18.2562 17.3195 18.1056 17.4701 17.5032 17.4701C16.1101 17.4701 14.7171 17.4701 13.2863 17.4701C11.8933 17.4701 10.5002 17.4701 9.10713 17.4701C8.50472 17.4701 8.35412 17.3195 8.35412 16.7171C8.35412 15.1734 8.35412 13.5921 8.31646 12.0484C8.31646 11.5966 8.42942 11.5213 8.84357 11.5213C9.44598 11.5589 9.44598 11.5589 9.37068 12.1237C9.14478 14.1192 10.5002 16.0394 12.458 16.4159C14.4912 16.7924 16.4866 15.5876 17.0514 13.6674C17.202 13.065 17.2773 12.4249 17.1267 11.8225C17.0891 11.5966 17.1267 11.5589 17.3526 11.5589C18.2562 11.4836 18.2562 11.4836 18.2562 12.3873C18.2562 13.7803 18.2562 15.2487 18.2562 16.7171Z" fill="white"/>
</svg>
