<svg width="22" height="25" viewBox="0 0 22 25" fill="none" xmlns="http://www.w3.org/2000/svg">
<path d="M9.43555 5.9427C9.43555 5.99874 9.45849 6.02225 9.5052 6.01235C9.54231 6.01235 9.58209 5.96882 9.62369 5.87994C9.6656 5.79214 9.73739 5.7433 9.83988 5.7334C9.79317 5.7334 9.74672 5.7334 9.70028 5.7334C9.52386 5.76196 9.43555 5.83166 9.43555 5.9427Z" fill="white"/>
<path d="M10.6494 5.77517C10.7423 5.74738 10.8237 5.76793 10.8936 5.83788C10.9636 5.90783 11.0167 5.93823 11.0541 5.9289C11.1098 5.90116 11.1237 5.85925 11.096 5.8029C11.0212 5.68253 10.8725 5.6732 10.6494 5.77517Z" fill="white"/>
<path d="M21.321 20.5906C21.2933 20.5727 21.2164 20.5279 21.091 20.4582C20.9655 20.3885 20.8654 20.3285 20.791 20.2767C20.7165 20.226 20.6188 20.1371 20.4979 20.012C20.377 19.8865 20.2817 19.7536 20.212 19.6143C20.1424 19.4747 20.0746 19.2868 20.0097 19.0498C19.9446 18.8123 19.9072 18.5501 19.8981 18.2613C19.7678 18.3732 19.6958 18.5942 19.6819 18.9241C19.6681 19.2547 19.7377 19.5916 19.8912 19.9354C20.0447 20.2797 20.2747 20.5031 20.5817 20.605C20.8793 20.7075 21.1187 20.8169 21.3002 20.933C21.4817 21.0491 21.5978 21.1815 21.649 21.3302C21.7 21.4788 21.6141 21.6392 21.3909 21.8114C21.1678 21.9836 20.8096 22.1536 20.3169 22.3209C19.6379 22.5531 19.1566 22.7509 18.873 22.9138C18.5892 23.0761 18.1731 23.3851 17.6243 23.8413C17.2523 24.148 16.857 24.3132 16.4385 24.3367C16.0199 24.3596 15.6804 24.2064 15.4202 23.8762C15.1597 23.5461 15.0761 23.0785 15.169 22.4742C15.3454 21.3123 15.3409 20.4056 15.1551 19.7538C15.0062 19.2427 14.9737 18.7914 15.0575 18.4009C15.1413 18.0101 15.2712 17.783 15.448 17.7176C15.6244 17.6527 15.8152 17.7923 16.0199 18.1361C16.0387 18.1825 16.0803 18.2733 16.1454 18.4081C16.2102 18.5432 16.2639 18.6382 16.3058 18.6942C16.3477 18.7497 16.4104 18.8224 16.4942 18.9104C16.5781 18.9987 16.6827 19.0615 16.8081 19.0984C16.9335 19.1359 17.0801 19.1589 17.2474 19.168C17.5634 19.1779 17.8472 19.1125 18.0984 18.9729C18.3495 18.8333 18.5377 18.6774 18.6634 18.5053C18.7888 18.3336 18.9146 18.1684 19.04 18.0099C19.1655 17.8524 19.2749 17.7635 19.3678 17.7451C19.4701 17.7267 19.5632 17.6242 19.6467 17.4385C19.7303 17.2527 19.7861 16.9943 19.8141 16.6642C19.8419 16.334 19.8187 15.9416 19.7444 15.4855C19.6048 14.6762 19.3281 13.7879 18.9143 12.8207C18.5004 11.8539 18.0376 11.0959 17.5264 10.5466C16.6059 9.56993 15.9871 8.55646 15.6711 7.50592C15.3455 6.39907 15.2059 5.404 15.2526 4.52028C15.299 3.88824 15.1619 3.20199 14.841 2.46267C14.5201 1.72335 14.0947 1.15848 13.5646 0.768011C13.2299 0.516845 12.8159 0.323859 12.3229 0.188834C11.8299 0.0543319 11.337 -0.00842682 10.8443 0.000906306C10.2397 0.000906306 9.75607 0.0983371 9.39334 0.29346C8.64922 0.694087 8.15648 1.17958 7.91465 1.75161C7.67282 2.32333 7.56126 3.02772 7.57997 3.86473C7.61708 5.70615 7.69153 7.14799 7.80309 8.1892C7.67256 8.67312 7.09604 9.57979 6.07323 10.9095C5.88718 11.0958 5.70571 11.3465 5.52925 11.6628C5.35253 11.9793 5.21297 12.2628 5.11074 12.514C5.00825 12.7651 4.87131 13.1276 4.69917 13.6021C4.52699 14.0762 4.40369 14.4114 4.32951 14.6065C4.26435 14.7739 4.16217 14.9695 4.02256 15.1924C3.88296 15.4158 3.7714 15.6344 3.68783 15.8479C3.60405 16.062 3.5573 16.3041 3.54823 16.5737C3.5389 16.7786 3.54823 16.9551 3.57601 17.1032C3.61313 17.3266 3.68278 17.3963 3.78527 17.3125C4.20377 16.9965 4.72909 17.1828 5.36165 17.8706C5.80789 18.3545 6.59371 19.4798 7.71926 21.247C7.81216 21.405 7.90532 21.5746 7.99821 21.756C8.09111 21.9375 8.17973 22.1788 8.26325 22.4812C8.34681 22.7837 8.38174 23.0556 8.36787 23.2974C8.354 23.5387 8.24698 23.7624 8.04706 23.9671C7.84688 24.1716 7.54686 24.3018 7.14728 24.3573C6.93323 24.3856 6.67513 24.3667 6.37298 24.3018C6.07057 24.2364 5.687 24.1297 5.22204 23.9808C4.75683 23.8321 4.41307 23.7295 4.18964 23.6741C3.86403 23.5993 3.40147 23.5041 2.80171 23.3879C2.20169 23.2718 1.80882 23.1859 1.62277 23.1301C1.30649 23.0463 1.13457 22.9251 1.10657 22.7671C1.07853 22.6369 1.14369 22.4134 1.30196 22.0974C1.45997 21.7809 1.53899 21.5535 1.53899 21.4141C1.54806 21.3122 1.54353 21.2097 1.52512 21.1075C1.50646 21.005 1.48535 20.926 1.46241 20.8699C1.43916 20.8145 1.39969 20.7304 1.34391 20.6193C1.28813 20.5075 1.25076 20.4237 1.23235 20.3681C1.06501 19.9774 1.0415 19.7126 1.16266 19.573C1.24648 19.4521 1.44614 19.4051 1.76268 19.4335C2.23697 19.4799 2.62268 19.41 2.92056 19.2242C3.41325 18.917 3.56219 18.4243 3.3668 17.7453C3.3668 18.0618 3.31102 18.2988 3.19946 18.4568C3.08785 18.6148 2.89251 18.7771 2.61357 18.945C2.45529 19.0382 2.17639 19.0936 1.77655 19.1124C1.37645 19.1308 1.11167 19.1956 0.981447 19.3075C0.88829 19.3913 0.839705 19.5167 0.834908 19.6841C0.83011 19.852 0.851219 20.022 0.897623 20.1936C0.94407 20.3658 0.990518 20.563 1.03723 20.7865C1.08363 21.0093 1.10208 21.1956 1.09301 21.3446C1.08367 21.4466 0.999851 21.7003 0.841842 22.1048C0.683572 22.5091 0.650993 22.8187 0.74415 23.0323C0.790597 23.1348 0.86958 23.2253 0.981185 23.3048C1.09279 23.3833 1.24836 23.4508 1.44854 23.5069C1.64846 23.5623 1.83207 23.6067 1.99945 23.6392C2.1668 23.6712 2.39925 23.7134 2.69687 23.7647C2.99448 23.8159 3.23151 23.86 3.40845 23.8976C4.00342 24.018 4.68242 24.2182 5.44525 24.4971C6.20756 24.776 6.72402 24.9199 6.99385 24.9297C7.25409 24.9391 7.50286 24.8852 7.74015 24.7696C7.97741 24.653 8.17947 24.5205 8.34685 24.3719C8.51419 24.2227 8.76296 24.0831 9.09315 23.9534C9.42304 23.8231 9.79296 23.7534 10.2021 23.7441C10.3882 23.7342 10.6578 23.7233 11.0112 23.7091C11.3645 23.695 11.6296 23.6883 11.8063 23.6883C12.6059 23.6883 13.2105 23.6926 13.6199 23.7019C13.8989 23.7112 14.1174 23.7553 14.2754 23.8343C14.4334 23.9132 14.5357 24.0043 14.5824 24.1068C14.6288 24.2088 14.7054 24.327 14.8127 24.4621C14.9195 24.5971 15.057 24.7063 15.2243 24.7901C15.5778 24.9574 15.9917 25.0244 16.466 24.9921C16.9403 24.9596 17.2563 24.8691 17.4146 24.7202C17.6748 24.469 18.0261 24.1714 18.4678 23.8276C18.9093 23.4833 19.3069 23.2228 19.6606 23.0461C19.7348 23.0085 19.8606 22.9487 20.0373 22.8646C20.2137 22.7813 20.3626 22.7087 20.4835 22.6481C20.6044 22.5875 20.7507 22.5109 20.9228 22.4181C21.0947 22.3249 21.2344 22.2387 21.3414 22.1597C21.4481 22.0807 21.5576 21.9897 21.6691 21.8877C21.7808 21.7852 21.8528 21.6828 21.8854 21.5811C21.9179 21.4786 21.9294 21.3745 21.92 21.2672C21.9107 21.1604 21.8549 21.0486 21.7527 20.9325C21.6512 20.8169 21.5071 20.7024 21.321 20.5906ZM14.2762 7.44983C14.3043 7.43195 14.3227 7.42475 14.332 7.42903C14.3411 7.43382 14.3598 7.45253 14.3878 7.48455C14.4158 7.51712 14.4412 7.54726 14.4647 7.57557C14.4876 7.6033 14.5205 7.64094 14.5624 7.6866C14.6042 7.73357 14.6483 7.77038 14.695 7.79843C14.7508 7.83606 14.818 7.86114 14.8973 7.87532C14.9763 7.88945 15.0369 7.91295 15.0786 7.94497C15.1205 7.97754 15.1506 8.03119 15.1693 8.10511C15.1877 8.2076 15.1715 8.30076 15.1205 8.38402C15.0692 8.46784 15.0019 8.50548 14.9181 8.49584C14.7508 8.45872 14.5693 8.31223 14.3741 8.05648C14.1791 7.80083 14.1459 7.59903 14.2762 7.44983ZM12.5464 2.03051C12.5928 1.96993 12.6206 1.92161 12.6299 1.88397C12.6484 1.82793 12.6508 1.77001 12.6369 1.70965C12.623 1.64934 12.6275 1.58876 12.6507 1.52814C12.6739 1.46808 12.7276 1.43341 12.8112 1.42351C12.895 1.42351 13.0065 1.49316 13.1459 1.63276C13.1736 1.65117 13.2179 1.67973 13.2785 1.71659C13.3389 1.7537 13.3808 1.78624 13.404 1.81402C13.4272 1.84176 13.4389 1.86526 13.4389 1.88367C13.4203 1.93012 13.3784 1.96269 13.3135 1.9811C13.2484 1.9995 13.1784 2.00884 13.1043 2.00884C13.0298 2.00884 12.9879 2.01363 12.9788 2.02301C12.9043 2.05075 12.8344 2.09266 12.7695 2.14844C12.7044 2.20448 12.6532 2.24583 12.616 2.27444C12.5787 2.30218 12.5416 2.30218 12.5045 2.27444C12.4671 2.2184 12.4532 2.17914 12.4625 2.15564C12.4719 2.1327 12.4999 2.09078 12.5464 2.03051ZM5.79463 12.4717C5.85949 12.3976 5.9062 12.3372 5.93393 12.2902C5.96172 12.2446 5.98732 12.1813 6.01082 12.1023C6.03376 12.0233 6.05487 11.9657 6.07354 11.928C6.09225 11.8909 6.11999 11.8768 6.15736 11.8861C6.17577 11.896 6.18994 11.9045 6.19927 11.9139C6.20834 11.9238 6.21314 11.9352 6.21314 11.9488C6.21314 11.963 6.21314 11.9766 6.21314 11.9907C6.21314 12.0049 6.21074 12.0233 6.20621 12.0463C6.20141 12.0703 6.19443 12.0908 6.18536 12.1095C6.17603 12.1279 6.16669 12.1559 6.15762 12.1928C6.14829 12.2304 6.13891 12.2625 6.12984 12.2902C6.09247 12.3839 6.03429 12.4675 5.95552 12.5414C5.87628 12.6161 5.8181 12.6487 5.78125 12.6388C5.72472 12.6212 5.72952 12.5649 5.79463 12.4717ZM14.8274 20.0538C14.9064 20.542 14.9366 20.8836 14.9181 21.0788C14.8994 21.3769 14.8367 21.7949 14.7297 22.3343C14.6227 22.8737 14.5554 23.2319 14.5274 23.4089C14.332 23.399 14.2204 23.3272 14.1927 23.1925C14.1649 23.0573 14.1927 22.8828 14.2762 22.6693C14.4806 22.0458 14.5877 21.6182 14.597 21.386C14.6157 20.9581 14.5692 20.7163 14.4577 20.6603C14.3552 20.586 14.1972 20.7256 13.9834 21.0788C13.5739 21.7484 12.751 22.1534 11.5142 22.2929C10.3983 22.4411 9.6261 22.274 9.19852 21.7906C9.10536 21.7252 9.01221 21.7137 8.91957 21.7556C8.82642 21.7975 8.7661 21.8419 8.73832 21.888C8.72899 21.9064 8.73832 21.9344 8.7661 21.9718C8.79384 22.0089 8.83815 22.0645 8.89851 22.1392C8.95883 22.2134 9.00767 22.2878 9.04505 22.3626C9.40777 22.9946 9.3752 23.4225 8.94736 23.6459C8.94736 23.2175 8.91456 22.89 8.84966 22.6623C8.78455 22.4346 8.65428 22.1832 8.45894 21.9091C8.26355 21.6345 8.12874 21.4274 8.0543 21.288C8.33324 21.2603 8.5449 21.1535 8.68904 20.9677C8.83318 20.7819 8.89829 20.582 8.88438 20.3677C8.87051 20.1542 8.78882 19.9769 8.64015 19.8374C8.55659 19.7535 8.12395 19.3981 7.34267 18.7705C6.56143 18.1427 6.07781 17.7221 5.89176 17.5081C5.85438 17.4709 5.74282 17.3778 5.55703 17.2291C5.37098 17.0804 5.25462 16.9502 5.20817 16.8383C4.78029 15.8994 4.73389 15.1272 5.06883 14.5223L5.12461 14.4527C5.17106 14.4439 5.1756 14.5274 5.13848 14.7038C5.0827 14.9649 5.06399 15.2248 5.0827 15.4853C5.11981 16.0712 5.28716 16.5082 5.58477 16.7964C5.78016 16.9921 5.91492 16.9779 5.98941 16.7545C6.04519 16.6803 6.07083 16.4057 6.06599 15.9317C6.0612 15.4577 6.06813 15.1366 6.08706 14.9695C6.16129 14.4391 6.38201 13.7836 6.74954 13.0024C7.1168 12.2208 7.40748 11.8023 7.62153 11.7468C7.45419 11.4775 7.40054 11.1844 7.46112 10.8679C7.52144 10.5519 7.61913 10.282 7.7542 10.0586C7.88901 9.83575 8.02617 9.57739 8.16577 9.28484C8.30538 8.99176 8.37503 8.72912 8.37503 8.49636C8.37503 8.43151 8.37956 8.38454 8.38889 8.35676C8.41663 8.2735 8.53303 8.37573 8.73775 8.66344C9.12826 9.24048 9.4213 9.58001 9.61668 9.68197C9.82114 9.7938 10.0491 9.78926 10.3002 9.66837C10.5513 9.54747 10.8605 9.34729 11.228 9.06834C11.5953 8.7894 11.9092 8.58498 12.1696 8.45419C12.1977 8.44538 12.2417 8.42427 12.3023 8.39147C12.3626 8.35946 12.4091 8.33595 12.4419 8.32178C12.4744 8.30817 12.5164 8.2868 12.5673 8.25906C12.6183 8.23128 12.6581 8.20782 12.6858 8.18941C12.7136 8.17101 12.7416 8.15016 12.7694 8.1267C12.7972 8.10324 12.8158 8.08025 12.8252 8.05705C12.8343 8.03354 12.839 8.013 12.839 7.99433C12.8203 7.91055 12.7808 7.85927 12.7205 7.8406C12.6599 7.8222 12.5785 7.83367 12.4763 7.87558C12.3737 7.91749 12.2601 7.97301 12.1344 8.04292C12.0089 8.11257 11.8693 8.19212 11.7158 8.27995C11.5623 8.36884 11.4065 8.44996 11.2485 8.52419C11.0902 8.59889 10.9228 8.66379 10.7461 8.71983C10.5694 8.77535 10.4021 8.80819 10.244 8.81726C9.85328 8.82716 9.5418 8.72463 9.30934 8.51058C9.1604 8.37097 9.08138 8.28288 9.07204 8.24528C9.06271 8.20817 9.10462 8.19966 9.19774 8.21755C9.69981 8.28292 10.0671 8.29225 10.2998 8.24528C10.5417 8.20817 10.867 8.1014 11.2762 7.92499C11.36 7.88788 11.5714 7.79686 11.9109 7.65245C12.2501 7.50858 12.5131 7.40822 12.6991 7.3527C12.8107 7.32497 12.8875 7.28092 12.9292 7.2203C12.9708 7.15972 12.9849 7.1042 12.9711 7.05295C12.9572 7.00171 12.9267 6.96193 12.8803 6.93415C12.7778 6.87863 12.6852 6.91575 12.6014 7.04598C12.5547 7.12923 12.457 7.21118 12.3083 7.29021C12.1593 7.36923 12.0224 7.42981 11.8967 7.47172C11.7712 7.51311 11.6105 7.56222 11.4154 7.61774C11.2201 7.67378 11.113 7.70662 11.0946 7.71569C10.583 7.8737 10.1087 7.94335 9.67172 7.92495C9.467 7.91561 9.30206 7.8857 9.17658 7.83393C9.05115 7.78321 8.96493 7.7221 8.91848 7.65241C8.87177 7.58272 8.79759 7.49493 8.69536 7.38764C8.59287 7.28087 8.47677 7.19042 8.3465 7.11567C8.25335 7.06922 8.21867 6.98544 8.24188 6.8645C8.26482 6.74361 8.33717 6.61813 8.45806 6.48791C8.46714 6.47857 8.56269 6.42092 8.74421 6.31359C8.92542 6.20682 9.05329 6.09714 9.12774 5.98558C9.2113 5.85587 9.3557 5.7208 9.56011 5.58124C9.56919 5.54413 9.57612 5.44164 9.58096 5.27456C9.5855 5.10665 9.54119 4.9257 9.44829 4.73005C9.35513 4.53493 9.2297 4.43754 9.0717 4.43754C8.84853 4.42821 8.69026 4.49306 8.59741 4.63267C8.50425 4.77227 8.46234 4.94441 8.47198 5.1486C8.48105 5.3258 8.52536 5.48141 8.60465 5.61622C8.68367 5.75129 8.75572 5.81828 8.82088 5.81828C8.92311 5.80894 8.95564 5.84602 8.91857 5.9301C8.86279 6.03259 8.78804 6.09744 8.69545 6.12522C8.63033 6.1442 8.55824 6.08118 8.47926 5.93734C8.40023 5.79346 8.33966 5.61918 8.29801 5.41421C8.25636 5.20923 8.23983 5.03704 8.24916 4.89774C8.26756 4.60999 8.34445 4.33322 8.47922 4.06792C8.61398 3.80315 8.80697 3.67506 9.05813 3.68439C9.31837 3.69429 9.52762 3.85174 9.68594 4.15894C9.84395 4.46563 9.91844 4.88414 9.90906 5.41451C9.93684 5.47993 10.0089 5.50287 10.1252 5.48416C10.2413 5.46576 10.3948 5.46283 10.5857 5.47696C10.7763 5.49057 10.9134 5.53968 10.9972 5.6235C11.0063 5.6235 11.0111 5.55385 11.0111 5.41425C10.8438 4.24198 11.2574 3.61928 12.2528 3.54453C12.4014 3.57227 12.5269 3.60724 12.6294 3.64915C12.7316 3.69107 12.8408 3.76098 12.9572 3.85841C13.0733 3.95584 13.1709 4.0981 13.2503 4.28416C13.329 4.47043 13.392 4.70266 13.4387 4.98157C13.4387 5.02854 13.4387 5.20072 13.4387 5.49751C13.4387 5.79564 13.3781 5.96298 13.2572 5.99984C13.0621 6.06521 12.9225 6.06255 12.8387 5.9926C12.7551 5.92295 12.7642 5.79961 12.8664 5.6232C12.9593 5.39048 12.9409 5.12087 12.8107 4.81392C12.6804 4.50724 12.4431 4.36767 12.0991 4.39541C11.8666 4.40475 11.699 4.53048 11.5967 4.77201C11.4943 5.01384 11.4572 5.25109 11.4852 5.48359C11.513 5.71635 11.5642 5.83673 11.6387 5.84606C11.6944 5.85596 11.8594 5.92988 12.1338 6.06949C12.4082 6.20909 12.6151 6.29235 12.7546 6.32065C13.1173 6.39488 13.3242 6.5115 13.3754 6.66951C13.4264 6.82752 13.4056 7.05758 13.3127 7.36003C13.2196 7.66244 13.1918 7.9109 13.2289 8.10603C13.2661 8.31101 13.3357 8.49675 13.4382 8.66414C13.5404 8.832 13.6496 8.98522 13.766 9.12456C13.8821 9.26416 14.0193 9.52523 14.1776 9.90606C14.3356 10.2875 14.4797 10.7666 14.6099 11.3431C14.619 11.3524 14.654 11.3845 14.7146 11.4405C14.7749 11.496 14.8352 11.566 14.8958 11.6498C14.9561 11.7331 15.0285 11.8476 15.112 11.9914C15.1955 12.1358 15.2863 12.3472 15.3839 12.6261C15.4816 12.9051 15.5724 13.2262 15.6559 13.5886C15.7581 14.017 15.8115 14.5145 15.8164 15.0812C15.8209 15.6489 15.8582 16.037 15.9279 16.2463C15.9976 16.4555 16.1767 16.5417 16.4649 16.5046C16.8277 16.4862 17.0599 16.2911 17.1623 15.9182C17.4693 14.8399 17.2181 13.5468 16.4091 12.0406C16.1022 11.4542 15.8371 11.0685 15.614 10.8827C15.9394 11.0685 16.2743 11.4173 16.6184 11.929C16.9625 12.4407 17.181 12.9193 17.2742 13.3661C17.2832 13.4125 17.3091 13.5361 17.3508 13.7355C17.3927 13.9354 17.4156 14.0521 17.4205 14.0843C17.425 14.1169 17.4434 14.2125 17.4762 14.3705C17.5088 14.5285 17.5251 14.631 17.5251 14.6772C17.5251 14.7241 17.5296 14.8144 17.5389 14.9491C17.548 15.0842 17.5459 15.1888 17.532 15.263C17.5181 15.3378 17.5042 15.4373 17.4901 15.5633C17.4762 15.6888 17.4528 15.8096 17.4204 15.9258C17.3876 16.0424 17.3529 16.17 17.3158 16.3093C17.8272 16.5327 18.0832 16.7279 18.0832 16.8952C17.8878 16.7377 17.6089 16.6331 17.2462 16.5813C16.8835 16.5306 16.5463 16.5792 16.2349 16.7279C15.9231 16.8771 15.7627 17.1234 15.7536 17.4675C15.4189 17.4675 15.1817 17.5513 15.0421 17.7186C14.8374 17.9605 14.7304 18.2879 14.7213 18.7022C14.7134 19.1151 14.7481 19.5657 14.8274 20.0538ZM9.07283 4.91096C9.04509 4.90162 9.02158 4.87384 9.00318 4.82713C9.00318 4.74388 9.04509 4.71156 9.12861 4.72975C9.18439 4.74872 9.23777 4.81863 9.28902 4.939C9.34 5.06046 9.35173 5.20002 9.324 5.35751C9.324 5.38529 9.31013 5.39942 9.28208 5.39942C9.17959 5.39942 9.14248 5.30679 9.17052 5.12047C9.19856 4.98065 9.16572 4.91096 9.07283 4.91096ZM12.686 5.13439L12.6579 5.17577C12.5835 5.22275 12.5464 5.23182 12.5464 5.20404C12.509 4.95287 12.4255 4.80899 12.2952 4.7714C12.2765 4.76206 12.2578 4.75299 12.2394 4.74366C12.1743 4.68757 12.2066 4.6553 12.3371 4.64623C12.3648 4.6369 12.4068 4.6505 12.4625 4.68757C12.5183 4.72521 12.5693 4.78339 12.616 4.86189C12.6628 4.9414 12.686 5.0319 12.686 5.13439Z" fill="#fffb00"/>
</svg>
