<svg width="185" height="51" viewBox="0 0 185 51" fill="none" xmlns="http://www.w3.org/2000/svg">
<path d="M27.9525 0.142212L36.6044 16.6306L56 19.2153L41.9287 32.0495L45.2564 50.1422L27.9525 41.5861L10.6486 50.1422L13.9762 32.0495L0 19.2153L19.3005 16.6306L27.9525 0.142212Z" fill="white"/>
<path d="M77.136 24.992C78.39 24.332 79.182 23.144 79.182 21.604C79.182 19.206 77.202 17.6 73.352 17.6H65.828V33H73.792C77.84 33 79.952 31.46 79.952 28.798C79.952 26.862 78.852 25.542 77.136 24.992ZM72.912 20.284C74.65 20.284 75.596 20.878 75.596 22.088C75.596 23.298 74.65 23.914 72.912 23.914H69.37V20.284H72.912ZM73.528 30.316H69.37V26.51H73.528C75.376 26.51 76.366 27.126 76.366 28.424C76.366 29.744 75.376 30.316 73.528 30.316ZM86.1922 30.14V26.576H93.3422V23.804H86.1922V20.46H94.2882V17.6H82.6502V33H94.5742V30.14H86.1922ZM102.47 33.264C106.87 33.264 109.004 31.064 109.004 28.49C109.004 22.836 100.05 24.794 100.05 21.956C100.05 20.988 100.864 20.196 102.976 20.196C104.34 20.196 105.814 20.592 107.244 21.406L108.344 18.7C106.914 17.798 104.934 17.336 102.998 17.336C98.62 17.336 96.508 19.514 96.508 22.132C96.508 27.852 105.462 25.872 105.462 28.754C105.462 29.7 104.604 30.404 102.492 30.404C100.644 30.404 98.708 29.744 97.41 28.798L96.2 31.482C97.564 32.538 100.028 33.264 102.47 33.264ZM114.414 33H117.978V20.504H122.906V17.6H109.486V20.504H114.414V33Z" fill="white"/>
<path d="M132.055 33.264C136.455 33.264 138.589 31.064 138.589 28.49C138.589 22.836 129.635 24.794 129.635 21.956C129.635 20.988 130.449 20.196 132.561 20.196C133.925 20.196 135.399 20.592 136.829 21.406L137.929 18.7C136.499 17.798 134.519 17.336 132.583 17.336C128.205 17.336 126.093 19.514 126.093 22.132C126.093 27.852 135.047 25.872 135.047 28.754C135.047 29.7 134.189 30.404 132.077 30.404C130.229 30.404 128.293 29.744 126.995 28.798L125.785 31.482C127.149 32.538 129.613 33.264 132.055 33.264ZM143.999 33H147.563V20.504H152.491V17.6H139.071V20.504H143.999V33ZM165.142 33H168.882L161.996 17.6H158.476L151.612 33H155.264L156.628 29.7H163.778L165.142 33ZM157.772 26.994L160.214 21.098L162.656 26.994H157.772ZM184.119 33L180.665 28.05C182.667 27.192 183.833 25.498 183.833 23.188C183.833 19.734 181.259 17.6 177.145 17.6H170.479V33H174.043V28.71H177.145H177.321L180.291 33H184.119ZM180.225 23.188C180.225 24.86 179.125 25.872 176.947 25.872H174.043V20.504H176.947C179.125 20.504 180.225 21.494 180.225 23.188Z" fill="#FF00E4"/>
</svg>
